Montserrat-Bold.ufo
<glyph name="exclam" format="2">
  <advance width="289"/>
  <unicode hex="0021"/>
  <outline>
    <contour>
      <point x="52" y="700" type="line"/>
      <point x="238" y="700" type="line"/>
      <point x="207" y="243" type="line"/>
      <point x="83" y="243" type="line"/>
    </contour>
    <contour>
      <point x="49" y="45"/>
      <point x="49" y="83" type="qcurve" smooth="yes"/>
      <point x="49" y="121"/>
      <point x="103" y="172"/>
      <point x="145" y="172" type="qcurve" smooth="yes"/>
      <point x="187" y="172"/>
      <point x="241" y="121"/>
      <point x="241" y="83" type="qcurve" smooth="yes"/>
      <point x="241" y="45"/>
      <point x="186" y="-8"/>
      <point x="145" y="-8" type="qcurve" smooth="yes"/>
      <point x="104" y="-8"/>
    </contour>
  </outline>
</glyph>
<glyph name="numbersign" format="2">
  <advance width="720"/>
  <unicode hex="0023"/>
  <outline>
    <contour>
      <point x="536" y="269" type="line"/>
      <point x="666" y="269" type="line"/>
      <point x="666" y="160" type="line"/>
      <point x="523" y="160" type="line"/>
      <point x="503" y="0" type="line"/>
      <point x="390" y="0" type="line"/>
      <point x="410" y="160" type="line"/>
      <point x="263" y="160" type="line"/>
      <point x="243" y="0" type="line"/>
      <point x="131" y="0" type="line"/>
      <point x="151" y="160" type="line"/>
      <point x="20" y="160" type="line"/>
      <point x="20" y="269" type="line"/>
      <point x="164" y="269" type="line"/>
      <point x="185" y="431" type="line"/>
      <point x="54" y="431" type="line"/>
      <point x="54" y="540" type="line"/>
      <point x="198" y="540" type="line"/>
      <point x="218" y="700" type="line"/>
      <point x="330" y="700" type="line"/>
      <point x="310" y="540" type="line"/>
      <point x="457" y="540" type="line"/>
      <point x="477" y="700" type="line"/>
      <point x="589" y="700" type="line"/>
      <point x="569" y="540" type="line"/>
      <point x="699" y="540" type="line"/>
      <point x="700" y="431" type="line"/>
      <point x="556" y="431" type="line"/>
    </contour>
    <contour>
      <point x="423" y="269" type="line"/>
      <point x="444" y="431" type="line"/>
      <point x="297" y="431" type="line"/>
      <point x="276" y="269" type="line"/>
    </contour>
  </outline>
</glyph>
<glyph name="dollar" format="2">
  <advance width="638"/>
  <unicode hex="0024"/>
  <outline>
    <contour>
      <point x="490" y="6"/>
      <point x="377" y="-8" type="qcurve"/>
      <point x="377" y="-120" type="line"/>
      <point x="277" y="-120" type="line"/>
      <point x="277" y="-11" type="line"/>
      <point x="203" y="-7"/>
      <point x="69" y="37"/>
      <point x="28" y="69" type="qcurve"/>
      <point x="83" y="191" type="line"/>
      <point x="121" y="163"/>
      <point x="223" y="125"/>
      <point x="277" y="120" type="qcurve"/>
      <point x="277" y="287" type="line"/>
      <point x="206" y="304"/>
      <point x="108" y="346"/>
      <point x="42" y="427"/>
      <point x="42" y="494" type="qcurve" smooth="yes"/>
      <point x="42" y="577"/>
      <point x="163" y="696"/>
      <point x="277" y="709" type="qcurve"/>
      <point x="277" y="820" type="line"/>
      <point x="377" y="820" type="line"/>
      <point x="377" y="711" type="line"/>
      <point x="500" y="701"/>
      <point x="580" y="650" type="qcurve"/>
      <point x="530" y="527" type="line"/>
      <point x="455" y="570"/>
      <point x="377" y="579" type="qcurve"/>
      <point x="377" y="409" type="line"/>
      <point x="447" y="393"/>
      <point x="544" y="352"/>
      <point x="610" y="271"/>
      <point x="610" y="205" type="qcurve" smooth="yes"/>
      <point x="610" y="123"/>
    </contour>
    <contour>
      <point x="241" y="445"/>
      <point x="277" y="434" type="qcurve"/>
      <point x="277" y="576" type="line"/>
      <point x="239" y="567"/>
      <point x="203" y="528"/>
      <point x="203" y="502" type="qcurve" smooth="yes"/>
      <point x="203" y="477"/>
    </contour>
    <contour>
      <point x="449" y="168"/>
      <point x="449" y="193" type="qcurve" smooth="yes"/>
      <point x="449" y="218"/>
      <point x="412" y="250"/>
      <point x="377" y="262" type="qcurve"/>
      <point x="377" y="124" type="line"/>
      <point x="413" y="132"/>
    </contour>
  </outline>
</glyph>
<glyph name="ampersand" format="2">
  <advance width="728"/>
  <unicode hex="0026"/>
  <outline>
    <contour>
      <point x="621" y="-12" type="line"/>
      <point x="537" y="66" type="line"/>
      <point x="437" y="-12"/>
      <point x="303" y="-12" type="qcurve" smooth="yes"/>
      <point x="227" y="-12"/>
      <point x="105" y="37"/>
      <point x="36" y="125"/>
      <point x="36" y="180" type="qcurve" smooth="yes"/>
      <point x="36" y="245"/>
      <point x="109" y="344"/>
      <point x="190" y="389" type="qcurve"/>
      <point x="152" y="428"/>
      <point x="118" y="499"/>
      <point x="118" y="537" type="qcurve" smooth="yes"/>
      <point x="118" y="588"/>
      <point x="172" y="666"/>
      <point x="271" y="709"/>
      <point x="336" y="709" type="qcurve" smooth="yes"/>
      <point x="427" y="709"/>
      <point x="537" y="622"/>
      <point x="537" y="548" type="qcurve" smooth="yes"/>
      <point x="537" y="494"/>
      <point x="472" y="410"/>
      <point x="400" y="371" type="qcurve"/>
      <point x="528" y="252" type="line"/>
      <point x="551" y="300"/>
      <point x="563" y="361" type="qcurve"/>
      <point x="688" y="322" type="line"/>
      <point x="668" y="229"/>
      <point x="624" y="163" type="qcurve"/>
      <point x="706" y="87" type="line"/>
    </contour>
    <contour>
      <point x="260" y="567"/>
      <point x="260" y="539" type="qcurve" smooth="yes"/>
      <point x="260" y="518"/>
      <point x="282" y="481"/>
      <point x="314" y="450" type="qcurve"/>
      <point x="365" y="477"/>
      <point x="405" y="520"/>
      <point x="405" y="545" type="qcurve" smooth="yes"/>
      <point x="405" y="571"/>
      <point x="369" y="603"/>
      <point x="336" y="603" type="qcurve" smooth="yes"/>
      <point x="301" y="603"/>
    </contour>
    <contour>
      <point x="445" y="151" type="qcurve"/>
      <point x="276" y="309" type="line"/>
      <point x="229" y="282"/>
      <point x="189" y="230"/>
      <point x="189" y="197" type="qcurve" smooth="yes"/>
      <point x="189" y="158"/>
      <point x="257" y="110"/>
      <point x="314" y="110" type="qcurve" smooth="yes"/>
      <point x="387" y="110"/>
    </contour>
  </outline>
</glyph>
<glyph name="quotesingle" format="2">
  <advance width="230"/>
  <unicode hex="0027"/>
  <outline>
    <contour>
      <point x="49" y="700" type="line"/>
      <point x="182" y="700" type="line"/>
      <point x="171" y="416" type="line"/>
      <point x="59" y="416" type="line"/>
    </contour>
  </outline>
</glyph>
<glyph name="parenleft" format="2">
  <advance width="357"/>
  <unicode hex="0028"/>
  <outline>
    <contour>
      <point x="73" y="137"/>
      <point x="73" y="274" type="qcurve" smooth="yes"/>
      <point x="73" y="411"/>
      <point x="138" y="652"/>
      <point x="198" y="742" type="qcurve"/>
      <point x="347" y="742" type="line"/>
      <point x="284" y="631"/>
      <point x="226" y="402"/>
      <point x="226" y="274" type="qcurve" smooth="yes"/>
      <point x="226" y="146"/>
      <point x="284" y="-83"/>
      <point x="347" y="-194" type="qcurve"/>
      <point x="198" y="-194" type="line"/>
      <point x="138" y="-103"/>
    </contour>
  </outline>
</glyph>
<glyph name="parenright" format="2">
  <advance width="358"/>
  <unicode hex="0029"/>
  <outline>
    <contour>
      <point x="10" y="-194" type="line"/>
      <point x="73" y="-83"/>
      <point x="132" y="146"/>
      <point x="132" y="274" type="qcurve" smooth="yes"/>
      <point x="132" y="402"/>
      <point x="73" y="631"/>
      <point x="10" y="742" type="qcurve"/>
      <point x="159" y="742" type="line"/>
      <point x="220" y="653"/>
      <point x="285" y="412"/>
      <point x="285" y="274" type="qcurve" smooth="yes"/>
      <point x="285" y="136"/>
      <point x="221" y="-103"/>
      <point x="159" y="-194" type="qcurve"/>
    </contour>
  </outline>
</glyph>
<glyph name="asterisk" format="2">
  <advance width="434"/>
  <unicode hex="002A"/>
  <outline>
    <contour>
      <point x="312" y="544" type="line"/>
      <point x="421" y="485" type="line"/>
      <point x="372" y="403" type="line"/>
      <point x="262" y="468" type="line"/>
      <point x="264" y="347" type="line"/>
      <point x="170" y="347" type="line"/>
      <point x="171" y="469" type="line"/>
      <point x="61" y="403" type="line"/>
      <point x="13" y="485" type="line"/>
      <point x="122" y="544" type="line"/>
      <point x="13" y="604" type="line"/>
      <point x="61" y="686" type="line"/>
      <point x="171" y="620" type="line"/>
      <point x="170" y="742" type="line"/>
      <point x="264" y="742" type="line"/>
      <point x="262" y="620" type="line"/>
      <point x="372" y="686" type="line"/>
      <point x="421" y="604" type="line"/>
    </contour>
  </outline>
</glyph>
<glyph name="plus" format="2">
  <advance width="599"/>
  <unicode hex="002B"/>
  <outline>
    <contour>
      <point x="538" y="289" type="line"/>
      <point x="364" y="289" type="line"/>
      <point x="364" y="119" type="line"/>
      <point x="235" y="119" type="line"/>
      <point x="235" y="289" type="line"/>
      <point x="62" y="289" type="line"/>
      <point x="62" y="411" type="line"/>
      <point x="235" y="411" type="line"/>
      <point x="235" y="581" type="line"/>
      <point x="364" y="581" type="line"/>
      <point x="364" y="411" type="line"/>
      <point x="538" y="411" type="line"/>
    </contour>
  </outline>
</glyph>
<glyph name="comma" format="2">
  <advance width="262"/>
  <unicode hex="002C"/>
  <outline>
    <contour>
      <point x="228" y="133"/>
      <point x="228" y="90" type="qcurve" smooth="yes"/>
      <point x="228" y="70"/>
      <point x="218" y="30"/>
      <point x="201" y="-10" type="qcurve" smooth="yes"/>
      <point x="144" y="-154" type="line"/>
      <point x="45" y="-154" type="line"/>
      <point x="89" y="5" type="line"/>
      <point x="64" y="15"/>
      <point x="35" y="60"/>
      <point x="35" y="90" type="qcurve" smooth="yes"/>
      <point x="35" y="133"/>
      <point x="90" y="186"/>
      <point x="132" y="186" type="qcurve" smooth="yes"/>
      <point x="174" y="186"/>
    </contour>
  </outline>
</glyph>
<glyph name="hyphen" format="2">
  <advance width="386"/>
  <unicode hex="002D"/>
  <outline>
    <contour>
      <point x="52" y="344" type="line"/>
      <point x="335" y="344" type="line"/>
      <point x="335" y="219" type="line"/>
      <point x="52" y="219" type="line"/>
    </contour>
  </outline>
</glyph>
<glyph name="period" format="2">
  <advance width="262"/>
  <unicode hex="002E"/>
  <outline>
    <contour>
      <point x="34" y="48"/>
      <point x="34" y="90" type="qcurve" smooth="yes"/>
      <point x="34" y="133"/>
      <point x="90" y="186"/>
      <point x="131" y="186" type="qcurve" smooth="yes"/>
      <point x="172" y="186"/>
      <point x="228" y="133"/>
      <point x="228" y="90" type="qcurve" smooth="yes"/>
      <point x="228" y="48"/>
      <point x="172" y="-8"/>
      <point x="131" y="-8" type="qcurve" smooth="yes"/>
      <point x="90" y="-8"/>
    </contour>
  </outline>
</glyph>
<glyph name="slash" format="2">
  <advance width="392"/>
  <unicode hex="002F"/>
  <outline>
    <contour>
      <point x="297" y="842" type="line"/>
      <point x="436" y="842" type="line"/>
      <point x="106" y="-100" type="line"/>
      <point x="-33" y="-100" type="line"/>
    </contour>
  </outline>
</glyph>
<glyph name="zero" format="2">
  <advance width="679"/>
  <unicode hex="0030"/>
  <outline>
    <contour>
      <point x="116" y="74"/>
      <point x="39" y="237"/>
      <point x="39" y="350" type="qcurve" smooth="yes"/>
      <point x="39" y="463"/>
      <point x="116" y="626"/>
      <point x="252" y="712"/>
      <point x="339" y="712" type="qcurve" smooth="yes"/>
      <point x="426" y="712"/>
      <point x="562" y="626"/>
      <point x="639" y="463"/>
      <point x="639" y="350" type="qcurve" smooth="yes"/>
      <point x="639" y="237"/>
      <point x="562" y="74"/>
      <point x="426" y="-12"/>
      <point x="339" y="-12" type="qcurve" smooth="yes"/>
      <point x="252" y="-12"/>
    </contour>
    <contour>
      <point x="476" y="235"/>
      <point x="476" y="350" type="qcurve" smooth="yes"/>
      <point x="476" y="465"/>
      <point x="403" y="575"/>
      <point x="339" y="575" type="qcurve" smooth="yes"/>
      <point x="276" y="575"/>
      <point x="203" y="465"/>
      <point x="203" y="350" type="qcurve" smooth="yes"/>
      <point x="203" y="235"/>
      <point x="276" y="125"/>
      <point x="339" y="125" type="qcurve" smooth="yes"/>
      <point x="403" y="125"/>
    </contour>
  </outline>
</glyph>
<glyph name="one" format="2">
  <advance width="392"/>
  <unicode hex="0031"/>
  <outline>
    <contour>
      <point x="309" y="700" type="line"/>
      <point x="309" y="0" type="line"/>
      <point x="147" y="0" type="line"/>
      <point x="147" y="570" type="line"/>
      <point x="7" y="570" type="line"/>
      <point x="7" y="700" type="line"/>
    </contour>
  </outline>
</glyph>
<glyph name="two" format="2">
  <advance width="590"/>
  <unicode hex="0032"/>
  <outline>
    <contour>
      <point x="562" y="132" type="line"/>
      <point x="562" y="0" type="line"/>
      <point x="33" y="0" type="line"/>
      <point x="33" y="105" type="line"/>
      <point x="303" y="360" type="line" smooth="yes"/>
      <point x="346" y="401"/>
      <point x="376" y="460"/>
      <point x="376" y="489" type="qcurve" smooth="yes"/>
      <point x="376" y="531"/>
      <point x="319" y="576"/>
      <point x="264" y="576" type="qcurve" smooth="yes"/>
      <point x="218" y="576"/>
      <point x="144" y="541"/>
      <point x="119" y="506" type="qcurve"/>
      <point x="1" y="582" type="line"/>
      <point x="42" y="643"/>
      <point x="186" y="712"/>
      <point x="279" y="712" type="qcurve" smooth="yes"/>
      <point x="357" y="712"/>
      <point x="474" y="661"/>
      <point x="539" y="568"/>
      <point x="539" y="505" type="qcurve" smooth="yes"/>
      <point x="539" y="448"/>
      <point x="491" y="348"/>
      <point x="422" y="284" type="qcurve" smooth="yes"/>
      <point x="261" y="132" type="line"/>
    </contour>
  </outline>
</glyph>
<glyph name="three" format="2">
  <advance width="592"/>
  <unicode hex="0033"/>
  <outline>
    <contour>
      <point x="556" y="293"/>
      <point x="556" y="214" type="qcurve" smooth="yes"/>
      <point x="556" y="153"/>
      <point x="492" y="50"/>
      <point x="361" y="-12"/>
      <point x="266" y="-12" type="qcurve" smooth="yes"/>
      <point x="192" y="-12"/>
      <point x="49" y="27"/>
      <point x="-1" y="63" type="qcurve"/>
      <point x="62" y="187" type="line"/>
      <point x="102" y="157"/>
      <point x="207" y="124"/>
      <point x="262" y="124" type="qcurve" smooth="yes"/>
      <point x="323" y="124"/>
      <point x="393" y="171"/>
      <point x="393" y="214" type="qcurve" smooth="yes"/>
      <point x="393" y="300"/>
      <point x="262" y="300" type="qcurve" smooth="yes"/>
      <point x="188" y="300" type="line"/>
      <point x="188" y="407" type="line"/>
      <point x="332" y="570" type="line"/>
      <point x="34" y="570" type="line"/>
      <point x="34" y="700" type="line"/>
      <point x="524" y="700" type="line"/>
      <point x="524" y="595" type="line"/>
      <point x="366" y="415" type="line"/>
      <point x="458" y="400"/>
    </contour>
  </outline>
</glyph>
<glyph name="four" format="2">
  <advance width="689"/>
  <unicode hex="0034"/>
  <outline>
    <contour>
      <point x="680" y="147" type="line"/>
      <point x="566" y="147" type="line"/>
      <point x="566" y="0" type="line"/>
      <point x="408" y="0" type="line"/>
      <point x="408" y="147" type="line"/>
      <point x="31" y="147" type="line"/>
      <point x="31" y="256" type="line"/>
      <point x="361" y="700" type="line"/>
      <point x="531" y="700" type="line"/>
      <point x="225" y="279" type="line"/>
      <point x="413" y="279" type="line"/>
      <point x="413" y="410" type="line"/>
      <point x="566" y="410" type="line"/>
      <point x="566" y="279" type="line"/>
      <point x="680" y="279" type="line"/>
    </contour>
  </outline>
</glyph>
<glyph name="five" format="2">
  <advance width="595"/>
  <unicode hex="0035"/>
  <outline>
    <contour>
      <point x="568" y="319"/>
      <point x="568" y="220" type="qcurve" smooth="yes"/>
      <point x="568" y="156"/>
      <point x="504" y="51"/>
      <point x="373" y="-12"/>
      <point x="277" y="-12" type="qcurve" smooth="yes"/>
      <point x="203" y="-12"/>
      <point x="60" y="27"/>
      <point x="10" y="63" type="qcurve"/>
      <point x="74" y="187" type="line"/>
      <point x="114" y="157"/>
      <point x="218" y="124"/>
      <point x="273" y="124" type="qcurve" smooth="yes"/>
      <point x="334" y="124"/>
      <point x="404" y="172"/>
      <point x="404" y="215" type="qcurve" smooth="yes"/>
      <point x="404" y="260"/>
      <point x="331" y="306"/>
      <point x="241" y="306" type="qcurve" smooth="yes"/>
      <point x="62" y="306" type="line"/>
      <point x="98" y="700" type="line"/>
      <point x="525" y="700" type="line"/>
      <point x="525" y="570" type="line"/>
      <point x="233" y="570" type="line"/>
      <point x="222" y="437" type="line"/>
      <point x="279" y="437" type="line" smooth="yes"/>
      <point x="427" y="437"/>
    </contour>
  </outline>
</glyph>
<glyph name="six" format="2">
  <advance width="637"/>
  <unicode hex="0036"/>
  <outline>
    <contour>
      <point x="553" y="385"/>
      <point x="617" y="286"/>
      <point x="617" y="221" type="qcurve" smooth="yes"/>
      <point x="617" y="151"/>
      <point x="547" y="45"/>
      <point x="426" y="-12"/>
      <point x="352" y="-12" type="qcurve" smooth="yes"/>
      <point x="205" y="-12"/>
      <point x="39" y="168"/>
      <point x="39" y="335" type="qcurve" smooth="yes"/>
      <point x="39" y="454"/>
      <point x="129" y="624"/>
      <point x="290" y="712"/>
      <point x="396" y="712" type="qcurve" smooth="yes"/>
      <point x="452" y="712"/>
      <point x="555" y="687"/>
      <point x="591" y="664" type="qcurve"/>
      <point x="531" y="545" type="line"/>
      <point x="479" y="580"/>
      <point x="400" y="580" type="qcurve" smooth="yes"/>
      <point x="311" y="580"/>
      <point x="207" y="476"/>
      <point x="203" y="377" type="qcurve"/>
      <point x="265" y="439"/>
      <point x="376" y="439" type="qcurve" smooth="yes"/>
      <point x="443" y="439"/>
    </contour>
    <contour>
      <point x="460" y="165"/>
      <point x="460" y="213" type="qcurve" smooth="yes"/>
      <point x="460" y="261"/>
      <point x="395" y="318"/>
      <point x="341" y="318" type="qcurve" smooth="yes"/>
      <point x="288" y="318"/>
      <point x="220" y="259"/>
      <point x="220" y="213" type="qcurve" smooth="yes"/>
      <point x="220" y="167"/>
      <point x="286" y="109"/>
      <point x="343" y="109" type="qcurve" smooth="yes"/>
      <point x="395" y="109"/>
    </contour>
  </outline>
</glyph>
<glyph name="seven" format="2">
  <advance width="620"/>
  <unicode hex="0037"/>
  <outline>
    <contour>
      <point x="587" y="700" type="line"/>
      <point x="587" y="595" type="line"/>
      <point x="327" y="0" type="line"/>
      <point x="151" y="0" type="line"/>
      <point x="402" y="568" type="line"/>
      <point x="170" y="568" type="line"/>
      <point x="170" y="454" type="line"/>
      <point x="26" y="454" type="line"/>
      <point x="26" y="700" type="line"/>
    </contour>
  </outline>
</glyph>
<glyph name="eight" format="2">
  <advance width="660"/>
  <unicode hex="0038"/>
  <outline>
    <contour>
      <point x="625" y="258"/>
      <point x="625" y="203" type="qcurve" smooth="yes"/>
      <point x="625" y="138"/>
      <point x="551" y="41"/>
      <point x="417" y="-12"/>
      <point x="329" y="-12" type="qcurve" smooth="yes"/>
      <point x="241" y="-12"/>
      <point x="108" y="41"/>
      <point x="35" y="138"/>
      <point x="35" y="203" type="qcurve" smooth="yes"/>
      <point x="35" y="258"/>
      <point x="90" y="342"/>
      <point x="141" y="368" type="qcurve"/>
      <point x="102" y="392"/>
      <point x="60" y="465"/>
      <point x="60" y="512" type="qcurve" smooth="yes"/>
      <point x="60" y="573"/>
      <point x="128" y="663"/>
      <point x="250" y="712"/>
      <point x="329" y="712" type="qcurve" smooth="yes"/>
      <point x="409" y="712"/>
      <point x="532" y="663"/>
      <point x="600" y="573"/>
      <point x="600" y="512" type="qcurve" smooth="yes"/>
      <point x="600" y="465"/>
      <point x="558" y="392"/>
      <point x="518" y="368" type="qcurve"/>
      <point x="570" y="342"/>
    </contour>
    <contour>
      <point x="221" y="546"/>
      <point x="221" y="505" type="qcurve" smooth="yes"/>
      <point x="221" y="465"/>
      <point x="279" y="419"/>
      <point x="329" y="419" type="qcurve" smooth="yes"/>
      <point x="379" y="419"/>
      <point x="439" y="465"/>
      <point x="439" y="505" type="qcurve" smooth="yes"/>
      <point x="439" y="546"/>
      <point x="379" y="593"/>
      <point x="329" y="593" type="qcurve" smooth="yes"/>
      <point x="280" y="593"/>
    </contour>
    <contour>
      <point x="461" y="162"/>
      <point x="461" y="208" type="qcurve" smooth="yes"/>
      <point x="461" y="254"/>
      <point x="390" y="308"/>
      <point x="329" y="308" type="qcurve" smooth="yes"/>
      <point x="269" y="308"/>
      <point x="199" y="254"/>
      <point x="199" y="208" type="qcurve" smooth="yes"/>
      <point x="199" y="161"/>
      <point x="269" y="107"/>
      <point x="329" y="107" type="qcurve" smooth="yes"/>
      <point x="390" y="107"/>
    </contour>
  </outline>
</glyph>
<glyph name="nine" format="2">
  <advance width="637"/>
  <unicode hex="0039"/>
  <outline>
    <contour>
      <point x="598" y="533"/>
      <point x="598" y="365" type="qcurve" smooth="yes"/>
      <point x="598" y="246"/>
      <point x="509" y="76"/>
      <point x="347" y="-12"/>
      <point x="241" y="-12" type="qcurve" smooth="yes"/>
      <point x="185" y="-12"/>
      <point x="83" y="13"/>
      <point x="47" y="36" type="qcurve"/>
      <point x="107" y="155" type="line"/>
      <point x="158" y="120"/>
      <point x="238" y="120" type="qcurve" smooth="yes"/>
      <point x="327" y="120"/>
      <point x="431" y="225"/>
      <point x="435" y="324" type="qcurve"/>
      <point x="372" y="261"/>
      <point x="261" y="261" type="qcurve" smooth="yes"/>
      <point x="194" y="261"/>
      <point x="84" y="315"/>
      <point x="20" y="414"/>
      <point x="20" y="479" type="qcurve" smooth="yes"/>
      <point x="20" y="549"/>
      <point x="90" y="655"/>
      <point x="211" y="712"/>
      <point x="285" y="712" type="qcurve" smooth="yes"/>
      <point x="432" y="712"/>
    </contour>
    <contour>
      <point x="417" y="441"/>
      <point x="417" y="487" type="qcurve" smooth="yes"/>
      <point x="417" y="533"/>
      <point x="352" y="591"/>
      <point x="295" y="591" type="qcurve" smooth="yes"/>
      <point x="243" y="591"/>
      <point x="178" y="535"/>
      <point x="178" y="487" type="qcurve" smooth="yes"/>
      <point x="178" y="439"/>
      <point x="243" y="382"/>
      <point x="297" y="382" type="qcurve" smooth="yes"/>
      <point x="350" y="382"/>
    </contour>
  </outline>
</glyph>
<glyph name="less" format="2">
  <advance width="599"/>
  <unicode hex="003C"/>
  <outline>
    <contour>
      <point x="538" y="472" type="line"/>
      <point x="205" y="350" type="line"/>
      <point x="538" y="229" type="line"/>
      <point x="538" y="104" type="line"/>
      <point x="62" y="285" type="line"/>
      <point x="62" y="415" type="line"/>
      <point x="538" y="596" type="line"/>
    </contour>
  </outline>
</glyph>
<glyph name="equal" format="2">
  <advance width="599"/>
  <unicode hex="003D"/>
  <outline>
    <contour>
      <point x="62" y="535" type="line"/>
      <point x="538" y="535" type="line"/>
      <point x="538" y="413" type="line"/>
      <point x="62" y="413" type="line"/>
    </contour>
    <contour>
      <point x="62" y="287" type="line"/>
      <point x="538" y="287" type="line"/>
      <point x="538" y="165" type="line"/>
      <point x="62" y="165" type="line"/>
    </contour>
  </outline>
</glyph>
<glyph name="greater" format="2">
  <advance width="599"/>
  <unicode hex="003E"/>
  <outline>
    <contour>
      <point x="538" y="415" type="line"/>
      <point x="538" y="285" type="line"/>
      <point x="62" y="104" type="line"/>
      <point x="62" y="229" type="line"/>
      <point x="395" y="350" type="line"/>
      <point x="62" y="472" type="line"/>
      <point x="62" y="596" type="line"/>
    </contour>
  </outline>
</glyph>
<glyph name="question" format="2">
  <advance width="589"/>
  <unicode hex="003F"/>
  <outline>
    <contour>
      <point x="264" y="363"/>
      <point x="309" y="404" type="qcurve" smooth="yes"/>
      <point x="342" y="434"/>
      <point x="373" y="475"/>
      <point x="373" y="501" type="qcurve" smooth="yes"/>
      <point x="373" y="538"/>
      <point x="314" y="581"/>
      <point x="265" y="581" type="qcurve" smooth="yes"/>
      <point x="218" y="581"/>
      <point x="145" y="542"/>
      <point x="120" y="507" type="qcurve"/>
      <point x="-1" y="578" type="line"/>
      <point x="41" y="642"/>
      <point x="184" y="712"/>
      <point x="282" y="712" type="qcurve" smooth="yes"/>
      <point x="397" y="712"/>
      <point x="536" y="614"/>
      <point x="536" y="527" type="qcurve" smooth="yes"/>
      <point x="536" y="486"/>
      <point x="509" y="424"/>
      <point x="470" y="381"/>
      <point x="439" y="353" type="qcurve" smooth="yes"/>
      <point x="402" y="320"/>
      <point x="368" y="275"/>
      <point x="368" y="243" type="qcurve"/>
      <point x="217" y="243" type="line"/>
      <point x="217" y="295"/>
    </contour>
    <contour>
      <point x="197" y="45"/>
      <point x="197" y="83" type="qcurve" smooth="yes"/>
      <point x="197" y="121"/>
      <point x="251" y="172"/>
      <point x="293" y="172" type="qcurve" smooth="yes"/>
      <point x="335" y="172"/>
      <point x="389" y="121"/>
      <point x="389" y="83" type="qcurve" smooth="yes"/>
      <point x="389" y="45"/>
      <point x="334" y="-8"/>
      <point x="293" y="-8" type="qcurve" smooth="yes"/>
      <point x="252" y="-8"/>
    </contour>
  </outline>
</glyph>
<glyph name="at" format="2">
  <advance width="1035"/>
  <unicode hex="0040"/>
  <outline>
    <contour>
      <point x="876" y="597"/>
      <point x="996" y="399"/>
      <point x="996" y="274" type="qcurve" smooth="yes"/>
      <point x="996" y="186"/>
      <point x="945" y="59"/>
      <point x="853" y="-7"/>
      <point x="791" y="-7" type="qcurve" smooth="yes"/>
      <point x="740" y="-7"/>
      <point x="670" y="37"/>
      <point x="654" y="80" type="qcurve"/>
      <point x="600" y="-7"/>
      <point x="483" y="-7" type="qcurve" smooth="yes"/>
      <point x="419" y="-7"/>
      <point x="313" y="57"/>
      <point x="252" y="172"/>
      <point x="252" y="246" type="qcurve" smooth="yes"/>
      <point x="252" y="319"/>
      <point x="313" y="434"/>
      <point x="418" y="498"/>
      <point x="483" y="498" type="qcurve" smooth="yes"/>
      <point x="582" y="498"/>
      <point x="637" y="432" type="qcurve"/>
      <point x="637" y="491" type="line"/>
      <point x="773" y="491" type="line"/>
      <point x="773" y="167" type="line" smooth="yes"/>
      <point x="773" y="103"/>
      <point x="821" y="103" type="qcurve" smooth="yes"/>
      <point x="856" y="103"/>
      <point x="895" y="187"/>
      <point x="895" y="272" type="qcurve" smooth="yes"/>
      <point x="895" y="373"/>
      <point x="802" y="528"/>
      <point x="633" y="615"/>
      <point x="523" y="615" type="qcurve" smooth="yes"/>
      <point x="413" y="615"/>
      <point x="244" y="522"/>
      <point x="151" y="358"/>
      <point x="151" y="254" type="qcurve" smooth="yes"/>
      <point x="151" y="148"/>
      <point x="243" y="-17"/>
      <point x="410" y="-110"/>
      <point x="519" y="-110" type="qcurve" smooth="yes"/>
      <point x="627" y="-110"/>
      <point x="716" y="-66" type="qcurve"/>
      <point x="748" y="-158" type="line"/>
      <point x="703" y="-181"/>
      <point x="580" y="-206"/>
      <point x="519" y="-206" type="qcurve" smooth="yes"/>
      <point x="377" y="-206"/>
      <point x="159" y="-87"/>
      <point x="39" y="123"/>
      <point x="39" y="254" type="qcurve" smooth="yes"/>
      <point x="39" y="384"/>
      <point x="160" y="592"/>
      <point x="380" y="710"/>
      <point x="523" y="710" type="qcurve" smooth="yes"/>
      <point x="661" y="710"/>
    </contour>
    <contour>
      <point x="639" y="181"/>
      <point x="639" y="246" type="qcurve" smooth="yes"/>
      <point x="639" y="310"/>
      <point x="569" y="382"/>
      <point x="514" y="382" type="qcurve" smooth="yes"/>
      <point x="458" y="382"/>
      <point x="390" y="309"/>
      <point x="390" y="246" type="qcurve" smooth="yes"/>
      <point x="390" y="182"/>
      <point x="458" y="108"/>
      <point x="514" y="108" type="qcurve" smooth="yes"/>
      <point x="569" y="108"/>
    </contour>
  </outline>
</glyph>
<glyph name="A" format="2">
  <advance width="766"/>
  <unicode hex="0041"/>
  <anchor x="0" y="0" name="Anchor-17"/>
  <anchor x="0" y="0" name="Anchor-16"/>
  <anchor x="0" y="0" name="Anchor-15"/>
  <anchor x="383" y="700" name="Anchor-14"/>
  <anchor x="776" y="0" name="Anchor-13"/>
  <anchor x="383" y="0" name="Anchor-12"/>
  <outline>
    <contour>
      <point x="544" y="150" type="line"/>
      <point x="219" y="150" type="line"/>
      <point x="157" y="0" type="line"/>
      <point x="-9" y="0" type="line"/>
      <point x="303" y="700" type="line"/>
      <point x="463" y="700" type="line"/>
      <point x="776" y="0" type="line"/>
      <point x="606" y="0" type="line"/>
    </contour>
    <contour>
      <point x="493" y="273" type="line"/>
      <point x="382" y="541" type="line"/>
      <point x="271" y="273" type="line"/>
    </contour>
  </outline>
</glyph>
<glyph name="B" format="2">
  <advance width="765"/>
  <unicode hex="0042"/>
  <anchor x="0" y="0" name="Anchor-17"/>
  <anchor x="0" y="0" name="Anchor-16"/>
  <anchor x="0" y="0" name="Anchor-15"/>
  <anchor x="380" y="700" name="Anchor-14"/>
  <anchor x="0" y="0" name="Anchor-13"/>
  <anchor x="380" y="0" name="Anchor-12"/>
  <outline>
    <contour>
      <point x="725" y="256"/>
      <point x="725" y="191" type="qcurve" smooth="yes"/>
      <point x="725" y="99"/>
      <point x="582" y="0"/>
      <point x="445" y="0" type="qcurve" smooth="yes"/>
      <point x="83" y="0" type="line"/>
      <point x="83" y="700" type="line"/>
      <point x="425" y="700" type="line" smooth="yes"/>
      <point x="553" y="700"/>
      <point x="690" y="602"/>
      <point x="690" y="518" type="qcurve" smooth="yes"/>
      <point x="690" y="467"/>
      <point x="641" y="387"/>
      <point x="597" y="364" type="qcurve"/>
      <point x="657" y="345"/>
    </contour>
    <contour>
      <point x="244" y="578" type="line"/>
      <point x="244" y="413" type="line"/>
      <point x="405" y="413" type="line" smooth="yes"/>
      <point x="465" y="413"/>
      <point x="527" y="455"/>
      <point x="527" y="496" type="qcurve" smooth="yes"/>
      <point x="527" y="537"/>
      <point x="465" y="578"/>
      <point x="405" y="578" type="qcurve" smooth="yes"/>
    </contour>
    <contour>
      <point x="562" y="164"/>
      <point x="562" y="208" type="qcurve" smooth="yes"/>
      <point x="562" y="295"/>
      <point x="433" y="295" type="qcurve" smooth="yes"/>
      <point x="244" y="295" type="line"/>
      <point x="244" y="122" type="line"/>
      <point x="433" y="122" type="line" smooth="yes"/>
      <point x="497" y="122"/>
    </contour>
  </outline>
</glyph>
<glyph name="C" format="2">
  <advance width="733"/>
  <unicode hex="0043"/>
  <anchor x="0" y="0" name="Anchor-17"/>
  <anchor x="0" y="0" name="Anchor-16"/>
  <anchor x="0" y="0" name="Anchor-15"/>
  <anchor x="414" y="700" name="Anchor-14"/>
  <anchor x="0" y="0" name="Anchor-13"/>
  <anchor x="397" y="0" name="Anchor-12"/>
  <outline>
    <contour>
      <point x="138" y="81"/>
      <point x="39" y="246"/>
      <point x="39" y="350" type="qcurve" smooth="yes"/>
      <point x="39" y="454"/>
      <point x="138" y="619"/>
      <point x="311" y="712"/>
      <point x="419" y="712" type="qcurve" smooth="yes"/>
      <point x="510" y="712"/>
      <point x="657" y="648"/>
      <point x="707" y="588" type="qcurve"/>
      <point x="603" y="492" type="line"/>
      <point x="532" y="574"/>
      <point x="427" y="574" type="qcurve" smooth="yes"/>
      <point x="362" y="574"/>
      <point x="260" y="517"/>
      <point x="203" y="415"/>
      <point x="203" y="350" type="qcurve" smooth="yes"/>
      <point x="203" y="285"/>
      <point x="260" y="183"/>
      <point x="362" y="126"/>
      <point x="427" y="126" type="qcurve" smooth="yes"/>
      <point x="532" y="126"/>
      <point x="603" y="209" type="qcurve"/>
      <point x="707" y="113" type="line"/>
      <point x="657" y="52"/>
      <point x="509" y="-12"/>
      <point x="418" y="-12" type="qcurve" smooth="yes"/>
      <point x="311" y="-12"/>
    </contour>
  </outline>
</glyph>
<glyph name="D" format="2">
  <advance width="826"/>
  <unicode hex="0044"/>
  <anchor x="0" y="0" name="Anchor-17"/>
  <anchor x="0" y="0" name="Anchor-16"/>
  <anchor x="204" y="356" name="Anchor-15"/>
  <anchor x="370" y="699" name="Anchor-14"/>
  <anchor x="0" y="0" name="Anchor-13"/>
  <anchor x="373" y="0" name="Anchor-12"/>
  <outline>
    <contour>
      <point x="83" y="700" type="line"/>
      <point x="401" y="700" type="line" smooth="yes"/>
      <point x="515" y="700"/>
      <point x="690" y="613"/>
      <point x="787" y="455"/>
      <point x="787" y="350" type="qcurve" smooth="yes"/>
      <point x="787" y="245"/>
      <point x="690" y="87"/>
      <point x="515" y="0"/>
      <point x="401" y="0" type="qcurve" smooth="yes"/>
      <point x="83" y="0" type="line"/>
    </contour>
    <contour>
      <point x="393" y="133" type="line" smooth="yes"/>
      <point x="498" y="133"/>
      <point x="623" y="250"/>
      <point x="623" y="350" type="qcurve" smooth="yes"/>
      <point x="623" y="450"/>
      <point x="498" y="567"/>
      <point x="393" y="567" type="qcurve" smooth="yes"/>
      <point x="245" y="567" type="line"/>
      <point x="245" y="133" type="line"/>
    </contour>
  </outline>
</glyph>
<glyph name="E" format="2">
  <advance width="671"/>
  <unicode hex="0045"/>
  <anchor x="0" y="0" name="Anchor-17"/>
  <anchor x="0" y="0" name="Anchor-16"/>
  <anchor x="0" y="0" name="Anchor-15"/>
  <anchor x="348" y="700" name="Anchor-14"/>
  <anchor x="625" y="0" name="Anchor-13"/>
  <anchor x="353" y="0" name="Anchor-12"/>
  <outline>
    <contour>
      <point x="625" y="130" type="line"/>
      <point x="625" y="0" type="line"/>
      <point x="83" y="0" type="line"/>
      <point x="83" y="700" type="line"/>
      <point x="612" y="700" type="line"/>
      <point x="612" y="570" type="line"/>
      <point x="244" y="570" type="line"/>
      <point x="244" y="418" type="line"/>
      <point x="569" y="418" type="line"/>
      <point x="569" y="292" type="line"/>
      <point x="244" y="292" type="line"/>
      <point x="244" y="130" type="line"/>
    </contour>
  </outline>
</glyph>
<glyph name="F" format="2">
  <advance width="639"/>
  <unicode hex="0046"/>
  <outline>
    <contour>
      <point x="245" y="570" type="line"/>
      <point x="245" y="385" type="line"/>
      <point x="569" y="385" type="line"/>
      <point x="569" y="255" type="line"/>
      <point x="245" y="255" type="line"/>
      <point x="245" y="0" type="line"/>
      <point x="83" y="0" type="line"/>
      <point x="83" y="700" type="line"/>
      <point x="612" y="700" type="line"/>
      <point x="612" y="570" type="line"/>
    </contour>
  </outline>
</glyph>
<glyph name="G" format="2">
  <advance width="771"/>
  <unicode hex="0047"/>
  <anchor x="0" y="0" name="Anchor-17"/>
  <anchor x="0" y="0" name="Anchor-16"/>
  <anchor x="0" y="0" name="Anchor-15"/>
  <anchor x="417" y="700" name="Anchor-14"/>
  <anchor x="0" y="0" name="Anchor-13"/>
  <anchor x="407" y="0" name="Anchor-12"/>
  <outline>
    <contour>
      <point x="556" y="361" type="line"/>
      <point x="704" y="361" type="line"/>
      <point x="704" y="77" type="line"/>
      <point x="647" y="34"/>
      <point x="497" y="-12"/>
      <point x="421" y="-12" type="qcurve" smooth="yes"/>
      <point x="312" y="-12"/>
      <point x="138" y="81"/>
      <point x="39" y="246"/>
      <point x="39" y="350" type="qcurve" smooth="yes"/>
      <point x="39" y="454"/>
      <point x="138" y="619"/>
      <point x="314" y="712"/>
      <point x="424" y="712" type="qcurve" smooth="yes"/>
      <point x="516" y="712"/>
      <point x="666" y="650"/>
      <point x="717" y="591" type="qcurve"/>
      <point x="613" y="495" type="line"/>
      <point x="538" y="574"/>
      <point x="432" y="574" type="qcurve" smooth="yes"/>
      <point x="365" y="574"/>
      <point x="261" y="518"/>
      <point x="203" y="416"/>
      <point x="203" y="350" type="qcurve" smooth="yes"/>
      <point x="203" y="285"/>
      <point x="261" y="183"/>
      <point x="364" y="126"/>
      <point x="430" y="126" type="qcurve" smooth="yes"/>
      <point x="500" y="126"/>
      <point x="556" y="156" type="qcurve"/>
    </contour>
  </outline>
</glyph>
<glyph name="H" format="2">
  <advance width="808"/>
  <unicode hex="0048"/>
  <anchor x="0" y="0" name="Anchor-17"/>
  <anchor x="0" y="0" name="Anchor-16"/>
  <anchor x="404" y="564" name="Anchor-15"/>
  <anchor x="404" y="700" name="Anchor-14"/>
  <anchor x="0" y="0" name="Anchor-13"/>
  <anchor x="404" y="0" name="Anchor-12"/>
  <outline>
    <contour>
      <point x="725" y="700" type="line"/>
      <point x="725" y="0" type="line"/>
      <point x="563" y="0" type="line"/>
      <point x="563" y="287" type="line"/>
      <point x="245" y="287" type="line"/>
      <point x="245" y="0" type="line"/>
      <point x="83" y="0" type="line"/>
      <point x="83" y="700" type="line"/>
      <point x="245" y="700" type="line"/>
      <point x="245" y="424" type="line"/>
      <point x="563" y="424" type="line"/>
      <point x="563" y="700" type="line"/>
    </contour>
  </outline>
</glyph>
<glyph name="I" format="2">
  <advance width="328"/>
  <unicode hex="0049"/>
  <anchor x="0" y="0" name="Anchor-17"/>
  <anchor x="0" y="0" name="Anchor-16"/>
  <anchor x="0" y="0" name="Anchor-15"/>
  <anchor x="164" y="700" name="Anchor-14"/>
  <anchor x="245" y="0" name="Anchor-13"/>
  <anchor x="164" y="0" name="Anchor-12"/>
  <outline>
    <contour>
      <point x="83" y="700" type="line"/>
      <point x="245" y="700" type="line"/>
      <point x="245" y="0" type="line"/>
      <point x="83" y="0" type="line"/>
    </contour>
  </outline>
</glyph>
<glyph name="J" format="2">
  <advance width="541"/>
  <unicode hex="004A"/>
  <anchor x="0" y="0" name="Anchor-17"/>
  <anchor x="0" y="0" name="Anchor-16"/>
  <anchor x="0" y="0" name="Anchor-15"/>
  <anchor x="261" y="700" name="Anchor-14"/>
  <anchor x="0" y="0" name="Anchor-13"/>
  <anchor x="0" y="0" name="Anchor-12"/>
  <outline>
    <contour>
      <point x="22" y="41"/>
      <point x="-16" y="90" type="qcurve"/>
      <point x="74" y="198" type="line"/>
      <point x="131" y="121"/>
      <point x="204" y="121" type="qcurve" smooth="yes"/>
      <point x="303" y="121"/>
      <point x="303" y="237" type="qcurve" smooth="yes"/>
      <point x="303" y="570" type="line"/>
      <point x="57" y="570" type="line"/>
      <point x="57" y="700" type="line"/>
      <point x="464" y="700" type="line"/>
      <point x="464" y="246" type="line" smooth="yes"/>
      <point x="464" y="117"/>
      <point x="336" y="-12"/>
      <point x="212" y="-12" type="qcurve" smooth="yes"/>
      <point x="141" y="-12"/>
    </contour>
  </outline>
</glyph>
<glyph name="K" format="2">
  <advance width="740"/>
  <unicode hex="004B"/>
  <anchor x="0" y="0" name="Anchor-17"/>
  <anchor x="0" y="0" name="Anchor-16"/>
  <anchor x="0" y="0" name="Anchor-15"/>
  <anchor x="379" y="700" name="Anchor-14"/>
  <anchor x="0" y="0" name="Anchor-13"/>
  <anchor x="379" y="0" name="Anchor-12"/>
  <outline>
    <contour>
      <point x="338" y="275" type="line"/>
      <point x="244" y="177" type="line"/>
      <point x="244" y="0" type="line"/>
      <point x="83" y="0" type="line"/>
      <point x="83" y="700" type="line"/>
      <point x="244" y="700" type="line"/>
      <point x="244" y="373" type="line"/>
      <point x="554" y="700" type="line"/>
      <point x="734" y="700" type="line"/>
      <point x="444" y="388" type="line"/>
      <point x="751" y="0" type="line"/>
      <point x="562" y="0" type="line"/>
    </contour>
  </outline>
</glyph>
<glyph name="L" format="2">
  <advance width="604"/>
  <unicode hex="004C"/>
  <anchor x="0" y="0" name="Anchor-17"/>
  <anchor x="431" y="700" name="Anchor-16"/>
  <anchor x="164" y="387" name="Anchor-15"/>
  <anchor x="164" y="700" name="Anchor-14"/>
  <anchor x="0" y="0" name="Anchor-13"/>
  <anchor x="351" y="0" name="Anchor-12"/>
  <outline>
    <contour>
      <point x="83" y="700" type="line"/>
      <point x="245" y="700" type="line"/>
      <point x="245" y="132" type="line"/>
      <point x="596" y="132" type="line"/>
      <point x="596" y="0" type="line"/>
      <point x="83" y="0" type="line"/>
    </contour>
  </outline>
</glyph>
<glyph name="M" format="2">
  <advance width="955"/>
  <unicode hex="004D"/>
  <anchor x="0" y="0" name="Anchor-17"/>
  <anchor x="0" y="0" name="Anchor-16"/>
  <anchor x="0" y="0" name="Anchor-15"/>
  <anchor x="477" y="700" name="Anchor-14"/>
  <anchor x="0" y="0" name="Anchor-13"/>
  <anchor x="477" y="0" name="Anchor-12"/>
  <outline>
    <contour>
      <point x="720" y="0" type="line"/>
      <point x="719" y="420" type="line"/>
      <point x="513" y="74" type="line"/>
      <point x="440" y="74" type="line"/>
      <point x="235" y="411" type="line"/>
      <point x="235" y="0" type="line"/>
      <point x="83" y="0" type="line"/>
      <point x="83" y="700" type="line"/>
      <point x="217" y="700" type="line"/>
      <point x="479" y="265" type="line"/>
      <point x="737" y="700" type="line"/>
      <point x="870" y="700" type="line"/>
      <point x="872" y="0" type="line"/>
    </contour>
  </outline>
</glyph>
<glyph name="N" format="2">
  <advance width="808"/>
  <unicode hex="004E"/>
  <anchor x="0" y="0" name="Anchor-17"/>
  <anchor x="0" y="0" name="Anchor-16"/>
  <anchor x="0" y="0" name="Anchor-15"/>
  <anchor x="404" y="700" name="Anchor-14"/>
  <anchor x="0" y="0" name="Anchor-13"/>
  <anchor x="404" y="0" name="Anchor-12"/>
  <outline>
    <contour>
      <point x="725" y="700" type="line"/>
      <point x="725" y="0" type="line"/>
      <point x="592" y="0" type="line"/>
      <point x="243" y="425" type="line"/>
      <point x="243" y="0" type="line"/>
      <point x="83" y="0" type="line"/>
      <point x="83" y="700" type="line"/>
      <point x="217" y="700" type="line"/>
      <point x="565" y="275" type="line"/>
      <point x="565" y="700" type="line"/>
    </contour>
  </outline>
</glyph>
<glyph name="O" format="2">
  <advance width="844"/>
  <unicode hex="004F"/>
  <anchor x="0" y="0" name="Anchor-17"/>
  <anchor x="616" y="700" name="Anchor-16"/>
  <anchor x="422" y="350" name="Anchor-15"/>
  <anchor x="422" y="700" name="Anchor-14"/>
  <anchor x="520" y="0" name="Anchor-13"/>
  <anchor x="422" y="0" name="Anchor-12"/>
  <outline>
    <contour>
      <point x="138" y="82"/>
      <point x="39" y="247"/>
      <point x="39" y="350" type="qcurve" smooth="yes"/>
      <point x="39" y="453"/>
      <point x="138" y="618"/>
      <point x="313" y="712"/>
      <point x="422" y="712" type="qcurve" smooth="yes"/>
      <point x="531" y="712"/>
      <point x="705" y="618"/>
      <point x="805" y="453"/>
      <point x="805" y="350" type="qcurve" smooth="yes"/>
      <point x="805" y="247"/>
      <point x="705" y="82"/>
      <point x="531" y="-12"/>
      <point x="422" y="-12" type="qcurve" smooth="yes"/>
      <point x="313" y="-12"/>
    </contour>
    <contour>
      <point x="584" y="183"/>
      <point x="641" y="285"/>
      <point x="641" y="350" type="qcurve" smooth="yes"/>
      <point x="641" y="415"/>
      <point x="584" y="517"/>
      <point x="484" y="574"/>
      <point x="422" y="574" type="qcurve" smooth="yes"/>
      <point x="360" y="574"/>
      <point x="260" y="517"/>
      <point x="203" y="415"/>
      <point x="203" y="350" type="qcurve" smooth="yes"/>
      <point x="203" y="285"/>
      <point x="260" y="183"/>
      <point x="360" y="126"/>
      <point x="422" y="126" type="qcurve" smooth="yes"/>
      <point x="484" y="126"/>
    </contour>
  </outline>
</glyph>
<glyph name="P" format="2">
  <advance width="732"/>
  <unicode hex="0050"/>
  <outline>
    <contour>
      <point x="616" y="638"/>
      <point x="690" y="524"/>
      <point x="690" y="446" type="qcurve" smooth="yes"/>
      <point x="690" y="369"/>
      <point x="616" y="254"/>
      <point x="479" y="193"/>
      <point x="386" y="193" type="qcurve" smooth="yes"/>
      <point x="245" y="193" type="line"/>
      <point x="245" y="0" type="line"/>
      <point x="83" y="0" type="line"/>
      <point x="83" y="700" type="line"/>
      <point x="386" y="700" type="line" smooth="yes"/>
      <point x="479" y="700"/>
    </contour>
    <contour>
      <point x="526" y="388"/>
      <point x="526" y="446" type="qcurve" smooth="yes"/>
      <point x="526" y="505"/>
      <point x="450" y="568"/>
      <point x="377" y="568" type="qcurve" smooth="yes"/>
      <point x="245" y="568" type="line"/>
      <point x="245" y="325" type="line"/>
      <point x="377" y="325" type="line" smooth="yes"/>
      <point x="450" y="325"/>
    </contour>
  </outline>
</glyph>
<glyph name="Q" format="2">
  <advance width="844"/>
  <unicode hex="0051"/>
  <anchor x="0" y="0" name="Anchor-17"/>
  <anchor x="0" y="0" name="Anchor-16"/>
  <anchor x="0" y="0" name="Anchor-15"/>
  <anchor x="423" y="700" name="Anchor-14"/>
  <anchor x="0" y="0" name="Anchor-13"/>
  <anchor x="0" y="0" name="Anchor-12"/>
  <outline>
    <contour>
      <point x="840" y="-75" type="line"/>
      <point x="806" y="-117"/>
      <point x="709" y="-161"/>
      <point x="651" y="-161" type="qcurve" smooth="yes"/>
      <point x="573" y="-161"/>
      <point x="447" y="-94"/>
      <point x="366" y="-9" type="qcurve"/>
      <point x="271" y="3"/>
      <point x="122" y="101"/>
      <point x="39" y="256"/>
      <point x="39" y="350" type="qcurve" smooth="yes"/>
      <point x="39" y="453"/>
      <point x="138" y="618"/>
      <point x="313" y="712"/>
      <point x="422" y="712" type="qcurve" smooth="yes"/>
      <point x="531" y="712"/>
      <point x="705" y="618"/>
      <point x="805" y="453"/>
      <point x="805" y="350" type="qcurve" smooth="yes"/>
      <point x="805" y="228"/>
      <point x="668" y="44"/>
      <point x="555" y="8" type="qcurve"/>
      <point x="580" y="-18"/>
      <point x="627" y="-41"/>
      <point x="654" y="-41" type="qcurve" smooth="yes"/>
      <point x="719" y="-41"/>
      <point x="768" y="11" type="qcurve"/>
    </contour>
    <contour>
      <point x="260" y="183"/>
      <point x="360" y="126"/>
      <point x="422" y="126" type="qcurve" smooth="yes"/>
      <point x="484" y="126"/>
      <point x="584" y="183"/>
      <point x="641" y="285"/>
      <point x="641" y="350" type="qcurve" smooth="yes"/>
      <point x="641" y="415"/>
      <point x="584" y="517"/>
      <point x="484" y="574"/>
      <point x="422" y="574" type="qcurve" smooth="yes"/>
      <point x="360" y="574"/>
      <point x="260" y="517"/>
      <point x="203" y="415"/>
      <point x="203" y="350" type="qcurve" smooth="yes"/>
      <point x="203" y="285"/>
    </contour>
  </outline>
</glyph>
<glyph name="R" format="2">
  <advance width="735"/>
  <unicode hex="0052"/>
  <anchor x="0" y="0" name="Anchor-17"/>
  <anchor x="0" y="0" name="Anchor-16"/>
  <anchor x="0" y="0" name="Anchor-15"/>
  <anchor x="375" y="700" name="Anchor-14"/>
  <anchor x="0" y="0" name="Anchor-13"/>
  <anchor x="375" y="0" name="Anchor-12"/>
  <outline>
    <contour>
      <point x="529" y="0" type="line"/>
      <point x="394" y="195" type="line"/>
      <point x="386" y="195" type="line"/>
      <point x="245" y="195" type="line"/>
      <point x="245" y="0" type="line"/>
      <point x="83" y="0" type="line"/>
      <point x="83" y="700" type="line"/>
      <point x="386" y="700" type="line" smooth="yes"/>
      <point x="479" y="700"/>
      <point x="616" y="638"/>
      <point x="690" y="524"/>
      <point x="690" y="446" type="qcurve" smooth="yes"/>
      <point x="690" y="368"/>
      <point x="615" y="255"/>
      <point x="546" y="225" type="qcurve"/>
      <point x="703" y="0" type="line"/>
    </contour>
    <contour>
      <point x="450" y="568"/>
      <point x="377" y="568" type="qcurve" smooth="yes"/>
      <point x="245" y="568" type="line"/>
      <point x="245" y="324" type="line"/>
      <point x="377" y="324" type="line" smooth="yes"/>
      <point x="450" y="324"/>
      <point x="526" y="388"/>
      <point x="526" y="446" type="qcurve" smooth="yes"/>
      <point x="526" y="505"/>
    </contour>
  </outline>
</glyph>
<glyph name="S" format="2">
  <advance width="638"/>
  <unicode hex="0053"/>
  <anchor x="0" y="0" name="Anchor-17"/>
  <anchor x="0" y="0" name="Anchor-16"/>
  <anchor x="0" y="0" name="Anchor-15"/>
  <anchor x="325" y="700" name="Anchor-14"/>
  <anchor x="0" y="0" name="Anchor-13"/>
  <anchor x="325" y="0" name="Anchor-12"/>
  <outline>
    <contour>
      <point x="75" y="33"/>
      <point x="28" y="69" type="qcurve"/>
      <point x="83" y="191" type="line"/>
      <point x="128" y="158"/>
      <point x="252" y="118"/>
      <point x="314" y="118" type="qcurve" smooth="yes"/>
      <point x="383" y="118"/>
      <point x="449" y="159"/>
      <point x="449" y="193" type="qcurve" smooth="yes"/>
      <point x="449" y="218"/>
      <point x="410" y="251"/>
      <point x="349" y="271"/>
      <point x="297" y="283" type="qcurve" smooth="yes"/>
      <point x="217" y="302"/>
      <point x="115" y="340"/>
      <point x="42" y="424"/>
      <point x="42" y="494" type="qcurve" smooth="yes"/>
      <point x="42" y="555"/>
      <point x="108" y="654"/>
      <point x="241" y="712"/>
      <point x="337" y="712" type="qcurve" smooth="yes"/>
      <point x="404" y="712"/>
      <point x="532" y="680"/>
      <point x="580" y="650" type="qcurve"/>
      <point x="530" y="527" type="line"/>
      <point x="433" y="582"/>
      <point x="336" y="582" type="qcurve" smooth="yes"/>
      <point x="268" y="582"/>
      <point x="203" y="538"/>
      <point x="203" y="502" type="qcurve" smooth="yes"/>
      <point x="203" y="466"/>
      <point x="278" y="431"/>
      <point x="355" y="414" type="qcurve" smooth="yes"/>
      <point x="435" y="395"/>
      <point x="537" y="357"/>
      <point x="610" y="275"/>
      <point x="610" y="205" type="qcurve" smooth="yes"/>
      <point x="610" y="145"/>
      <point x="543" y="46"/>
      <point x="409" y="-12"/>
      <point x="313" y="-12" type="qcurve" smooth="yes"/>
      <point x="230" y="-12"/>
    </contour>
  </outline>
</glyph>
<glyph name="T" format="2">
  <advance width="618"/>
  <unicode hex="0054"/>
  <anchor x="0" y="0" name="Anchor-17"/>
  <anchor x="0" y="0" name="Anchor-16"/>
  <anchor x="309" y="328" name="Anchor-15"/>
  <anchor x="309" y="700" name="Anchor-14"/>
  <anchor x="0" y="0" name="Anchor-13"/>
  <anchor x="309" y="0" name="Anchor-12"/>
  <outline>
    <contour>
      <point x="228" y="568" type="line"/>
      <point x="4" y="568" type="line"/>
      <point x="4" y="700" type="line"/>
      <point x="614" y="700" type="line"/>
      <point x="614" y="568" type="line"/>
      <point x="390" y="568" type="line"/>
      <point x="390" y="0" type="line"/>
      <point x="228" y="0" type="line"/>
    </contour>
  </outline>
</glyph>
<glyph name="U" format="2">
  <advance width="788"/>
  <unicode hex="0055"/>
  <anchor x="0" y="0" name="Anchor-17"/>
  <anchor x="651" y="700" name="Anchor-16"/>
  <anchor x="0" y="0" name="Anchor-15"/>
  <anchor x="395" y="700" name="Anchor-14"/>
  <anchor x="607" y="0" name="Anchor-13"/>
  <anchor x="395" y="0" name="Anchor-12"/>
  <outline>
    <contour>
      <point x="77" y="154"/>
      <point x="77" y="308" type="qcurve" smooth="yes"/>
      <point x="77" y="700" type="line"/>
      <point x="239" y="700" type="line"/>
      <point x="239" y="314" type="line" smooth="yes"/>
      <point x="239" y="126"/>
      <point x="395" y="126" type="qcurve" smooth="yes"/>
      <point x="471" y="126"/>
      <point x="551" y="217"/>
      <point x="551" y="314" type="qcurve" smooth="yes"/>
      <point x="551" y="700" type="line"/>
      <point x="711" y="700" type="line"/>
      <point x="711" y="308" type="line" smooth="yes"/>
      <point x="711" y="154"/>
      <point x="544" y="-12"/>
      <point x="394" y="-12" type="qcurve" smooth="yes"/>
      <point x="244" y="-12"/>
    </contour>
  </outline>
</glyph>
<glyph name="V" format="2">
  <advance width="746"/>
  <unicode hex="0056"/>
  <outline>
    <contour>
      <point x="756" y="700" type="line"/>
      <point x="453" y="0" type="line"/>
      <point x="293" y="0" type="line"/>
      <point x="-9" y="700" type="line"/>
      <point x="166" y="700" type="line"/>
      <point x="379" y="200" type="line"/>
      <point x="595" y="700" type="line"/>
    </contour>
  </outline>
</glyph>
<glyph name="W" format="2">
  <advance width="1163"/>
  <unicode hex="0057"/>
  <anchor x="0" y="0" name="Anchor-17"/>
  <anchor x="0" y="0" name="Anchor-16"/>
  <anchor x="0" y="0" name="Anchor-15"/>
  <anchor x="582" y="700" name="Anchor-14"/>
  <anchor x="0" y="0" name="Anchor-13"/>
  <anchor x="582" y="0" name="Anchor-12"/>
  <outline>
    <contour>
      <point x="1141" y="700" type="line"/>
      <point x="912" y="0" type="line"/>
      <point x="738" y="0" type="line"/>
      <point x="584" y="474" type="line"/>
      <point x="425" y="0" type="line"/>
      <point x="252" y="0" type="line"/>
      <point x="22" y="700" type="line"/>
      <point x="190" y="700" type="line"/>
      <point x="348" y="208" type="line"/>
      <point x="513" y="700" type="line"/>
      <point x="663" y="700" type="line"/>
      <point x="823" y="204" type="line"/>
      <point x="986" y="700" type="line"/>
    </contour>
  </outline>
</glyph>
<glyph name="X" format="2">
  <advance width="714"/>
  <unicode hex="0058"/>
  <outline>
    <contour>
      <point x="524" y="0" type="line"/>
      <point x="355" y="243" type="line"/>
      <point x="189" y="0" type="line"/>
      <point x="3" y="0" type="line"/>
      <point x="262" y="356" type="line"/>
      <point x="16" y="700" type="line"/>
      <point x="200" y="700" type="line"/>
      <point x="361" y="473" type="line"/>
      <point x="519" y="700" type="line"/>
      <point x="694" y="700" type="line"/>
      <point x="450" y="362" type="line"/>
      <point x="711" y="0" type="line"/>
    </contour>
  </outline>
</glyph>
<glyph name="Y" format="2">
  <advance width="676"/>
  <unicode hex="0059"/>
  <anchor x="0" y="0" name="Anchor-17"/>
  <anchor x="0" y="0" name="Anchor-16"/>
  <anchor x="334" y="257" name="Anchor-15"/>
  <anchor x="338" y="700" name="Anchor-14"/>
  <anchor x="0" y="0" name="Anchor-13"/>
  <anchor x="338" y="0" name="Anchor-12"/>
  <outline>
    <contour>
      <point x="419" y="248" type="line"/>
      <point x="419" y="0" type="line"/>
      <point x="257" y="0" type="line"/>
      <point x="257" y="250" type="line"/>
      <point x="-14" y="700" type="line"/>
      <point x="158" y="700" type="line"/>
      <point x="345" y="389" type="line"/>
      <point x="532" y="700" type="line"/>
      <point x="691" y="700" type="line"/>
    </contour>
  </outline>
</glyph>
<glyph name="Z" format="2">
  <advance width="671"/>
  <unicode hex="005A"/>
  <anchor x="0" y="0" name="Anchor-17"/>
  <anchor x="0" y="0" name="Anchor-16"/>
  <anchor x="0" y="0" name="Anchor-15"/>
  <anchor x="344" y="700" name="Anchor-14"/>
  <anchor x="0" y="0" name="Anchor-13"/>
  <anchor x="347" y="0" name="Anchor-12"/>
  <outline>
    <contour>
      <point x="650" y="132" type="line"/>
      <point x="650" y="0" type="line"/>
      <point x="38" y="0" type="line"/>
      <point x="38" y="105" type="line"/>
      <point x="422" y="568" type="line"/>
      <point x="46" y="568" type="line"/>
      <point x="46" y="700" type="line"/>
      <point x="635" y="700" type="line"/>
      <point x="635" y="595" type="line"/>
      <point x="252" y="132" type="line"/>
    </contour>
  </outline>
</glyph>
<glyph name="bracketleft" format="2">
  <advance width="368"/>
  <unicode hex="005B"/>
  <outline>
    <contour>
      <point x="83" y="742" type="line"/>
      <point x="354" y="742" type="line"/>
      <point x="354" y="620" type="line"/>
      <point x="239" y="620" type="line"/>
      <point x="239" y="-72" type="line"/>
      <point x="354" y="-72" type="line"/>
      <point x="354" y="-194" type="line"/>
      <point x="83" y="-194" type="line"/>
    </contour>
  </outline>
</glyph>
<glyph name="backslash" format="2">
  <advance width="392"/>
  <unicode hex="005C"/>
  <outline>
    <contour>
      <point x="287" y="-100" type="line"/>
      <point x="-43" y="842" type="line"/>
      <point x="96" y="842" type="line"/>
      <point x="426" y="-100" type="line"/>
    </contour>
  </outline>
</glyph>
<glyph name="bracketright" format="2">
  <advance width="368"/>
  <unicode hex="005D"/>
  <outline>
    <contour>
      <point x="15" y="-194" type="line"/>
      <point x="15" y="-72" type="line"/>
      <point x="129" y="-72" type="line"/>
      <point x="129" y="620" type="line"/>
      <point x="15" y="620" type="line"/>
      <point x="15" y="742" type="line"/>
      <point x="285" y="742" type="line"/>
      <point x="285" y="-194" type="line"/>
    </contour>
  </outline>
</glyph>
<glyph name="asciicircum" format="2">
  <advance width="600"/>
  <unicode hex="005E"/>
  <outline>
    <contour>
      <point x="423" y="141" type="line"/>
      <point x="300" y="436" type="line"/>
      <point x="177" y="141" type="line"/>
      <point x="57" y="141" type="line"/>
      <point x="238" y="559" type="line"/>
      <point x="363" y="559" type="line"/>
      <point x="543" y="141" type="line"/>
    </contour>
  </outline>
</glyph>
<glyph name="a" format="2">
  <advance width="617"/>
  <unicode hex="0061"/>
  <anchor x="0" y="0" name="Anchor-17"/>
  <anchor x="0" y="0" name="Anchor-16"/>
  <anchor x="0" y="0" name="Anchor-15"/>
  <anchor x="305" y="538" name="Anchor-14"/>
  <anchor x="548" y="0" name="Anchor-13"/>
  <anchor x="293" y="0" name="Anchor-12"/>
  <outline>
    <contour>
      <point x="548" y="427"/>
      <point x="548" y="307" type="qcurve" smooth="yes"/>
      <point x="548" y="0" type="line"/>
      <point x="402" y="0" type="line"/>
      <point x="402" y="67" type="line"/>
      <point x="358" y="-8"/>
      <point x="238" y="-8" type="qcurve" smooth="yes"/>
      <point x="176" y="-8"/>
      <point x="85" y="34"/>
      <point x="37" y="108"/>
      <point x="37" y="155" type="qcurve" smooth="yes"/>
      <point x="37" y="230"/>
      <point x="150" y="316"/>
      <point x="268" y="316" type="qcurve" smooth="yes"/>
      <point x="392" y="316" type="line"/>
      <point x="392" y="367"/>
      <point x="330" y="422"/>
      <point x="268" y="422" type="qcurve" smooth="yes"/>
      <point x="225" y="422"/>
      <point x="142" y="395"/>
      <point x="113" y="372" type="qcurve"/>
      <point x="57" y="481" type="line"/>
      <point x="101" y="512"/>
      <point x="224" y="546"/>
      <point x="289" y="546" type="qcurve" smooth="yes"/>
      <point x="414" y="546"/>
    </contour>
    <contour>
      <point x="379" y="134"/>
      <point x="392" y="170" type="qcurve"/>
      <point x="392" y="225" type="line"/>
      <point x="285" y="225" type="line" smooth="yes"/>
      <point x="189" y="225"/>
      <point x="189" y="162" type="qcurve" smooth="yes"/>
      <point x="189" y="132"/>
      <point x="236" y="97"/>
      <point x="277" y="97" type="qcurve" smooth="yes"/>
      <point x="317" y="97"/>
    </contour>
  </outline>
</glyph>
<glyph name="b" format="2">
  <advance width="690"/>
  <unicode hex="0062"/>
  <outline>
    <contour>
      <point x="588" y="477"/>
      <point x="658" y="352"/>
      <point x="658" y="269" type="qcurve" smooth="yes"/>
      <point x="658" y="186"/>
      <point x="588" y="61"/>
      <point x="465" y="-8"/>
      <point x="390" y="-8" type="qcurve" smooth="yes"/>
      <point x="279" y="-8"/>
      <point x="221" y="62" type="qcurve"/>
      <point x="221" y="0" type="line"/>
      <point x="72" y="0" type="line"/>
      <point x="72" y="742" type="line"/>
      <point x="228" y="742" type="line"/>
      <point x="228" y="481" type="line"/>
      <point x="287" y="546"/>
      <point x="390" y="546" type="qcurve" smooth="yes"/>
      <point x="465" y="546"/>
    </contour>
    <contour>
      <point x="500" y="201"/>
      <point x="500" y="269" type="qcurve" smooth="yes"/>
      <point x="500" y="337"/>
      <point x="423" y="418"/>
      <point x="363" y="418" type="qcurve" smooth="yes"/>
      <point x="303" y="418"/>
      <point x="226" y="337"/>
      <point x="226" y="269" type="qcurve" smooth="yes"/>
      <point x="226" y="201"/>
      <point x="303" y="120"/>
      <point x="363" y="120" type="qcurve" smooth="yes"/>
      <point x="423" y="120"/>
    </contour>
  </outline>
</glyph>
<glyph name="c" format="2">
  <advance width="591"/>
  <unicode hex="0063"/>
  <anchor x="0" y="0" name="Anchor-17"/>
  <anchor x="0" y="0" name="Anchor-16"/>
  <anchor x="0" y="0" name="Anchor-15"/>
  <anchor x="313" y="538" name="Anchor-14"/>
  <anchor x="0" y="0" name="Anchor-13"/>
  <anchor x="308" y="0" name="Anchor-12"/>
  <outline>
    <contour>
      <point x="109" y="63"/>
      <point x="32" y="189"/>
      <point x="32" y="269" type="qcurve" smooth="yes"/>
      <point x="32" y="349"/>
      <point x="109" y="475"/>
      <point x="246" y="546"/>
      <point x="332" y="546" type="qcurve" smooth="yes"/>
      <point x="417" y="546"/>
      <point x="544" y="475"/>
      <point x="573" y="409" type="qcurve"/>
      <point x="452" y="344" type="line"/>
      <point x="410" y="418"/>
      <point x="331" y="418" type="qcurve" smooth="yes"/>
      <point x="270" y="418"/>
      <point x="190" y="338"/>
      <point x="190" y="269" type="qcurve" smooth="yes"/>
      <point x="190" y="200"/>
      <point x="270" y="120"/>
      <point x="331" y="120" type="qcurve" smooth="yes"/>
      <point x="411" y="120"/>
      <point x="452" y="194" type="qcurve"/>
      <point x="573" y="128" type="line"/>
      <point x="544" y="64"/>
      <point x="417" y="-8"/>
      <point x="332" y="-8" type="qcurve" smooth="yes"/>
      <point x="246" y="-8"/>
    </contour>
  </outline>
</glyph>
<glyph name="d" format="2">
  <advance width="692"/>
  <unicode hex="0064"/>
  <anchor x="0" y="0" name="Anchor-17"/>
  <anchor x="702" y="742" name="Anchor-16"/>
  <anchor x="487" y="637" name="Anchor-15"/>
  <anchor x="0" y="0" name="Anchor-14"/>
  <anchor x="0" y="0" name="Anchor-13"/>
  <anchor x="363" y="0" name="Anchor-12"/>
  <outline>
    <contour>
      <point x="620" y="742" type="line"/>
      <point x="620" y="0" type="line"/>
      <point x="471" y="0" type="line"/>
      <point x="471" y="62" type="line"/>
      <point x="413" y="-8"/>
      <point x="303" y="-8" type="qcurve" smooth="yes"/>
      <point x="227" y="-8"/>
      <point x="104" y="60"/>
      <point x="34" y="186"/>
      <point x="34" y="269" type="qcurve" smooth="yes"/>
      <point x="34" y="352"/>
      <point x="104" y="478"/>
      <point x="227" y="546"/>
      <point x="303" y="546" type="qcurve" smooth="yes"/>
      <point x="406" y="546"/>
      <point x="464" y="481" type="qcurve"/>
      <point x="464" y="742" type="line"/>
    </contour>
    <contour>
      <point x="467" y="201"/>
      <point x="467" y="269" type="qcurve" smooth="yes"/>
      <point x="467" y="337"/>
      <point x="389" y="418"/>
      <point x="330" y="418" type="qcurve" smooth="yes"/>
      <point x="270" y="418"/>
      <point x="192" y="337"/>
      <point x="192" y="269" type="qcurve" smooth="yes"/>
      <point x="192" y="201"/>
      <point x="270" y="120"/>
      <point x="330" y="120" type="qcurve" smooth="yes"/>
      <point x="389" y="120"/>
    </contour>
  </outline>
</glyph>
<glyph name="e" format="2">
  <advance width="631"/>
  <unicode hex="0065"/>
  <anchor x="0" y="0" name="Anchor-17"/>
  <anchor x="0" y="0" name="Anchor-16"/>
  <anchor x="0" y="0" name="Anchor-15"/>
  <anchor x="316" y="538" name="Anchor-14"/>
  <anchor x="536" y="0" name="Anchor-13"/>
  <anchor x="316" y="0" name="Anchor-12"/>
  <outline>
    <contour>
      <point x="596" y="225" type="qcurve"/>
      <point x="189" y="225" type="line"/>
      <point x="200" y="175"/>
      <point x="282" y="117"/>
      <point x="343" y="117" type="qcurve" smooth="yes"/>
      <point x="385" y="117"/>
      <point x="450" y="142"/>
      <point x="478" y="169" type="qcurve"/>
      <point x="561" y="79" type="line"/>
      <point x="485" y="-8"/>
      <point x="339" y="-8" type="qcurve" smooth="yes"/>
      <point x="248" y="-8"/>
      <point x="108" y="63"/>
      <point x="32" y="189"/>
      <point x="32" y="269" type="qcurve" smooth="yes"/>
      <point x="32" y="348"/>
      <point x="107" y="475"/>
      <point x="238" y="546"/>
      <point x="319" y="546" type="qcurve" smooth="yes"/>
      <point x="398" y="546"/>
      <point x="526" y="478"/>
      <point x="599" y="351"/>
      <point x="599" y="267" type="qcurve" smooth="yes"/>
      <point x="599" y="264"/>
    </contour>
    <contour>
      <point x="195" y="368"/>
      <point x="187" y="316" type="qcurve"/>
      <point x="452" y="316" type="line"/>
      <point x="444" y="367"/>
      <point x="372" y="428"/>
      <point x="320" y="428" type="qcurve" smooth="yes"/>
      <point x="267" y="428"/>
    </contour>
  </outline>
</glyph>
<glyph name="f" format="2">
  <advance width="387"/>
  <unicode hex="0066"/>
  <outline>
    <contour>
      <point x="243" y="526" type="line"/>
      <point x="381" y="526" type="line"/>
      <point x="381" y="406" type="line"/>
      <point x="247" y="406" type="line"/>
      <point x="247" y="0" type="line"/>
      <point x="91" y="0" type="line"/>
      <point x="91" y="406" type="line"/>
      <point x="8" y="406" type="line"/>
      <point x="8" y="526" type="line"/>
      <point x="91" y="526" type="line"/>
      <point x="91" y="550" type="line" smooth="yes"/>
      <point x="91" y="642"/>
      <point x="200" y="750"/>
      <point x="299" y="750" type="qcurve" smooth="yes"/>
      <point x="334" y="750"/>
      <point x="397" y="735"/>
      <point x="418" y="721" type="qcurve"/>
      <point x="377" y="608" type="line"/>
      <point x="350" y="627"/>
      <point x="314" y="627" type="qcurve" smooth="yes"/>
      <point x="243" y="627"/>
      <point x="243" y="549" type="qcurve" smooth="yes"/>
    </contour>
  </outline>
</glyph>
<glyph name="g" format="2">
  <advance width="700"/>
  <unicode hex="0067"/>
  <anchor x="0" y="0" name="Anchor-17"/>
  <anchor x="0" y="0" name="Anchor-16"/>
  <anchor x="0" y="0" name="Anchor-15"/>
  <anchor x="341" y="538" name="Anchor-14"/>
  <anchor x="0" y="0" name="Anchor-13"/>
  <anchor x="0" y="0" name="Anchor-12"/>
  <outline>
    <contour>
      <point x="627" y="538" type="line"/>
      <point x="627" y="90" type="line" smooth="yes"/>
      <point x="627" y="-58"/>
      <point x="473" y="-202"/>
      <point x="325" y="-202" type="qcurve" smooth="yes"/>
      <point x="247" y="-202"/>
      <point x="107" y="-164"/>
      <point x="61" y="-128" type="qcurve"/>
      <point x="123" y="-16" type="line"/>
      <point x="157" y="-44"/>
      <point x="261" y="-77"/>
      <point x="313" y="-77" type="qcurve" smooth="yes"/>
      <point x="394" y="-77"/>
      <point x="471" y="-4"/>
      <point x="471" y="70" type="qcurve" smooth="yes"/>
      <point x="471" y="93" type="line"/>
      <point x="410" y="26"/>
      <point x="301" y="26" type="qcurve" smooth="yes"/>
      <point x="227" y="26"/>
      <point x="104" y="91"/>
      <point x="32" y="209"/>
      <point x="32" y="286" type="qcurve" smooth="yes"/>
      <point x="32" y="363"/>
      <point x="104" y="481"/>
      <point x="227" y="546"/>
      <point x="301" y="546" type="qcurve" smooth="yes"/>
      <point x="418" y="546"/>
      <point x="479" y="469" type="qcurve"/>
      <point x="479" y="538" type="line"/>
    </contour>
    <contour>
      <point x="473" y="227"/>
      <point x="473" y="286" type="qcurve" smooth="yes"/>
      <point x="473" y="345"/>
      <point x="394" y="418"/>
      <point x="332" y="418" type="qcurve" smooth="yes"/>
      <point x="270" y="418"/>
      <point x="190" y="345"/>
      <point x="190" y="286" type="qcurve" smooth="yes"/>
      <point x="190" y="227"/>
      <point x="270" y="154"/>
      <point x="332" y="154" type="qcurve" smooth="yes"/>
      <point x="394" y="154"/>
    </contour>
  </outline>
</glyph>
<glyph name="l" format="2">
  <advance width="301"/>
  <unicode hex="006C"/>
  <anchor x="0" y="0" name="Anchor-17"/>
  <anchor x="308" y="742" name="Anchor-16"/>
  <anchor x="150" y="364" name="Anchor-15"/>
  <anchor x="150" y="742" name="Anchor-14"/>
  <anchor x="0" y="0" name="Anchor-13"/>
  <anchor x="150" y="0" name="Anchor-12"/>
  <outline>
    <contour>
      <point x="72" y="742" type="line"/>
      <point x="228" y="742" type="line"/>
      <point x="228" y="0" type="line"/>
      <point x="72" y="0" type="line"/>
    </contour>
  </outline>
</glyph>
<glyph name="m" format="2">
  <advance width="1049"/>
  <unicode hex="006D"/>
  <anchor x="0" y="0" name="Anchor-17"/>
  <anchor x="0" y="0" name="Anchor-16"/>
  <anchor x="0" y="0" name="Anchor-15"/>
  <anchor x="0" y="0" name="Anchor-14"/>
  <anchor x="0" y="0" name="Anchor-13"/>
  <anchor x="525" y="0" name="Anchor-12"/>
  <outline>
    <contour>
      <point x="981" y="427"/>
      <point x="981" y="308" type="qcurve" smooth="yes"/>
      <point x="981" y="0" type="line"/>
      <point x="825" y="0" type="line"/>
      <point x="825" y="284" type="line" smooth="yes"/>
      <point x="825" y="348"/>
      <point x="772" y="411"/>
      <point x="723" y="411" type="qcurve" smooth="yes"/>
      <point x="668" y="411"/>
      <point x="604" y="340"/>
      <point x="604" y="270" type="qcurve" smooth="yes"/>
      <point x="604" y="0" type="line"/>
      <point x="448" y="0" type="line"/>
      <point x="448" y="284" type="line" smooth="yes"/>
      <point x="448" y="411"/>
      <point x="346" y="411" type="qcurve" smooth="yes"/>
      <point x="292" y="411"/>
      <point x="228" y="340"/>
      <point x="228" y="270" type="qcurve" smooth="yes"/>
      <point x="228" y="0" type="line"/>
      <point x="72" y="0" type="line"/>
      <point x="72" y="538" type="line"/>
      <point x="221" y="538" type="line"/>
      <point x="221" y="476" type="line"/>
      <point x="251" y="510"/>
      <point x="338" y="546"/>
      <point x="390" y="546" type="qcurve" smooth="yes"/>
      <point x="447" y="546"/>
      <point x="539" y="501"/>
      <point x="567" y="458" type="qcurve"/>
      <point x="600" y="500"/>
      <point x="701" y="546"/>
      <point x="761" y="546" type="qcurve" smooth="yes"/>
      <point x="862" y="546"/>
    </contour>
  </outline>
</glyph>
<glyph name="n" format="2">
  <advance width="691"/>
  <unicode hex="006E"/>
  <anchor x="0" y="0" name="Anchor-17"/>
  <anchor x="0" y="0" name="Anchor-16"/>
  <anchor x="0" y="0" name="Anchor-15"/>
  <anchor x="348" y="538" name="Anchor-14"/>
  <anchor x="0" y="0" name="Anchor-13"/>
  <anchor x="348" y="0" name="Anchor-12"/>
  <outline>
    <contour>
      <point x="622" y="426"/>
      <point x="622" y="308" type="qcurve" smooth="yes"/>
      <point x="622" y="0" type="line"/>
      <point x="466" y="0" type="line"/>
      <point x="466" y="284" type="line" smooth="yes"/>
      <point x="466" y="348"/>
      <point x="410" y="411"/>
      <point x="357" y="411" type="qcurve" smooth="yes"/>
      <point x="298" y="411"/>
      <point x="228" y="338"/>
      <point x="228" y="266" type="qcurve" smooth="yes"/>
      <point x="228" y="0" type="line"/>
      <point x="72" y="0" type="line"/>
      <point x="72" y="538" type="line"/>
      <point x="221" y="538" type="line"/>
      <point x="221" y="475" type="line"/>
      <point x="252" y="509"/>
      <point x="344" y="546"/>
      <point x="399" y="546" type="qcurve" smooth="yes"/>
      <point x="499" y="546"/>
    </contour>
  </outline>
</glyph>
<glyph name="o" format="2">
  <advance width="655"/>
  <unicode hex="006F"/>
  <anchor x="0" y="0" name="Anchor-17"/>
  <anchor x="444" y="538" name="Anchor-16"/>
  <anchor x="326" y="269" name="Anchor-15"/>
  <anchor x="326" y="538" name="Anchor-14"/>
  <anchor x="436" y="0" name="Anchor-13"/>
  <anchor x="326" y="0" name="Anchor-12"/>
  <outline>
    <contour>
      <point x="108" y="63"/>
      <point x="32" y="189"/>
      <point x="32" y="269" type="qcurve" smooth="yes"/>
      <point x="32" y="349"/>
      <point x="108" y="475"/>
      <point x="243" y="546"/>
      <point x="328" y="546" type="qcurve" smooth="yes"/>
      <point x="413" y="546"/>
      <point x="547" y="475"/>
      <point x="623" y="349"/>
      <point x="623" y="269" type="qcurve" smooth="yes"/>
      <point x="623" y="189"/>
      <point x="547" y="63"/>
      <point x="413" y="-8"/>
      <point x="328" y="-8" type="qcurve" smooth="yes"/>
      <point x="243" y="-8"/>
    </contour>
    <contour>
      <point x="465" y="201"/>
      <point x="465" y="269" type="qcurve" smooth="yes"/>
      <point x="465" y="337"/>
      <point x="388" y="418"/>
      <point x="328" y="418" type="qcurve" smooth="yes"/>
      <point x="268" y="418"/>
      <point x="190" y="337"/>
      <point x="190" y="269" type="qcurve" smooth="yes"/>
      <point x="190" y="201"/>
      <point x="268" y="120"/>
      <point x="328" y="120" type="qcurve" smooth="yes"/>
      <point x="388" y="120"/>
    </contour>
  </outline>
</glyph>
<glyph name="p" format="2">
  <advance width="690"/>
  <unicode hex="0070"/>
  <anchor x="0" y="0" name="Anchor-17"/>
  <anchor x="0" y="0" name="Anchor-16"/>
  <anchor x="0" y="0" name="Anchor-15"/>
  <anchor x="363" y="538" name="Anchor-14"/>
  <anchor x="0" y="0" name="Anchor-13"/>
  <anchor x="398" y="0" name="Anchor-12"/>
  <outline>
    <contour>
      <point x="588" y="477"/>
      <point x="658" y="352"/>
      <point x="658" y="269" type="qcurve" smooth="yes"/>
      <point x="658" y="186"/>
      <point x="588" y="61"/>
      <point x="465" y="-8"/>
      <point x="390" y="-8" type="qcurve" smooth="yes"/>
      <point x="287" y="-8"/>
      <point x="228" y="57" type="qcurve"/>
      <point x="228" y="-194" type="line"/>
      <point x="72" y="-194" type="line"/>
      <point x="72" y="538" type="line"/>
      <point x="221" y="538" type="line"/>
      <point x="221" y="476" type="line"/>
      <point x="279" y="546"/>
      <point x="390" y="546" type="qcurve" smooth="yes"/>
      <point x="465" y="546"/>
    </contour>
    <contour>
      <point x="500" y="201"/>
      <point x="500" y="269" type="qcurve" smooth="yes"/>
      <point x="500" y="337"/>
      <point x="423" y="418"/>
      <point x="363" y="418" type="qcurve" smooth="yes"/>
      <point x="303" y="418"/>
      <point x="226" y="337"/>
      <point x="226" y="269" type="qcurve" smooth="yes"/>
      <point x="226" y="201"/>
      <point x="303" y="120"/>
      <point x="363" y="120" type="qcurve" smooth="yes"/>
      <point x="423" y="120"/>
    </contour>
  </outline>
</glyph>
<glyph name="r" format="2">
  <advance width="431"/>
  <unicode hex="0072"/>
  <anchor x="0" y="0" name="Anchor-17"/>
  <anchor x="0" y="0" name="Anchor-16"/>
  <anchor x="0" y="0" name="Anchor-15"/>
  <anchor x="239" y="538" name="Anchor-14"/>
  <anchor x="0" y="0" name="Anchor-13"/>
  <anchor x="150" y="0" name="Anchor-12"/>
  <outline>
    <contour>
      <point x="344" y="546"/>
      <point x="406" y="546" type="qcurve"/>
      <point x="406" y="402" type="line"/>
      <point x="380" y="404"/>
      <point x="371" y="404" type="qcurve" smooth="yes"/>
      <point x="304" y="404"/>
      <point x="228" y="329"/>
      <point x="228" y="254" type="qcurve" smooth="yes"/>
      <point x="228" y="0" type="line"/>
      <point x="72" y="0" type="line"/>
      <point x="72" y="538" type="line"/>
      <point x="221" y="538" type="line"/>
      <point x="221" y="467" type="line"/>
      <point x="249" y="506"/>
    </contour>
  </outline>
</glyph>
<glyph name="s" format="2">
  <advance width="531"/>
  <unicode hex="0073"/>
  <anchor x="0" y="0" name="Anchor-17"/>
  <anchor x="0" y="0" name="Anchor-16"/>
  <anchor x="0" y="0" name="Anchor-15"/>
  <anchor x="261" y="538" name="Anchor-14"/>
  <anchor x="0" y="0" name="Anchor-13"/>
  <anchor x="261" y="0" name="Anchor-12"/>
  <outline>
    <contour>
      <point x="58" y="25"/>
      <point x="20" y="50" type="qcurve"/>
      <point x="72" y="162" type="line"/>
      <point x="108" y="139"/>
      <point x="210" y="110"/>
      <point x="259" y="110" type="qcurve" smooth="yes"/>
      <point x="358" y="110"/>
      <point x="358" y="159" type="qcurve" smooth="yes"/>
      <point x="358" y="182"/>
      <point x="304" y="202"/>
      <point x="248" y="209" type="qcurve" smooth="yes"/>
      <point x="182" y="219"/>
      <point x="96" y="245"/>
      <point x="33" y="311"/>
      <point x="33" y="372" type="qcurve" smooth="yes"/>
      <point x="33" y="423"/>
      <point x="92" y="502"/>
      <point x="205" y="546"/>
      <point x="282" y="546" type="qcurve" smooth="yes"/>
      <point x="339" y="546"/>
      <point x="452" y="521"/>
      <point x="489" y="499" type="qcurve"/>
      <point x="437" y="388" type="line"/>
      <point x="366" y="428"/>
      <point x="282" y="428" type="qcurve" smooth="yes"/>
      <point x="232" y="428"/>
      <point x="182" y="400"/>
      <point x="182" y="378" type="qcurve" smooth="yes"/>
      <point x="182" y="353"/>
      <point x="236" y="333"/>
      <point x="295" y="324" type="qcurve" smooth="yes"/>
      <point x="361" y="313"/>
      <point x="445" y="288"/>
      <point x="507" y="222"/>
      <point x="507" y="163" type="qcurve" smooth="yes"/>
      <point x="507" y="113"/>
      <point x="447" y="35"/>
      <point x="332" y="-8"/>
      <point x="253" y="-8" type="qcurve" smooth="yes"/>
      <point x="186" y="-8"/>
    </contour>
  </outline>
</glyph>
<glyph name="t" format="2">
  <advance width="435"/>
  <unicode hex="0074"/>
  <anchor x="0" y="0" name="Anchor-17"/>
  <anchor x="315" y="742" name="Anchor-16"/>
  <anchor x="195" y="275" name="Anchor-15"/>
  <anchor x="169" y="657" name="Anchor-14"/>
  <anchor x="0" y="0" name="Anchor-13"/>
  <anchor x="263" y="0" name="Anchor-12"/>
  <outline>
    <contour>
      <point x="419" y="26" type="line"/>
      <point x="396" y="9"/>
      <point x="329" y="-8"/>
      <point x="292" y="-8" type="qcurve" smooth="yes"/>
      <point x="196" y="-8"/>
      <point x="91" y="90"/>
      <point x="91" y="185" type="qcurve" smooth="yes"/>
      <point x="91" y="406" type="line"/>
      <point x="8" y="406" type="line"/>
      <point x="8" y="526" type="line"/>
      <point x="91" y="526" type="line"/>
      <point x="91" y="657" type="line"/>
      <point x="247" y="657" type="line"/>
      <point x="247" y="526" type="line"/>
      <point x="381" y="526" type="line"/>
      <point x="381" y="406" type="line"/>
      <point x="247" y="406" type="line"/>
      <point x="247" y="187" type="line" smooth="yes"/>
      <point x="247" y="153"/>
      <point x="282" y="116"/>
      <point x="314" y="116" type="qcurve" smooth="yes"/>
      <point x="351" y="116"/>
      <point x="377" y="136" type="qcurve"/>
    </contour>
  </outline>
</glyph>
<glyph name="u" format="2">
  <advance width="687"/>
  <unicode hex="0075"/>
  <anchor x="0" y="0" name="Anchor-17"/>
  <anchor x="537" y="538" name="Anchor-16"/>
  <anchor x="0" y="0" name="Anchor-15"/>
  <anchor x="341" y="538" name="Anchor-14"/>
  <anchor x="614" y="0" name="Anchor-13"/>
  <anchor x="341" y="0" name="Anchor-12"/>
  <outline>
    <contour>
      <point x="614" y="538" type="line"/>
      <point x="614" y="0" type="line"/>
      <point x="466" y="0" type="line"/>
      <point x="466" y="64" type="line"/>
      <point x="435" y="29"/>
      <point x="349" y="-8"/>
      <point x="299" y="-8" type="qcurve" smooth="yes"/>
      <point x="193" y="-8"/>
      <point x="69" y="114"/>
      <point x="69" y="234" type="qcurve" smooth="yes"/>
      <point x="69" y="538" type="line"/>
      <point x="225" y="538" type="line"/>
      <point x="225" y="257" type="line" smooth="yes"/>
      <point x="225" y="127"/>
      <point x="334" y="127" type="qcurve" smooth="yes"/>
      <point x="390" y="127"/>
      <point x="458" y="200"/>
      <point x="458" y="272" type="qcurve" smooth="yes"/>
      <point x="458" y="538" type="line"/>
    </contour>
  </outline>
</glyph>
<glyph name="v" format="2">
  <advance width="598"/>
  <unicode hex="0076"/>
  <anchor x="0" y="0" name="Anchor-17"/>
  <anchor x="0" y="0" name="Anchor-16"/>
  <anchor x="0" y="0" name="Anchor-15"/>
  <anchor x="299" y="538" name="Anchor-14"/>
  <anchor x="0" y="0" name="Anchor-13"/>
  <anchor x="299" y="0" name="Anchor-12"/>
  <outline>
    <contour>
      <point x="606" y="538" type="line"/>
      <point x="379" y="0" type="line"/>
      <point x="218" y="0" type="line"/>
      <point x="-8" y="538" type="line"/>
      <point x="153" y="538" type="line"/>
      <point x="302" y="172" type="line"/>
      <point x="456" y="538" type="line"/>
    </contour>
  </outline>
</glyph>
<glyph name="w" format="2">
  <advance width="937"/>
  <unicode hex="0077"/>
  <anchor x="0" y="0" name="Anchor-17"/>
  <anchor x="0" y="0" name="Anchor-16"/>
  <anchor x="0" y="0" name="Anchor-15"/>
  <anchor x="467" y="537" name="Anchor-14"/>
  <anchor x="0" y="0" name="Anchor-13"/>
  <anchor x="467" y="0" name="Anchor-12"/>
  <outline>
    <contour>
      <point x="936" y="538" type="line"/>
      <point x="741" y="0" type="line"/>
      <point x="591" y="0" type="line"/>
      <point x="470" y="334" type="line"/>
      <point x="345" y="0" type="line"/>
      <point x="195" y="0" type="line"/>
      <point x="1" y="538" type="line"/>
      <point x="148" y="538" type="line"/>
      <point x="275" y="174" type="line"/>
      <point x="407" y="538" type="line"/>
      <point x="539" y="538" type="line"/>
      <point x="667" y="174" type="line"/>
      <point x="798" y="538" type="line"/>
    </contour>
  </outline>
</glyph>
<glyph name="x" format="2">
  <advance width="595"/>
  <unicode hex="0078"/>
  <outline>
    <contour>
      <point x="414" y="0" type="line"/>
      <point x="296" y="165" type="line"/>
      <point x="174" y="0" type="line"/>
      <point x="4" y="0" type="line"/>
      <point x="211" y="271" type="line"/>
      <point x="11" y="538" type="line"/>
      <point x="186" y="538" type="line"/>
      <point x="300" y="381" type="line"/>
      <point x="417" y="538" type="line"/>
      <point x="583" y="538" type="line"/>
      <point x="383" y="275" type="line"/>
      <point x="591" y="0" type="line"/>
    </contour>
  </outline>
</glyph>
<glyph name="y" format="2">
  <advance width="598"/>
  <unicode hex="0079"/>
  <anchor x="0" y="0" name="Anchor-17"/>
  <anchor x="0" y="0" name="Anchor-16"/>
  <anchor x="0" y="0" name="Anchor-15"/>
  <anchor x="288" y="538" name="Anchor-14"/>
  <anchor x="0" y="0" name="Anchor-13"/>
  <anchor x="464" y="0" name="Anchor-12"/>
  <outline>
    <contour>
      <point x="606" y="538" type="line"/>
      <point x="363" y="-33" type="line" smooth="yes"/>
      <point x="326" y="-126"/>
      <point x="217" y="-202"/>
      <point x="140" y="-202" type="qcurve" smooth="yes"/>
      <point x="98" y="-202"/>
      <point x="16" y="-176"/>
      <point x="-10" y="-153" type="qcurve"/>
      <point x="47" y="-42" type="line"/>
      <point x="65" y="-58"/>
      <point x="112" y="-76"/>
      <point x="135" y="-76" type="qcurve" smooth="yes"/>
      <point x="167" y="-76"/>
      <point x="207" y="-45"/>
      <point x="223" y="-9" type="qcurve" smooth="yes"/>
      <point x="225" y="-4" type="line"/>
      <point x="-8" y="538" type="line"/>
      <point x="153" y="538" type="line"/>
      <point x="304" y="173" type="line"/>
      <point x="456" y="538" type="line"/>
    </contour>
  </outline>
</glyph>
<glyph name="z" format="2">
  <advance width="543"/>
  <unicode hex="007A"/>
  <anchor x="0" y="0" name="Anchor-17"/>
  <anchor x="0" y="0" name="Anchor-16"/>
  <anchor x="0" y="0" name="Anchor-15"/>
  <anchor x="275" y="538" name="Anchor-14"/>
  <anchor x="0" y="0" name="Anchor-13"/>
  <anchor x="278" y="0" name="Anchor-12"/>
  <outline>
    <contour>
      <point x="515" y="120" type="line"/>
      <point x="515" y="0" type="line"/>
      <point x="35" y="0" type="line"/>
      <point x="35" y="94" type="line"/>
      <point x="309" y="418" type="line"/>
      <point x="42" y="418" type="line"/>
      <point x="42" y="538" type="line"/>
      <point x="506" y="538" type="line"/>
      <point x="506" y="444" type="line"/>
      <point x="232" y="120" type="line"/>
    </contour>
  </outline>
</glyph>
<glyph name="braceleft" format="2">
  <advance width="391"/>
  <unicode hex="007B"/>
  <outline>
    <contour>
      <point x="253" y="285"/>
      <point x="218" y="274" type="qcurve"/>
      <point x="253" y="263"/>
      <point x="285" y="213"/>
      <point x="285" y="162" type="qcurve" smooth="yes"/>
      <point x="285" y="2" type="line" smooth="yes"/>
      <point x="285" y="-34"/>
      <point x="322" y="-72"/>
      <point x="358" y="-72" type="qcurve" smooth="yes"/>
      <point x="376" y="-72" type="line"/>
      <point x="376" y="-194" type="line"/>
      <point x="318" y="-194" type="line" smooth="yes"/>
      <point x="225" y="-194"/>
      <point x="129" y="-102"/>
      <point x="129" y="-15" type="qcurve" smooth="yes"/>
      <point x="129" y="166" type="line" smooth="yes"/>
      <point x="129" y="189"/>
      <point x="106" y="213"/>
      <point x="85" y="213" type="qcurve" smooth="yes"/>
      <point x="52" y="213" type="line"/>
      <point x="52" y="335" type="line"/>
      <point x="85" y="335" type="line" smooth="yes"/>
      <point x="106" y="335"/>
      <point x="129" y="359"/>
      <point x="129" y="382" type="qcurve" smooth="yes"/>
      <point x="129" y="563" type="line" smooth="yes"/>
      <point x="129" y="650"/>
      <point x="225" y="742"/>
      <point x="318" y="742" type="qcurve" smooth="yes"/>
      <point x="376" y="742" type="line"/>
      <point x="376" y="620" type="line"/>
      <point x="358" y="620" type="line" smooth="yes"/>
      <point x="322" y="620"/>
      <point x="285" y="582"/>
      <point x="285" y="546" type="qcurve" smooth="yes"/>
      <point x="285" y="386" type="line" smooth="yes"/>
      <point x="285" y="335"/>
    </contour>
  </outline>
</glyph>
<glyph name="bar" format="2">
  <advance width="309"/>
  <unicode hex="007C"/>
  <outline>
    <contour>
      <point x="83" y="742" type="line"/>
      <point x="226" y="742" type="line"/>
      <point x="226" y="-194" type="line"/>
      <point x="83" y="-194" type="line"/>
    </contour>
  </outline>
</glyph>
<glyph name="braceright" format="2">
  <advance width="391"/>
  <unicode hex="007D"/>
  <outline>
    <contour>
      <point x="339" y="335" type="line"/>
      <point x="339" y="213" type="line"/>
      <point x="306" y="213" type="line" smooth="yes"/>
      <point x="285" y="213"/>
      <point x="262" y="189"/>
      <point x="262" y="166" type="qcurve" smooth="yes"/>
      <point x="262" y="-15" type="line" smooth="yes"/>
      <point x="262" y="-102"/>
      <point x="166" y="-194"/>
      <point x="73" y="-194" type="qcurve" smooth="yes"/>
      <point x="15" y="-194" type="line"/>
      <point x="15" y="-72" type="line"/>
      <point x="33" y="-72" type="line" smooth="yes"/>
      <point x="69" y="-72"/>
      <point x="106" y="-34"/>
      <point x="106" y="2" type="qcurve" smooth="yes"/>
      <point x="106" y="162" type="line" smooth="yes"/>
      <point x="106" y="213"/>
      <point x="138" y="263"/>
      <point x="173" y="274" type="qcurve"/>
      <point x="138" y="285"/>
      <point x="106" y="335"/>
      <point x="106" y="386" type="qcurve" smooth="yes"/>
      <point x="106" y="546" type="line" smooth="yes"/>
      <point x="106" y="582"/>
      <point x="69" y="620"/>
      <point x="33" y="620" type="qcurve" smooth="yes"/>
      <point x="15" y="620" type="line"/>
      <point x="15" y="742" type="line"/>
      <point x="73" y="742" type="line" smooth="yes"/>
      <point x="166" y="742"/>
      <point x="262" y="650"/>
      <point x="262" y="563" type="qcurve" smooth="yes"/>
      <point x="262" y="382" type="line" smooth="yes"/>
      <point x="262" y="359"/>
      <point x="285" y="335"/>
      <point x="306" y="335" type="qcurve" smooth="yes"/>
    </contour>
  </outline>
</glyph>
<glyph name="asciitilde" format="2">
  <advance width="599"/>
  <unicode hex="007E"/>
  <outline>
    <contour>
      <point x="309" y="279"/>
      <point x="277" y="304" type="qcurve" smooth="yes"/>
      <point x="253" y="322"/>
      <point x="224" y="338"/>
      <point x="209" y="338" type="qcurve" smooth="yes"/>
      <point x="182" y="338"/>
      <point x="148" y="296"/>
      <point x="147" y="260" type="qcurve"/>
      <point x="50" y="260" type="line"/>
      <point x="51" y="352"/>
      <point x="133" y="451"/>
      <point x="200" y="451" type="qcurve" smooth="yes"/>
      <point x="236" y="451"/>
      <point x="288" y="424"/>
      <point x="323" y="398" type="qcurve" smooth="yes"/>
      <point x="347" y="380"/>
      <point x="375" y="364"/>
      <point x="390" y="364" type="qcurve" smooth="yes"/>
      <point x="418" y="364"/>
      <point x="450" y="406"/>
      <point x="452" y="442" type="qcurve"/>
      <point x="550" y="442" type="line"/>
      <point x="548" y="350"/>
      <point x="466" y="251"/>
      <point x="400" y="251" type="qcurve" smooth="yes"/>
      <point x="364" y="251"/>
    </contour>
  </outline>
</glyph>
<glyph name="exclamdown" format="2">
  <advance width="289"/>
  <unicode hex="00A1"/>
  <outline>
    <contour>
      <point x="241" y="493"/>
      <point x="241" y="455" type="qcurve" smooth="yes"/>
      <point x="241" y="416"/>
      <point x="187" y="365"/>
      <point x="145" y="365" type="qcurve" smooth="yes"/>
      <point x="103" y="365"/>
      <point x="49" y="416"/>
      <point x="49" y="455" type="qcurve" smooth="yes"/>
      <point x="49" y="493"/>
      <point x="104" y="546"/>
      <point x="145" y="546" type="qcurve" smooth="yes"/>
      <point x="186" y="546"/>
    </contour>
    <contour>
      <point x="238" y="-154" type="line"/>
      <point x="52" y="-154" type="line"/>
      <point x="83" y="295" type="line"/>
      <point x="207" y="295" type="line"/>
    </contour>
  </outline>
</glyph>
<glyph name="cent" format="2">
  <advance width="591"/>
  <unicode hex="00A2"/>
  <outline>
    <contour>
      <point x="452" y="194" type="qcurve"/>
      <point x="573" y="128" type="line"/>
      <point x="548" y="72"/>
      <point x="443" y="2"/>
      <point x="373" y="-6" type="qcurve"/>
      <point x="373" y="-120" type="line"/>
      <point x="273" y="-120" type="line"/>
      <point x="273" y="-3" type="line"/>
      <point x="202" y="8"/>
      <point x="93" y="83"/>
      <point x="32" y="198"/>
      <point x="32" y="269" type="qcurve" smooth="yes"/>
      <point x="32" y="340"/>
      <point x="93" y="455"/>
      <point x="202" y="530"/>
      <point x="273" y="541" type="qcurve"/>
      <point x="273" y="658" type="line"/>
      <point x="373" y="658" type="line"/>
      <point x="373" y="544" type="line"/>
      <point x="444" y="536"/>
      <point x="548" y="466"/>
      <point x="573" y="409" type="qcurve"/>
      <point x="452" y="344" type="line"/>
      <point x="423" y="396"/>
      <point x="373" y="412" type="qcurve"/>
      <point x="373" y="126" type="line"/>
      <point x="424" y="143"/>
    </contour>
    <contour>
      <point x="235" y="147"/>
      <point x="273" y="131" type="qcurve"/>
      <point x="273" y="407" type="line"/>
      <point x="235" y="391"/>
      <point x="190" y="319"/>
      <point x="190" y="269" type="qcurve" smooth="yes"/>
      <point x="190" y="219"/>
    </contour>
  </outline>
</glyph>
<glyph name="sterling" format="2">
  <advance width="668"/>
  <unicode hex="00A3"/>
  <outline>
    <contour>
      <point x="293" y="130" type="line"/>
      <point x="636" y="130" type="line"/>
      <point x="636" y="0" type="line"/>
      <point x="30" y="0" type="line"/>
      <point x="30" y="130" type="line"/>
      <point x="130" y="130" type="line"/>
      <point x="130" y="302" type="line"/>
      <point x="30" y="302" type="line"/>
      <point x="30" y="399" type="line"/>
      <point x="130" y="399" type="line"/>
      <point x="130" y="425" type="line" smooth="yes"/>
      <point x="130" y="559"/>
      <point x="301" y="712"/>
      <point x="455" y="712" type="qcurve" smooth="yes"/>
      <point x="575" y="712"/>
      <point x="656" y="666" type="qcurve"/>
      <point x="607" y="538" type="line"/>
      <point x="547" y="574"/>
      <point x="457" y="574" type="qcurve" smooth="yes"/>
      <point x="377" y="574"/>
      <point x="293" y="500"/>
      <point x="293" y="428" type="qcurve" smooth="yes"/>
      <point x="293" y="399" type="line"/>
      <point x="533" y="399" type="line"/>
      <point x="533" y="302" type="line"/>
      <point x="293" y="302" type="line"/>
    </contour>
  </outline>
</glyph>
<glyph name="currency" format="2">
  <advance width="700"/>
  <unicode hex="00A4"/>
  <outline>
    <contour>
      <point x="573" y="184" type="qcurve"/>
      <point x="674" y="83" type="line"/>
      <point x="587" y="-8" type="line"/>
      <point x="481" y="97" type="line"/>
      <point x="421" y="62"/>
      <point x="350" y="62" type="qcurve" smooth="yes"/>
      <point x="280" y="62"/>
      <point x="218" y="97" type="qcurve"/>
      <point x="112" y="-8" type="line"/>
      <point x="25" y="83" type="line"/>
      <point x="127" y="185" type="line"/>
      <point x="87" y="245"/>
      <point x="87" y="321" type="qcurve" smooth="yes"/>
      <point x="87" y="393"/>
      <point x="124" y="453" type="qcurve"/>
      <point x="25" y="552" type="line"/>
      <point x="112" y="643" type="line"/>
      <point x="213" y="543" type="line"/>
      <point x="276" y="581"/>
      <point x="350" y="581" type="qcurve" smooth="yes"/>
      <point x="424" y="581"/>
      <point x="486" y="543" type="qcurve"/>
      <point x="587" y="643" type="line"/>
      <point x="674" y="552" type="line"/>
      <point x="576" y="454" type="line"/>
      <point x="613" y="391"/>
      <point x="613" y="321" type="qcurve" smooth="yes"/>
      <point x="613" y="248"/>
    </contour>
    <contour>
      <point x="453" y="222"/>
      <point x="491" y="284"/>
      <point x="491" y="321" type="qcurve" smooth="yes"/>
      <point x="491" y="358"/>
      <point x="453" y="420"/>
      <point x="388" y="457"/>
      <point x="350" y="457" type="qcurve" smooth="yes"/>
      <point x="312" y="457"/>
      <point x="247" y="420"/>
      <point x="210" y="358"/>
      <point x="210" y="321" type="qcurve" smooth="yes"/>
      <point x="210" y="284"/>
      <point x="247" y="222"/>
      <point x="312" y="185"/>
      <point x="350" y="185" type="qcurve" smooth="yes"/>
      <point x="388" y="185"/>
    </contour>
  </outline>
</glyph>
<glyph name="yen" format="2">
  <advance width="736"/>
  <unicode hex="00A5"/>
  <outline>
    <contour>
      <point x="486" y="311" type="line"/>
      <point x="636" y="311" type="line"/>
      <point x="636" y="228" type="line"/>
      <point x="449" y="228" type="line"/>
      <point x="449" y="173" type="line"/>
      <point x="636" y="173" type="line"/>
      <point x="636" y="90" type="line"/>
      <point x="449" y="90" type="line"/>
      <point x="449" y="0" type="line"/>
      <point x="287" y="0" type="line"/>
      <point x="287" y="90" type="line"/>
      <point x="100" y="90" type="line"/>
      <point x="100" y="173" type="line"/>
      <point x="287" y="173" type="line"/>
      <point x="287" y="228" type="line"/>
      <point x="100" y="228" type="line"/>
      <point x="100" y="311" type="line"/>
      <point x="251" y="311" type="line"/>
      <point x="-14" y="700" type="line"/>
      <point x="159" y="700" type="line"/>
      <point x="373" y="387" type="line"/>
      <point x="589" y="700" type="line"/>
      <point x="751" y="700" type="line"/>
    </contour>
  </outline>
</glyph>
<glyph name="brokenbar" format="2">
  <advance width="309"/>
  <unicode hex="00A6"/>
  <outline>
    <contour>
      <point x="83" y="742" type="line"/>
      <point x="226" y="742" type="line"/>
      <point x="226" y="392" type="line"/>
      <point x="83" y="392" type="line"/>
    </contour>
    <contour>
      <point x="83" y="156" type="line"/>
      <point x="226" y="156" type="line"/>
      <point x="226" y="-194" type="line"/>
      <point x="83" y="-194" type="line"/>
    </contour>
  </outline>
</glyph>
<glyph name="section" format="2">
  <advance width="522"/>
  <unicode hex="00A7"/>
  <outline>
    <contour>
      <point x="460" y="199"/>
      <point x="429" y="176" type="qcurve"/>
      <point x="474" y="138"/>
      <point x="474" y="70" type="qcurve" smooth="yes"/>
      <point x="474" y="18"/>
      <point x="419" y="-62"/>
      <point x="314" y="-108"/>
      <point x="243" y="-108" type="qcurve" smooth="yes"/>
      <point x="182" y="-108"/>
      <point x="57" y="-75"/>
      <point x="21" y="-49" type="qcurve"/>
      <point x="67" y="61" type="line"/>
      <point x="102" y="36"/>
      <point x="199" y="6"/>
      <point x="245" y="6" type="qcurve" smooth="yes"/>
      <point x="288" y="6"/>
      <point x="336" y="38"/>
      <point x="336" y="65" type="qcurve" smooth="yes"/>
      <point x="336" y="94"/>
      <point x="280" y="121"/>
      <point x="221" y="133" type="qcurve" smooth="yes"/>
      <point x="160" y="147"/>
      <point x="83" y="176"/>
      <point x="28" y="240"/>
      <point x="28" y="296" type="qcurve" smooth="yes"/>
      <point x="28" y="377"/>
      <point x="92" y="425" type="qcurve"/>
      <point x="49" y="463"/>
      <point x="49" y="529" type="qcurve" smooth="yes"/>
      <point x="49" y="610"/>
      <point x="181" y="708"/>
      <point x="302" y="708" type="qcurve" smooth="yes"/>
      <point x="351" y="708"/>
      <point x="468" y="682"/>
      <point x="502" y="660" type="qcurve"/>
      <point x="457" y="551" type="line"/>
      <point x="387" y="594"/>
      <point x="293" y="594" type="qcurve" smooth="yes"/>
      <point x="239" y="594"/>
      <point x="187" y="563"/>
      <point x="187" y="535" type="qcurve" smooth="yes"/>
      <point x="187" y="509"/>
      <point x="238" y="485"/>
      <point x="295" y="471" type="qcurve" smooth="yes"/>
      <point x="355" y="457"/>
      <point x="435" y="426"/>
      <point x="493" y="357"/>
      <point x="493" y="298" type="qcurve" smooth="yes"/>
      <point x="493" y="262"/>
    </contour>
    <contour>
      <point x="220" y="248"/>
      <point x="281" y="235" type="qcurve" smooth="yes"/>
      <point x="310" y="228" type="line"/>
      <point x="332" y="238"/>
      <point x="358" y="272"/>
      <point x="358" y="294" type="qcurve" smooth="yes"/>
      <point x="358" y="324"/>
      <point x="301" y="352"/>
      <point x="240" y="367" type="qcurve" smooth="yes"/>
      <point x="212" y="373" type="line"/>
      <point x="189" y="363"/>
      <point x="163" y="328"/>
      <point x="163" y="307" type="qcurve" smooth="yes"/>
      <point x="163" y="276"/>
    </contour>
  </outline>
</glyph>
<glyph name="copyright" format="2">
  <advance width="785"/>
  <unicode hex="00A9"/>
  <outline>
    <contour>
      <point x="132" y="91"/>
      <point x="39" y="253"/>
      <point x="39" y="350" type="qcurve" smooth="yes"/>
      <point x="39" y="447"/>
      <point x="132" y="609"/>
      <point x="294" y="703"/>
      <point x="393" y="703" type="qcurve" smooth="yes"/>
      <point x="492" y="703"/>
      <point x="653" y="611"/>
      <point x="745" y="450"/>
      <point x="745" y="352" type="qcurve" smooth="yes"/>
      <point x="745" y="254"/>
      <point x="651" y="91"/>
      <point x="489" y="-3"/>
      <point x="391" y="-3" type="qcurve" smooth="yes"/>
      <point x="293" y="-3"/>
    </contour>
    <contour>
      <point x="602" y="139"/>
      <point x="677" y="272"/>
      <point x="677" y="352" type="qcurve" smooth="yes"/>
      <point x="677" y="433"/>
      <point x="604" y="563"/>
      <point x="474" y="638"/>
      <point x="393" y="638" type="qcurve" smooth="yes"/>
      <point x="312" y="638"/>
      <point x="182" y="562"/>
      <point x="108" y="430"/>
      <point x="108" y="350" type="qcurve" smooth="yes"/>
      <point x="108" y="270"/>
      <point x="182" y="138"/>
      <point x="311" y="62"/>
      <point x="391" y="62" type="qcurve" smooth="yes"/>
      <point x="471" y="62"/>
    </contour>
    <contour>
      <point x="246" y="200"/>
      <point x="191" y="292"/>
      <point x="191" y="350" type="qcurve" smooth="yes"/>
      <point x="191" y="408"/>
      <point x="246" y="500"/>
      <point x="343" y="552"/>
      <point x="404" y="552" type="qcurve" smooth="yes"/>
      <point x="463" y="552"/>
      <point x="553" y="501"/>
      <point x="575" y="457" type="qcurve"/>
      <point x="485" y="404" type="line"/>
      <point x="458" y="451"/>
      <point x="403" y="451" type="qcurve" smooth="yes"/>
      <point x="363" y="451"/>
      <point x="308" y="396"/>
      <point x="308" y="350" type="qcurve" smooth="yes"/>
      <point x="308" y="304"/>
      <point x="363" y="249"/>
      <point x="403" y="249" type="qcurve" smooth="yes"/>
      <point x="458" y="249"/>
      <point x="485" y="296" type="qcurve"/>
      <point x="575" y="244" type="line"/>
      <point x="553" y="199"/>
      <point x="463" y="148"/>
      <point x="404" y="148" type="qcurve" smooth="yes"/>
      <point x="343" y="148"/>
    </contour>
  </outline>
</glyph>
<glyph name="ordfeminine" format="2">
  <advance width="412"/>
  <unicode hex="00AA"/>
  <outline>
    <contour>
      <point x="361" y="678"/>
      <point x="361" y="606" type="qcurve" smooth="yes"/>
      <point x="361" y="424" type="line"/>
      <point x="261" y="424" type="line"/>
      <point x="261" y="463" type="line"/>
      <point x="248" y="442"/>
      <point x="194" y="419"/>
      <point x="156" y="419" type="qcurve" smooth="yes"/>
      <point x="95" y="419"/>
      <point x="28" y="474"/>
      <point x="28" y="517" type="qcurve" smooth="yes"/>
      <point x="28" y="562"/>
      <point x="100" y="613"/>
      <point x="175" y="613" type="qcurve" smooth="yes"/>
      <point x="253" y="613" type="line"/>
      <point x="252" y="672"/>
      <point x="176" y="672" type="qcurve" smooth="yes"/>
      <point x="150" y="672"/>
      <point x="96" y="655"/>
      <point x="77" y="641" type="qcurve"/>
      <point x="40" y="709" type="line"/>
      <point x="68" y="728"/>
      <point x="150" y="750"/>
      <point x="191" y="750" type="qcurve" smooth="yes"/>
      <point x="274" y="750"/>
    </contour>
    <contour>
      <point x="253" y="523" type="qcurve"/>
      <point x="253" y="556" type="line"/>
      <point x="191" y="556" type="line" smooth="yes"/>
      <point x="130" y="556"/>
      <point x="130" y="521" type="qcurve" smooth="yes"/>
      <point x="130" y="504"/>
      <point x="159" y="486"/>
      <point x="184" y="486" type="qcurve" smooth="yes"/>
      <point x="235" y="486"/>
    </contour>
  </outline>
</glyph>
<glyph name="logicalnot" format="2">
  <advance width="599"/>
  <unicode hex="00AC"/>
  <outline>
    <contour>
      <point x="538" y="115" type="line"/>
      <point x="409" y="115" type="line"/>
      <point x="409" y="290" type="line"/>
      <point x="62" y="290" type="line"/>
      <point x="62" y="411" type="line"/>
      <point x="538" y="411" type="line"/>
    </contour>
  </outline>
</glyph>
<glyph name="registered" format="2">
  <advance width="785"/>
  <unicode hex="00AE"/>
  <outline>
    <contour>
      <point x="653" y="611"/>
      <point x="745" y="450"/>
      <point x="745" y="352" type="qcurve" smooth="yes"/>
      <point x="745" y="254"/>
      <point x="651" y="91"/>
      <point x="489" y="-3"/>
      <point x="391" y="-3" type="qcurve" smooth="yes"/>
      <point x="293" y="-3"/>
      <point x="132" y="91"/>
      <point x="39" y="253"/>
      <point x="39" y="350" type="qcurve" smooth="yes"/>
      <point x="39" y="447"/>
      <point x="132" y="609"/>
      <point x="294" y="703"/>
      <point x="393" y="703" type="qcurve" smooth="yes"/>
      <point x="492" y="703"/>
    </contour>
    <contour>
      <point x="602" y="139"/>
      <point x="677" y="272"/>
      <point x="677" y="352" type="qcurve" smooth="yes"/>
      <point x="677" y="433"/>
      <point x="604" y="563"/>
      <point x="474" y="638"/>
      <point x="393" y="638" type="qcurve" smooth="yes"/>
      <point x="312" y="638"/>
      <point x="182" y="562"/>
      <point x="108" y="430"/>
      <point x="108" y="350" type="qcurve" smooth="yes"/>
      <point x="108" y="270"/>
      <point x="182" y="138"/>
      <point x="311" y="62"/>
      <point x="391" y="62" type="qcurve" smooth="yes"/>
      <point x="471" y="62"/>
    </contour>
    <contour>
      <point x="540" y="303"/>
      <point x="504" y="286" type="qcurve"/>
      <point x="589" y="156" type="line"/>
      <point x="485" y="156" type="line"/>
      <point x="412" y="268" type="line"/>
      <point x="408" y="268" type="line"/>
      <point x="343" y="268" type="line"/>
      <point x="343" y="156" type="line"/>
      <point x="239" y="156" type="line"/>
      <point x="239" y="544" type="line"/>
      <point x="408" y="544" type="line" smooth="yes"/>
      <point x="487" y="544"/>
      <point x="577" y="469"/>
      <point x="577" y="406" type="qcurve" smooth="yes"/>
      <point x="577" y="364"/>
    </contour>
    <contour>
      <point x="401" y="346" type="line" smooth="yes"/>
      <point x="436" y="346"/>
      <point x="475" y="377"/>
      <point x="475" y="406" type="qcurve" smooth="yes"/>
      <point x="475" y="435"/>
      <point x="436" y="467"/>
      <point x="401" y="467" type="qcurve" smooth="yes"/>
      <point x="342" y="467" type="line"/>
      <point x="342" y="346" type="line"/>
    </contour>
  </outline>
</glyph>
<glyph name="degree" format="2">
  <advance width="418"/>
  <unicode hex="00B0"/>
  <outline>
    <contour>
      <point x="80" y="411"/>
      <point x="33" y="490"/>
      <point x="33" y="537" type="qcurve" smooth="yes"/>
      <point x="33" y="584"/>
      <point x="80" y="663"/>
      <point x="161" y="709"/>
      <point x="209" y="709" type="qcurve" smooth="yes"/>
      <point x="257" y="709"/>
      <point x="337" y="663"/>
      <point x="384" y="584"/>
      <point x="384" y="537" type="qcurve" smooth="yes"/>
      <point x="384" y="490"/>
      <point x="337" y="411"/>
      <point x="257" y="366"/>
      <point x="209" y="366" type="qcurve" smooth="yes"/>
      <point x="161" y="366"/>
    </contour>
    <contour>
      <point x="302" y="497"/>
      <point x="302" y="537" type="qcurve" smooth="yes"/>
      <point x="302" y="577"/>
      <point x="249" y="631"/>
      <point x="209" y="631" type="qcurve" smooth="yes"/>
      <point x="169" y="631"/>
      <point x="116" y="577"/>
      <point x="116" y="537" type="qcurve" smooth="yes"/>
      <point x="116" y="497"/>
      <point x="169" y="443"/>
      <point x="209" y="443" type="qcurve" smooth="yes"/>
      <point x="249" y="443"/>
    </contour>
  </outline>
</glyph>
<glyph name="plusminus" format="2">
  <advance width="599"/>
  <unicode hex="00B1"/>
  <outline>
    <contour>
      <point x="538" y="490" type="line"/>
      <point x="538" y="372" type="line"/>
      <point x="364" y="372" type="line"/>
      <point x="364" y="208" type="line"/>
      <point x="235" y="208" type="line"/>
      <point x="235" y="372" type="line"/>
      <point x="62" y="372" type="line"/>
      <point x="62" y="490" type="line"/>
      <point x="235" y="490" type="line"/>
      <point x="235" y="654" type="line"/>
      <point x="364" y="654" type="line"/>
      <point x="364" y="490" type="line"/>
    </contour>
    <contour>
      <point x="62" y="122" type="line"/>
      <point x="538" y="122" type="line"/>
      <point x="538" y="0" type="line"/>
      <point x="62" y="0" type="line"/>
    </contour>
  </outline>
</glyph>
<glyph name="paragraph" format="2">
  <advance width="686"/>
  <unicode hex="00B6"/>
  <outline>
    <contour>
      <point x="228" y="360" type="line"/>
      <point x="166" y="361"/>
      <point x="69" y="408"/>
      <point x="14" y="494"/>
      <point x="14" y="551" type="qcurve" smooth="yes"/>
      <point x="14" y="609"/>
      <point x="73" y="695"/>
      <point x="182" y="742"/>
      <point x="254" y="742" type="qcurve" smooth="yes"/>
      <point x="603" y="742" type="line"/>
      <point x="603" y="-100" type="line"/>
      <point x="476" y="-100" type="line"/>
      <point x="476" y="629" type="line"/>
      <point x="355" y="629" type="line"/>
      <point x="355" y="-100" type="line"/>
      <point x="228" y="-100" type="line"/>
    </contour>
  </outline>
</glyph>
<glyph name="periodcentered" format="2">
  <advance width="302"/>
  <unicode hex="00B7"/>
  <outline>
    <contour>
      <point x="54" y="238"/>
      <point x="54" y="282" type="qcurve" smooth="yes"/>
      <point x="54" y="326"/>
      <point x="108" y="379"/>
      <point x="151" y="379" type="qcurve" smooth="yes"/>
      <point x="194" y="379"/>
      <point x="248" y="326"/>
      <point x="248" y="282" type="qcurve" smooth="yes"/>
      <point x="248" y="238"/>
      <point x="194" y="184"/>
      <point x="151" y="184" type="qcurve" smooth="yes"/>
      <point x="109" y="184"/>
    </contour>
  </outline>
</glyph>
<glyph name="ordmasculine" format="2">
  <advance width="427"/>
  <unicode hex="00BA"/>
  <outline>
    <contour>
      <point x="73" y="462"/>
      <point x="24" y="537"/>
      <point x="24" y="585" type="qcurve" smooth="yes"/>
      <point x="24" y="632"/>
      <point x="73" y="708"/>
      <point x="160" y="750"/>
      <point x="214" y="750" type="qcurve" smooth="yes"/>
      <point x="268" y="750"/>
      <point x="354" y="708"/>
      <point x="403" y="632"/>
      <point x="403" y="585" type="qcurve" smooth="yes"/>
      <point x="403" y="537"/>
      <point x="354" y="461"/>
      <point x="268" y="419"/>
      <point x="214" y="419" type="qcurve" smooth="yes"/>
      <point x="160" y="419"/>
    </contour>
    <contour>
      <point x="297" y="547"/>
      <point x="297" y="585" type="qcurve" smooth="yes"/>
      <point x="297" y="623"/>
      <point x="251" y="667"/>
      <point x="214" y="667" type="qcurve" smooth="yes"/>
      <point x="177" y="667"/>
      <point x="130" y="623"/>
      <point x="130" y="585" type="qcurve" smooth="yes"/>
      <point x="130" y="547"/>
      <point x="177" y="502"/>
      <point x="214" y="502" type="qcurve" smooth="yes"/>
      <point x="251" y="502"/>
    </contour>
  </outline>
</glyph>
<glyph name="questiondown" format="2">
  <advance width="589"/>
  <unicode hex="00BF"/>
  <outline>
    <contour>
      <point x="200" y="416"/>
      <point x="200" y="455" type="qcurve" smooth="yes"/>
      <point x="200" y="493"/>
      <point x="254" y="546"/>
      <point x="295" y="546" type="qcurve" smooth="yes"/>
      <point x="337" y="546"/>
      <point x="391" y="493"/>
      <point x="391" y="455" type="qcurve" smooth="yes"/>
      <point x="391" y="416"/>
      <point x="337" y="365"/>
      <point x="295" y="365" type="qcurve" smooth="yes"/>
      <point x="253" y="365"/>
    </contour>
    <contour>
      <point x="52" y="-68"/>
      <point x="52" y="17" type="qcurve" smooth="yes"/>
      <point x="52" y="57"/>
      <point x="80" y="118"/>
      <point x="118" y="159"/>
      <point x="149" y="187" type="qcurve" smooth="yes"/>
      <point x="185" y="218"/>
      <point x="220" y="264"/>
      <point x="220" y="295" type="qcurve"/>
      <point x="371" y="295" type="line"/>
      <point x="371" y="244"/>
      <point x="324" y="175"/>
      <point x="280" y="137" type="qcurve" smooth="yes"/>
      <point x="247" y="107"/>
      <point x="216" y="66"/>
      <point x="216" y="40" type="qcurve" smooth="yes"/>
      <point x="216" y="7"/>
      <point x="275" y="-34"/>
      <point x="323" y="-34" type="qcurve" smooth="yes"/>
      <point x="370" y="-34"/>
      <point x="444" y="4"/>
      <point x="468" y="40" type="qcurve"/>
      <point x="589" y="-31" type="line"/>
      <point x="547" y="-95"/>
      <point x="405" y="-165"/>
      <point x="306" y="-165" type="qcurve" smooth="yes"/>
      <point x="191" y="-165"/>
    </contour>
  </outline>
</glyph>
<glyph name="AE" format="2">
  <advance width="1080"/>
  <unicode hex="00C6"/>
  <anchor x="0" y="0" name="Anchor-17"/>
  <anchor x="0" y="0" name="Anchor-16"/>
  <anchor x="0" y="0" name="Anchor-15"/>
  <anchor x="572" y="700" name="Anchor-14"/>
  <anchor x="0" y="0" name="Anchor-13"/>
  <anchor x="572" y="0" name="Anchor-12"/>
  <outline>
    <contour>
      <point x="1034" y="130" type="line"/>
      <point x="1034" y="0" type="line"/>
      <point x="492" y="0" type="line"/>
      <point x="492" y="150" type="line"/>
      <point x="239" y="150" type="line"/>
      <point x="157" y="0" type="line"/>
      <point x="-9" y="0" type="line"/>
      <point x="386" y="700" type="line"/>
      <point x="1021" y="700" type="line"/>
      <point x="1021" y="570" type="line"/>
      <point x="653" y="570" type="line"/>
      <point x="653" y="418" type="line"/>
      <point x="979" y="418" type="line"/>
      <point x="979" y="292" type="line"/>
      <point x="653" y="292" type="line"/>
      <point x="653" y="130" type="line"/>
    </contour>
    <contour>
      <point x="492" y="273" type="line"/>
      <point x="492" y="570" type="line"/>
      <point x="469" y="570" type="line"/>
      <point x="306" y="273" type="line"/>
    </contour>
  </outline>
</glyph>
<glyph name="multiply" format="2">
  <advance width="599"/>
  <unicode hex="00D7"/>
  <outline>
    <contour>
      <point x="386" y="350" type="line"/>
      <point x="510" y="225" type="line"/>
      <point x="426" y="137" type="line"/>
      <point x="300" y="264" type="line"/>
      <point x="174" y="137" type="line"/>
      <point x="90" y="225" type="line"/>
      <point x="214" y="350" type="line"/>
      <point x="90" y="475" type="line"/>
      <point x="174" y="563" type="line"/>
      <point x="300" y="436" type="line"/>
      <point x="426" y="563" type="line"/>
      <point x="510" y="475" type="line"/>
    </contour>
  </outline>
</glyph>
<glyph name="Thorn" format="2">
  <advance width="732"/>
  <unicode hex="00DE"/>
  <outline>
    <contour>
      <point x="616" y="561"/>
      <point x="690" y="447"/>
      <point x="690" y="369" type="qcurve" smooth="yes"/>
      <point x="690" y="291"/>
      <point x="616" y="177"/>
      <point x="479" y="115"/>
      <point x="386" y="115" type="qcurve" smooth="yes"/>
      <point x="245" y="115" type="line"/>
      <point x="245" y="0" type="line"/>
      <point x="83" y="0" type="line"/>
      <point x="83" y="700" type="line"/>
      <point x="245" y="700" type="line"/>
      <point x="245" y="623" type="line"/>
      <point x="386" y="623" type="line" smooth="yes"/>
      <point x="479" y="623"/>
    </contour>
    <contour>
      <point x="526" y="310"/>
      <point x="526" y="369" type="qcurve" smooth="yes"/>
      <point x="526" y="428"/>
      <point x="450" y="491"/>
      <point x="377" y="491" type="qcurve" smooth="yes"/>
      <point x="245" y="491" type="line"/>
      <point x="245" y="247" type="line"/>
      <point x="377" y="247" type="line" smooth="yes"/>
      <point x="450" y="247"/>
    </contour>
  </outline>
</glyph>
<glyph name="germandbls" format="2">
  <advance width="693"/>
  <unicode hex="00DF"/>
  <outline>
    <contour>
      <point x="661" y="276"/>
      <point x="661" y="207" type="qcurve" smooth="yes"/>
      <point x="661" y="107"/>
      <point x="523" y="-8"/>
      <point x="409" y="-8" type="qcurve" smooth="yes"/>
      <point x="378" y="-8"/>
      <point x="313" y="1"/>
      <point x="291" y="8" type="qcurve"/>
      <point x="309" y="132" type="line"/>
      <point x="347" y="120"/>
      <point x="393" y="120" type="qcurve" smooth="yes"/>
      <point x="444" y="120"/>
      <point x="503" y="167"/>
      <point x="503" y="211" type="qcurve" smooth="yes"/>
      <point x="503" y="255"/>
      <point x="439" y="302"/>
      <point x="382" y="302" type="qcurve" smooth="yes"/>
      <point x="328" y="302" type="line"/>
      <point x="328" y="425" type="line"/>
      <point x="384" y="426"/>
      <point x="450" y="483"/>
      <point x="450" y="530" type="qcurve" smooth="yes"/>
      <point x="450" y="572"/>
      <point x="394" y="623"/>
      <point x="345" y="623" type="qcurve" smooth="yes"/>
      <point x="290" y="623"/>
      <point x="228" y="560"/>
      <point x="228" y="502" type="qcurve" smooth="yes"/>
      <point x="228" y="0" type="line"/>
      <point x="72" y="0" type="line"/>
      <point x="72" y="483" type="line" smooth="yes"/>
      <point x="72" y="569"/>
      <point x="144" y="689"/>
      <point x="267" y="750"/>
      <point x="345" y="750" type="qcurve" smooth="yes"/>
      <point x="423" y="750"/>
      <point x="539" y="695"/>
      <point x="600" y="600"/>
      <point x="600" y="541" type="qcurve" smooth="yes"/>
      <point x="600" y="495"/>
      <point x="559" y="419"/>
      <point x="524" y="392" type="qcurve"/>
      <point x="589" y="370"/>
    </contour>
  </outline>
</glyph>
<glyph name="ae" format="2">
  <advance width="996"/>
  <unicode hex="00E6"/>
  <anchor x="0" y="0" name="Anchor-17"/>
  <anchor x="0" y="0" name="Anchor-16"/>
  <anchor x="0" y="0" name="Anchor-15"/>
  <anchor x="470" y="538" name="Anchor-14"/>
  <anchor x="0" y="0" name="Anchor-13"/>
  <anchor x="476" y="0" name="Anchor-12"/>
  <outline>
    <contour>
      <point x="960" y="226" type="qcurve"/>
      <point x="552" y="226" type="line"/>
      <point x="563" y="175"/>
      <point x="643" y="117"/>
      <point x="705" y="117" type="qcurve" smooth="yes"/>
      <point x="783" y="117"/>
      <point x="841" y="169" type="qcurve"/>
      <point x="924" y="79" type="line"/>
      <point x="885" y="36"/>
      <point x="772" y="-8"/>
      <point x="702" y="-8" type="qcurve" smooth="yes"/>
      <point x="631" y="-8"/>
      <point x="511" y="38"/>
      <point x="469" y="85" type="qcurve"/>
      <point x="407" y="-8"/>
      <point x="263" y="-8" type="qcurve" smooth="yes"/>
      <point x="158" y="-8"/>
      <point x="37" y="84"/>
      <point x="37" y="161" type="qcurve" smooth="yes"/>
      <point x="37" y="231"/>
      <point x="151" y="317"/>
      <point x="268" y="317" type="qcurve" smooth="yes"/>
      <point x="392" y="317" type="line"/>
      <point x="392" y="367"/>
      <point x="330" y="422"/>
      <point x="269" y="422" type="qcurve" smooth="yes"/>
      <point x="226" y="422"/>
      <point x="142" y="395"/>
      <point x="113" y="372" type="qcurve"/>
      <point x="57" y="481" type="line"/>
      <point x="101" y="512"/>
      <point x="223" y="546"/>
      <point x="288" y="546" type="qcurve" smooth="yes"/>
      <point x="424" y="546"/>
      <point x="486" y="470" type="qcurve"/>
      <point x="523" y="506"/>
      <point x="625" y="546"/>
      <point x="684" y="546" type="qcurve" smooth="yes"/>
      <point x="761" y="546"/>
      <point x="889" y="478"/>
      <point x="963" y="352"/>
      <point x="963" y="271" type="qcurve" smooth="yes"/>
      <point x="963" y="246"/>
    </contour>
    <contour>
      <point x="559" y="370"/>
      <point x="550" y="317" type="qcurve"/>
      <point x="812" y="317" type="line"/>
      <point x="804" y="370"/>
      <point x="731" y="428"/>
      <point x="682" y="428" type="qcurve" smooth="yes"/>
      <point x="633" y="428"/>
    </contour>
    <contour>
      <point x="392" y="153"/>
      <point x="392" y="201" type="qcurve" smooth="yes"/>
      <point x="392" y="226" type="line"/>
      <point x="285" y="226" type="line" smooth="yes"/>
      <point x="189" y="226"/>
      <point x="189" y="164" type="qcurve" smooth="yes"/>
      <point x="189" y="132"/>
      <point x="236" y="97"/>
      <point x="279" y="97" type="qcurve" smooth="yes"/>
      <point x="332" y="97"/>
    </contour>
  </outline>
</glyph>
<glyph name="eth" format="2">
  <advance width="657"/>
  <unicode hex="00F0"/>
  <outline>
    <contour>
      <point x="624" y="342" type="qcurve" smooth="yes"/>
      <point x="624" y="232"/>
      <point x="546" y="73"/>
      <point x="401" y="-12"/>
      <point x="302" y="-12" type="qcurve" smooth="yes"/>
      <point x="226" y="-12"/>
      <point x="103" y="46"/>
      <point x="32" y="152"/>
      <point x="32" y="221" type="qcurve" smooth="yes"/>
      <point x="32" y="288"/>
      <point x="99" y="390"/>
      <point x="215" y="446"/>
      <point x="286" y="446" type="qcurve" smooth="yes"/>
      <point x="401" y="446"/>
      <point x="462" y="374" type="qcurve"/>
      <point x="462" y="376" type="line" smooth="yes"/>
      <point x="462" y="497"/>
      <point x="404" y="560" type="qcurve"/>
      <point x="151" y="463" type="line"/>
      <point x="119" y="542" type="line"/>
      <point x="306" y="614" type="line"/>
      <point x="277" y="621"/>
      <point x="237" y="621" type="qcurve" smooth="yes"/>
      <point x="165" y="621"/>
      <point x="102" y="600" type="qcurve"/>
      <point x="83" y="721" type="line"/>
      <point x="161" y="741"/>
      <point x="243" y="741" type="qcurve" smooth="yes"/>
      <point x="382" y="741"/>
      <point x="475" y="678" type="qcurve"/>
      <point x="565" y="713" type="line"/>
      <point x="597" y="634" type="line"/>
      <point x="544" y="614" type="line"/>
      <point x="624" y="512"/>
    </contour>
    <contour>
      <point x="442" y="171"/>
      <point x="442" y="217" type="qcurve" smooth="yes"/>
      <point x="442" y="264"/>
      <point x="371" y="325"/>
      <point x="317" y="325" type="qcurve" smooth="yes"/>
      <point x="259" y="325"/>
      <point x="191" y="267"/>
      <point x="191" y="217" type="qcurve" smooth="yes"/>
      <point x="191" y="168"/>
      <point x="259" y="109"/>
      <point x="314" y="109" type="qcurve" smooth="yes"/>
      <point x="371" y="109"/>
    </contour>
  </outline>
</glyph>
<glyph name="divide" format="2">
  <advance width="599"/>
  <unicode hex="00F7"/>
  <outline>
    <contour>
      <point x="217" y="523"/>
      <point x="217" y="559" type="qcurve" smooth="yes"/>
      <point x="217" y="595"/>
      <point x="265" y="641"/>
      <point x="300" y="641" type="qcurve" smooth="yes"/>
      <point x="335" y="641"/>
      <point x="383" y="595"/>
      <point x="383" y="559" type="qcurve" smooth="yes"/>
      <point x="383" y="523"/>
      <point x="335" y="475"/>
      <point x="300" y="475" type="qcurve" smooth="yes"/>
      <point x="265" y="475"/>
    </contour>
    <contour>
      <point x="62" y="411" type="line"/>
      <point x="538" y="411" type="line"/>
      <point x="538" y="289" type="line"/>
      <point x="62" y="289" type="line"/>
    </contour>
    <contour>
      <point x="217" y="107"/>
      <point x="217" y="143" type="qcurve" smooth="yes"/>
      <point x="217" y="179"/>
      <point x="265" y="225"/>
      <point x="300" y="225" type="qcurve" smooth="yes"/>
      <point x="335" y="225"/>
      <point x="383" y="179"/>
      <point x="383" y="143" type="qcurve" smooth="yes"/>
      <point x="383" y="107"/>
      <point x="335" y="59"/>
      <point x="300" y="59" type="qcurve" smooth="yes"/>
      <point x="265" y="59"/>
    </contour>
  </outline>
</glyph>
<glyph name="thorn" format="2">
  <advance width="690"/>
  <unicode hex="00FE"/>
  <anchor x="0" y="0" name="Anchor-17"/>
  <anchor x="0" y="0" name="Anchor-16"/>
  <anchor x="0" y="0" name="Anchor-15"/>
  <anchor x="396" y="538" name="Anchor-14"/>
  <anchor x="0" y="0" name="Anchor-13"/>
  <anchor x="396" y="0" name="Anchor-12"/>
  <outline>
    <contour>
      <point x="588" y="477"/>
      <point x="658" y="352"/>
      <point x="658" y="269" type="qcurve" smooth="yes"/>
      <point x="658" y="186"/>
      <point x="588" y="61"/>
      <point x="465" y="-8"/>
      <point x="390" y="-8" type="qcurve" smooth="yes"/>
      <point x="287" y="-8"/>
      <point x="228" y="57" type="qcurve"/>
      <point x="228" y="-194" type="line"/>
      <point x="72" y="-194" type="line"/>
      <point x="72" y="742" type="line"/>
      <point x="228" y="742" type="line"/>
      <point x="228" y="484" type="line"/>
      <point x="286" y="546"/>
      <point x="390" y="546" type="qcurve" smooth="yes"/>
      <point x="465" y="546"/>
    </contour>
    <contour>
      <point x="500" y="201"/>
      <point x="500" y="269" type="qcurve" smooth="yes"/>
      <point x="500" y="337"/>
      <point x="423" y="418"/>
      <point x="363" y="418" type="qcurve" smooth="yes"/>
      <point x="303" y="418"/>
      <point x="226" y="337"/>
      <point x="226" y="269" type="qcurve" smooth="yes"/>
      <point x="226" y="201"/>
      <point x="303" y="120"/>
      <point x="363" y="120" type="qcurve" smooth="yes"/>
      <point x="423" y="120"/>
    </contour>
  </outline>
</glyph>
<glyph name="eogonek" format="2">
  <advance width="631"/>
  <unicode hex="0119"/>
  <anchor x="0" y="0" name="Anchor-17"/>
  <anchor x="0" y="0" name="Anchor-16"/>
  <anchor x="0" y="0" name="Anchor-15"/>
  <anchor x="325" y="538" name="Anchor-14"/>
  <anchor x="0" y="0" name="Anchor-13"/>
  <anchor x="325" y="0" name="Anchor-12"/>
  <outline>
    <contour>
      <point x="596" y="225" type="qcurve"/>
      <point x="189" y="225" type="line"/>
      <point x="200" y="175"/>
      <point x="282" y="117"/>
      <point x="343" y="117" type="qcurve" smooth="yes"/>
      <point x="385" y="117"/>
      <point x="450" y="142"/>
      <point x="478" y="169" type="qcurve"/>
      <point x="562" y="79" type="line"/>
      <point x="542" y="58"/>
      <point x="521" y="43" type="qcurve" smooth="yes"/>
      <point x="458" y="-3"/>
      <point x="410" y="-71"/>
      <point x="410" y="-102" type="qcurve" smooth="yes"/>
      <point x="410" y="-126"/>
      <point x="441" y="-153"/>
      <point x="468" y="-153" type="qcurve" smooth="yes"/>
      <point x="500" y="-153"/>
      <point x="527" y="-138" type="qcurve"/>
      <point x="550" y="-209" type="line"/>
      <point x="531" y="-219"/>
      <point x="476" y="-232"/>
      <point x="449" y="-232" type="qcurve" smooth="yes"/>
      <point x="385" y="-232"/>
      <point x="311" y="-169"/>
      <point x="311" y="-116" type="qcurve" smooth="yes"/>
      <point x="311" y="-88"/>
      <point x="336" y="-31"/>
      <point x="360" y="-7" type="qcurve"/>
      <point x="353" y="-8"/>
      <point x="339" y="-8" type="qcurve" smooth="yes"/>
      <point x="248" y="-8"/>
      <point x="108" y="63"/>
      <point x="32" y="189"/>
      <point x="32" y="269" type="qcurve" smooth="yes"/>
      <point x="32" y="348"/>
      <point x="107" y="475"/>
      <point x="238" y="546"/>
      <point x="319" y="546" type="qcurve" smooth="yes"/>
      <point x="398" y="546"/>
      <point x="526" y="478"/>
      <point x="599" y="351"/>
      <point x="599" y="267" type="qcurve" smooth="yes"/>
      <point x="599" y="264"/>
    </contour>
    <contour>
      <point x="195" y="368"/>
      <point x="187" y="316" type="qcurve"/>
      <point x="452" y="316" type="line"/>
      <point x="444" y="367"/>
      <point x="372" y="428"/>
      <point x="320" y="428" type="qcurve" smooth="yes"/>
      <point x="267" y="428"/>
    </contour>
  </outline>
</glyph>
<glyph name="dotlessi" format="2">
  <advance width="301"/>
  <unicode hex="0131"/>
  <anchor x="0" y="0" name="Anchor-17"/>
  <anchor x="0" y="0" name="Anchor-16"/>
  <anchor x="0" y="0" name="Anchor-15"/>
  <anchor x="150" y="538" name="Anchor-14"/>
  <anchor x="228" y="0" name="Anchor-13"/>
  <anchor x="150" y="0" name="Anchor-12"/>
  <outline>
    <contour>
      <point x="72" y="538" type="line"/>
      <point x="228" y="538" type="line"/>
      <point x="228" y="0" type="line"/>
      <point x="72" y="0" type="line"/>
    </contour>
  </outline>
</glyph>
<glyph name="IJ" format="2">
  <advance width="724"/>
  <unicode hex="0132"/>
  <anchor x="0" y="0" name="Anchor-17"/>
  <anchor x="0" y="0" name="Anchor-16"/>
  <anchor x="0" y="0" name="Anchor-15"/>
  <anchor x="158" y="700" name="Anchor-14"/>
  <anchor x="0" y="0" name="Anchor-13"/>
  <anchor x="0" y="0" name="Anchor-12"/>
  <outline>
    <contour>
      <point x="113" y="29"/>
      <point x="61" y="65" type="qcurve"/>
      <point x="122" y="187" type="line"/>
      <point x="168" y="156"/>
      <point x="273" y="124"/>
      <point x="324" y="124" type="qcurve" smooth="yes"/>
      <point x="485" y="124"/>
      <point x="485" y="307" type="qcurve" smooth="yes"/>
      <point x="485" y="700" type="line"/>
      <point x="647" y="700" type="line"/>
      <point x="647" y="315" type="line" smooth="yes"/>
      <point x="647" y="210"/>
      <point x="568" y="63"/>
      <point x="424" y="-12"/>
      <point x="327" y="-12" type="qcurve" smooth="yes"/>
      <point x="250" y="-12"/>
    </contour>
    <contour>
      <point x="77" y="700" type="line"/>
      <point x="239" y="700" type="line"/>
      <point x="239" y="322" type="line"/>
      <point x="77" y="322" type="line"/>
    </contour>
  </outline>
</glyph>
<glyph name="kgreenlandic" format="2">
  <advance width="645"/>
  <unicode hex="0138"/>
  <anchor x="0" y="0" name="Anchor-17"/>
  <anchor x="0" y="0" name="Anchor-16"/>
  <anchor x="0" y="0" name="Anchor-15"/>
  <anchor x="304" y="538" name="Anchor-14"/>
  <anchor x="0" y="0" name="Anchor-13"/>
  <anchor x="304" y="0" name="Anchor-12"/>
  <outline>
    <contour>
      <point x="303" y="211" type="line"/>
      <point x="228" y="137" type="line"/>
      <point x="228" y="0" type="line"/>
      <point x="72" y="0" type="line"/>
      <point x="72" y="538" type="line"/>
      <point x="228" y="538" type="line"/>
      <point x="228" y="322" type="line"/>
      <point x="456" y="538" type="line"/>
      <point x="642" y="538" type="line"/>
      <point x="418" y="310" type="line"/>
      <point x="662" y="0" type="line"/>
      <point x="473" y="0" type="line"/>
    </contour>
  </outline>
</glyph>
<glyph name="Eng" format="2">
  <advance width="808"/>
  <unicode hex="014A"/>
  <outline>
    <contour>
      <point x="725" y="700" type="line"/>
      <point x="725" y="71" type="line" smooth="yes"/>
      <point x="725" y="-68"/>
      <point x="600" y="-202"/>
      <point x="476" y="-202" type="qcurve" smooth="yes"/>
      <point x="421" y="-202"/>
      <point x="325" y="-169"/>
      <point x="289" y="-136" type="qcurve"/>
      <point x="365" y="-23" type="line"/>
      <point x="408" y="-69"/>
      <point x="468" y="-69" type="qcurve" smooth="yes"/>
      <point x="559" y="-69"/>
      <point x="565" y="33" type="qcurve"/>
      <point x="243" y="425" type="line"/>
      <point x="243" y="0" type="line"/>
      <point x="83" y="0" type="line"/>
      <point x="83" y="700" type="line"/>
      <point x="217" y="700" type="line"/>
      <point x="565" y="275" type="line"/>
      <point x="565" y="700" type="line"/>
    </contour>
  </outline>
</glyph>
<glyph name="eng" format="2">
  <advance width="691"/>
  <unicode hex="014B"/>
  <outline>
    <contour>
      <point x="622" y="426"/>
      <point x="622" y="308" type="qcurve" smooth="yes"/>
      <point x="622" y="1" type="line" smooth="yes"/>
      <point x="622" y="-93"/>
      <point x="516" y="-202"/>
      <point x="420" y="-202" type="qcurve" smooth="yes"/>
      <point x="338" y="-202"/>
      <point x="294" y="-172" type="qcurve"/>
      <point x="336" y="-59" type="line"/>
      <point x="363" y="-78"/>
      <point x="402" y="-78" type="qcurve" smooth="yes"/>
      <point x="433" y="-78"/>
      <point x="466" y="-39"/>
      <point x="466" y="0" type="qcurve" smooth="yes"/>
      <point x="466" y="284" type="line" smooth="yes"/>
      <point x="466" y="348"/>
      <point x="410" y="411"/>
      <point x="357" y="411" type="qcurve" smooth="yes"/>
      <point x="298" y="411"/>
      <point x="228" y="338"/>
      <point x="228" y="266" type="qcurve" smooth="yes"/>
      <point x="228" y="0" type="line"/>
      <point x="72" y="0" type="line"/>
      <point x="72" y="538" type="line"/>
      <point x="221" y="538" type="line"/>
      <point x="221" y="475" type="line"/>
      <point x="252" y="509"/>
      <point x="344" y="546"/>
      <point x="399" y="546" type="qcurve" smooth="yes"/>
      <point x="499" y="546"/>
    </contour>
  </outline>
</glyph>
<glyph name="OE" format="2">
  <advance width="1136"/>
  <unicode hex="0152"/>
  <anchor x="0" y="0" name="Anchor-17"/>
  <anchor x="0" y="0" name="Anchor-16"/>
  <anchor x="0" y="0" name="Anchor-15"/>
  <anchor x="628" y="700" name="Anchor-14"/>
  <anchor x="0" y="0" name="Anchor-13"/>
  <anchor x="628" y="0" name="Anchor-12"/>
  <outline>
    <contour>
      <point x="1090" y="130" type="line"/>
      <point x="1090" y="0" type="line"/>
      <point x="425" y="0" type="line" smooth="yes"/>
      <point x="311" y="0"/>
      <point x="136" y="87"/>
      <point x="39" y="245"/>
      <point x="39" y="349" type="qcurve" smooth="yes"/>
      <point x="39" y="454"/>
      <point x="136" y="613"/>
      <point x="311" y="700"/>
      <point x="425" y="700" type="qcurve" smooth="yes"/>
      <point x="1077" y="700" type="line"/>
      <point x="1077" y="570" type="line"/>
      <point x="709" y="570" type="line"/>
      <point x="709" y="418" type="line"/>
      <point x="1034" y="418" type="line"/>
      <point x="1034" y="292" type="line"/>
      <point x="709" y="292" type="line"/>
      <point x="709" y="130" type="line"/>
    </contour>
    <contour>
      <point x="548" y="133" type="line"/>
      <point x="548" y="567" type="line"/>
      <point x="433" y="567" type="line" smooth="yes"/>
      <point x="328" y="567"/>
      <point x="203" y="450"/>
      <point x="203" y="349" type="qcurve" smooth="yes"/>
      <point x="203" y="250"/>
      <point x="328" y="133"/>
      <point x="433" y="133" type="qcurve" smooth="yes"/>
    </contour>
  </outline>
</glyph>
<glyph name="oe" format="2">
  <advance width="1064"/>
  <unicode hex="0153"/>
  <anchor x="0" y="0" name="Anchor-17"/>
  <anchor x="0" y="0" name="Anchor-16"/>
  <anchor x="0" y="0" name="Anchor-15"/>
  <anchor x="542" y="538" name="Anchor-14"/>
  <anchor x="0" y="0" name="Anchor-13"/>
  <anchor x="542" y="0" name="Anchor-12"/>
  <outline>
    <contour>
      <point x="1029" y="225" type="qcurve"/>
      <point x="621" y="225" type="line"/>
      <point x="632" y="174"/>
      <point x="714" y="117"/>
      <point x="776" y="117" type="qcurve" smooth="yes"/>
      <point x="816" y="117"/>
      <point x="881" y="143"/>
      <point x="910" y="169" type="qcurve"/>
      <point x="994" y="79" type="line"/>
      <point x="956" y="36"/>
      <point x="842" y="-8"/>
      <point x="771" y="-8" type="qcurve" smooth="yes"/>
      <point x="697" y="-8"/>
      <point x="580" y="41"/>
      <point x="542" y="85" type="qcurve"/>
      <point x="504" y="41"/>
      <point x="394" y="-8"/>
      <point x="326" y="-8" type="qcurve" smooth="yes"/>
      <point x="242" y="-8"/>
      <point x="108" y="63"/>
      <point x="32" y="189"/>
      <point x="32" y="269" type="qcurve" smooth="yes"/>
      <point x="32" y="349"/>
      <point x="108" y="475"/>
      <point x="242" y="546"/>
      <point x="326" y="546" type="qcurve" smooth="yes"/>
      <point x="394" y="546"/>
      <point x="505" y="498"/>
      <point x="541" y="454" type="qcurve"/>
      <point x="577" y="498"/>
      <point x="686" y="546"/>
      <point x="752" y="546" type="qcurve" smooth="yes"/>
      <point x="831" y="546"/>
      <point x="958" y="478"/>
      <point x="1032" y="352"/>
      <point x="1032" y="268" type="qcurve" smooth="yes"/>
      <point x="1032" y="245"/>
    </contour>
    <contour>
      <point x="627" y="368"/>
      <point x="619" y="316" type="qcurve"/>
      <point x="883" y="316" type="line"/>
      <point x="875" y="367"/>
      <point x="805" y="428"/>
      <point x="752" y="428" type="qcurve" smooth="yes"/>
      <point x="699" y="428"/>
    </contour>
    <contour>
      <point x="465" y="201"/>
      <point x="465" y="269" type="qcurve" smooth="yes"/>
      <point x="465" y="337"/>
      <point x="388" y="418"/>
      <point x="328" y="418" type="qcurve" smooth="yes"/>
      <point x="268" y="418"/>
      <point x="190" y="337"/>
      <point x="190" y="269" type="qcurve" smooth="yes"/>
      <point x="190" y="201"/>
      <point x="268" y="120"/>
      <point x="328" y="120" type="qcurve" smooth="yes"/>
      <point x="388" y="120"/>
    </contour>
  </outline>
</glyph>
<glyph name="Uogonek" format="2">
  <advance width="788"/>
  <unicode hex="0172"/>
  <outline>
    <contour>
      <point x="711" y="700" type="line"/>
      <point x="711" y="308" type="line" smooth="yes"/>
      <point x="711" y="189"/>
      <point x="613" y="41"/>
      <point x="524" y="8" type="qcurve" smooth="yes"/>
      <point x="446" y="-21"/>
      <point x="384" y="-78"/>
      <point x="384" y="-107" type="qcurve" smooth="yes"/>
      <point x="384" y="-128"/>
      <point x="414" y="-153"/>
      <point x="441" y="-153" type="qcurve" smooth="yes"/>
      <point x="476" y="-153"/>
      <point x="501" y="-138" type="qcurve"/>
      <point x="524" y="-209" type="line"/>
      <point x="505" y="-219"/>
      <point x="451" y="-232"/>
      <point x="423" y="-232" type="qcurve" smooth="yes"/>
      <point x="359" y="-232"/>
      <point x="285" y="-171"/>
      <point x="285" y="-120" type="qcurve" smooth="yes"/>
      <point x="285" y="-58"/>
      <point x="344" y="-9" type="qcurve"/>
      <point x="217" y="4"/>
      <point x="77" y="168"/>
      <point x="77" y="308" type="qcurve" smooth="yes"/>
      <point x="77" y="700" type="line"/>
      <point x="239" y="700" type="line"/>
      <point x="239" y="314" type="line" smooth="yes"/>
      <point x="239" y="126"/>
      <point x="395" y="126" type="qcurve" smooth="yes"/>
      <point x="471" y="126"/>
      <point x="551" y="217"/>
      <point x="551" y="314" type="qcurve" smooth="yes"/>
      <point x="551" y="700" type="line"/>
    </contour>
  </outline>
</glyph>
<glyph name="longs" format="2">
  <advance width="333"/>
  <unicode hex="017F"/>
  <outline>
    <contour>
      <point x="408" y="735"/>
      <point x="429" y="721" type="qcurve"/>
      <point x="388" y="608" type="line"/>
      <point x="361" y="627"/>
      <point x="325" y="627" type="qcurve" smooth="yes"/>
      <point x="258" y="627"/>
      <point x="258" y="549" type="qcurve" smooth="yes"/>
      <point x="258" y="0" type="line"/>
      <point x="102" y="0" type="line"/>
      <point x="102" y="406" type="line"/>
      <point x="19" y="406" type="line"/>
      <point x="19" y="526" type="line"/>
      <point x="102" y="526" type="line"/>
      <point x="102" y="550" type="line" smooth="yes"/>
      <point x="102" y="642"/>
      <point x="212" y="750"/>
      <point x="310" y="750" type="qcurve" smooth="yes"/>
      <point x="345" y="750"/>
    </contour>
  </outline>
</glyph>
<glyph name="uni018F" format="2">
  <advance width="817"/>
  <unicode hex="018F"/>
  <anchor x="0" y="0" name="Anchor-17"/>
  <anchor x="0" y="0" name="Anchor-16"/>
  <anchor x="0" y="0" name="Anchor-15"/>
  <anchor x="409" y="700" name="Anchor-14"/>
  <anchor x="0" y="0" name="Anchor-13"/>
  <anchor x="409" y="0" name="Anchor-12"/>
  <outline>
    <contour>
      <point x="681" y="619"/>
      <point x="778" y="454"/>
      <point x="778" y="351" type="qcurve" smooth="yes"/>
      <point x="778" y="247"/>
      <point x="682" y="81"/>
      <point x="514" y="-12"/>
      <point x="409" y="-12" type="qcurve" smooth="yes"/>
      <point x="303" y="-12"/>
      <point x="134" y="82"/>
      <point x="39" y="250"/>
      <point x="39" y="357" type="qcurve" smooth="yes"/>
      <point x="39" y="391" type="line"/>
      <point x="612" y="391" type="line"/>
      <point x="604" y="444"/>
      <point x="544" y="527"/>
      <point x="452" y="574"/>
      <point x="397" y="574" type="qcurve" smooth="yes"/>
      <point x="341" y="574"/>
      <point x="231" y="531"/>
      <point x="194" y="492" type="qcurve"/>
      <point x="97" y="597" type="line"/>
      <point x="148" y="649"/>
      <point x="308" y="712"/>
      <point x="398" y="712" type="qcurve" smooth="yes"/>
      <point x="507" y="712"/>
    </contour>
    <contour>
      <point x="596" y="205"/>
      <point x="610" y="281" type="qcurve"/>
      <point x="207" y="281" type="line"/>
      <point x="221" y="204"/>
      <point x="327" y="117"/>
      <point x="409" y="117" type="qcurve" smooth="yes"/>
      <point x="491" y="117"/>
    </contour>
  </outline>
</glyph>
<glyph name="florin" format="2">
  <advance width="481"/>
  <unicode hex="0192"/>
  <outline>
    <contour>
      <point x="321" y="587"/>
      <point x="316" y="548" type="qcurve" smooth="yes"/>
      <point x="312" y="517" type="line"/>
      <point x="450" y="517" type="line"/>
      <point x="436" y="397" type="line"/>
      <point x="303" y="397" type="line"/>
      <point x="253" y="-2" type="line" smooth="yes"/>
      <point x="242" y="-94"/>
      <point x="124" y="-202"/>
      <point x="30" y="-202" type="qcurve" smooth="yes"/>
      <point x="-8" y="-202"/>
      <point x="-72" y="-187"/>
      <point x="-93" y="-172" type="qcurve"/>
      <point x="-40" y="-59" type="line"/>
      <point x="-15" y="-78"/>
      <point x="22" y="-78" type="qcurve" smooth="yes"/>
      <point x="53" y="-78"/>
      <point x="93" y="-39"/>
      <point x="97" y="0" type="qcurve" smooth="yes"/>
      <point x="147" y="397" type="line"/>
      <point x="63" y="397" type="line"/>
      <point x="78" y="517" type="line"/>
      <point x="162" y="517" type="line"/>
      <point x="166" y="550" type="line" smooth="yes"/>
      <point x="177" y="642"/>
      <point x="296" y="750"/>
      <point x="393" y="750" type="qcurve" smooth="yes"/>
      <point x="427" y="750"/>
      <point x="493" y="734"/>
      <point x="513" y="720" type="qcurve"/>
      <point x="459" y="607" type="line"/>
      <point x="430" y="626"/>
      <point x="398" y="626" type="qcurve" smooth="yes"/>
      <point x="364" y="626"/>
    </contour>
  </outline>
</glyph>
<glyph name="Ohorn" format="2">
  <advance width="844"/>
  <unicode hex="01A0"/>
  <anchor x="0" y="0" name="Anchor-17"/>
  <anchor x="0" y="0" name="Anchor-16"/>
  <anchor x="0" y="0" name="Anchor-15"/>
  <anchor x="422" y="700" name="Anchor-14"/>
  <anchor x="0" y="0" name="Anchor-13"/>
  <anchor x="422" y="0" name="Anchor-12"/>
  <outline>
    <contour>
      <point x="805" y="430"/>
      <point x="805" y="350" type="qcurve" smooth="yes"/>
      <point x="805" y="247"/>
      <point x="705" y="82"/>
      <point x="531" y="-12"/>
      <point x="422" y="-12" type="qcurve" smooth="yes"/>
      <point x="313" y="-12"/>
      <point x="138" y="82"/>
      <point x="39" y="247"/>
      <point x="39" y="350" type="qcurve" smooth="yes"/>
      <point x="39" y="453"/>
      <point x="139" y="618"/>
      <point x="317" y="712"/>
      <point x="429" y="712" type="qcurve" smooth="yes"/>
      <point x="473" y="712"/>
      <point x="539" y="704" type="qcurve" smooth="yes"/>
      <point x="591" y="698"/>
      <point x="612" y="698" type="qcurve" smooth="yes"/>
      <point x="651" y="698"/>
      <point x="694" y="732"/>
      <point x="694" y="764" type="qcurve" smooth="yes"/>
      <point x="694" y="795"/>
      <point x="674" y="824" type="qcurve"/>
      <point x="766" y="858" type="line"/>
      <point x="798" y="813"/>
      <point x="798" y="758" type="qcurve" smooth="yes"/>
      <point x="798" y="703"/>
      <point x="740" y="629"/>
      <point x="687" y="614" type="qcurve"/>
      <point x="742" y="567"/>
    </contour>
    <contour>
      <point x="584" y="183"/>
      <point x="641" y="285"/>
      <point x="641" y="350" type="qcurve" smooth="yes"/>
      <point x="641" y="415"/>
      <point x="584" y="517"/>
      <point x="484" y="574"/>
      <point x="422" y="574" type="qcurve" smooth="yes"/>
      <point x="360" y="574"/>
      <point x="260" y="517"/>
      <point x="203" y="415"/>
      <point x="203" y="350" type="qcurve" smooth="yes"/>
      <point x="203" y="285"/>
      <point x="260" y="183"/>
      <point x="360" y="126"/>
      <point x="422" y="126" type="qcurve" smooth="yes"/>
      <point x="484" y="126"/>
    </contour>
  </outline>
</glyph>
<glyph name="ohorn" format="2">
  <advance width="655"/>
  <unicode hex="01A1"/>
  <anchor x="0" y="0" name="Anchor-17"/>
  <anchor x="0" y="0" name="Anchor-16"/>
  <anchor x="0" y="0" name="Anchor-15"/>
  <anchor x="328" y="538" name="Anchor-14"/>
  <anchor x="0" y="0" name="Anchor-13"/>
  <anchor x="328" y="0" name="Anchor-12"/>
  <outline>
    <contour>
      <point x="623" y="329"/>
      <point x="623" y="269" type="qcurve" smooth="yes"/>
      <point x="623" y="189"/>
      <point x="547" y="63"/>
      <point x="413" y="-8"/>
      <point x="328" y="-8" type="qcurve" smooth="yes"/>
      <point x="243" y="-8"/>
      <point x="108" y="63"/>
      <point x="32" y="189"/>
      <point x="32" y="269" type="qcurve" smooth="yes"/>
      <point x="32" y="349"/>
      <point x="109" y="475"/>
      <point x="244" y="546"/>
      <point x="329" y="546" type="qcurve" smooth="yes"/>
      <point x="349" y="546"/>
      <point x="399" y="541" type="qcurve" smooth="yes"/>
      <point x="433" y="537"/>
      <point x="448" y="537" type="qcurve" smooth="yes"/>
      <point x="479" y="537"/>
      <point x="512" y="573"/>
      <point x="512" y="602" type="qcurve" smooth="yes"/>
      <point x="512" y="634"/>
      <point x="491" y="662" type="qcurve"/>
      <point x="582" y="696" type="line"/>
      <point x="616" y="650"/>
      <point x="616" y="596" type="qcurve" smooth="yes"/>
      <point x="616" y="553"/>
      <point x="576" y="486"/>
      <point x="540" y="467" type="qcurve"/>
      <point x="580" y="430"/>
    </contour>
    <contour>
      <point x="465" y="201"/>
      <point x="465" y="269" type="qcurve" smooth="yes"/>
      <point x="465" y="337"/>
      <point x="388" y="418"/>
      <point x="328" y="418" type="qcurve" smooth="yes"/>
      <point x="268" y="418"/>
      <point x="190" y="337"/>
      <point x="190" y="269" type="qcurve" smooth="yes"/>
      <point x="190" y="201"/>
      <point x="268" y="120"/>
      <point x="328" y="120" type="qcurve" smooth="yes"/>
      <point x="387" y="120"/>
    </contour>
  </outline>
</glyph>
<glyph name="uni01E5" format="2">
  <advance width="711"/>
  <unicode hex="01E5"/>
  <outline>
    <contour>
      <point x="691" y="-38" type="line"/>
      <point x="608" y="-38" type="line"/>
      <point x="550" y="-202"/>
      <point x="323" y="-202" type="qcurve" smooth="yes"/>
      <point x="246" y="-202"/>
      <point x="107" y="-163"/>
      <point x="61" y="-128" type="qcurve"/>
      <point x="123" y="-20" type="line"/>
      <point x="157" y="-48"/>
      <point x="261" y="-81"/>
      <point x="314" y="-81" type="qcurve" smooth="yes"/>
      <point x="400" y="-81"/>
      <point x="439" y="-38" type="qcurve"/>
      <point x="273" y="-38" type="line"/>
      <point x="273" y="38" type="line"/>
      <point x="470" y="38" type="line"/>
      <point x="471" y="47"/>
      <point x="471" y="66" type="qcurve" smooth="yes"/>
      <point x="471" y="130" type="line"/>
      <point x="409" y="65"/>
      <point x="297" y="65" type="qcurve" smooth="yes"/>
      <point x="220" y="65"/>
      <point x="100" y="126"/>
      <point x="32" y="236"/>
      <point x="32" y="306" type="qcurve" smooth="yes"/>
      <point x="32" y="376"/>
      <point x="100" y="484"/>
      <point x="220" y="545"/>
      <point x="297" y="545" type="qcurve" smooth="yes"/>
      <point x="354" y="545"/>
      <point x="448" y="508"/>
      <point x="479" y="471" type="qcurve"/>
      <point x="479" y="538" type="line"/>
      <point x="627" y="538" type="line"/>
      <point x="627" y="90" type="line" smooth="yes"/>
      <point x="627" y="63"/>
      <point x="624" y="39" type="qcurve"/>
      <point x="691" y="39" type="line"/>
    </contour>
    <contour>
      <point x="473" y="249"/>
      <point x="473" y="306" type="qcurve" smooth="yes"/>
      <point x="473" y="362"/>
      <point x="395" y="430"/>
      <point x="332" y="430" type="qcurve" smooth="yes"/>
      <point x="269" y="430"/>
      <point x="190" y="362"/>
      <point x="190" y="306" type="qcurve" smooth="yes"/>
      <point x="190" y="249"/>
      <point x="269" y="181"/>
      <point x="332" y="181" type="qcurve" smooth="yes"/>
      <point x="395" y="181"/>
    </contour>
  </outline>
</glyph>
<glyph name="uni01EA" format="2">
  <advance width="844"/>
  <unicode hex="01EA"/>
  <anchor x="0" y="0" name="Anchor-17"/>
  <anchor x="0" y="0" name="Anchor-16"/>
  <anchor x="0" y="0" name="Anchor-15"/>
  <anchor x="422" y="700" name="Anchor-14"/>
  <anchor x="0" y="0" name="Anchor-13"/>
  <anchor x="0" y="0" name="Anchor-12"/>
  <outline>
    <contour>
      <point x="403" y="-74"/>
      <point x="403" y="-107" type="qcurve" smooth="yes"/>
      <point x="403" y="-128"/>
      <point x="434" y="-153"/>
      <point x="461" y="-153" type="qcurve" smooth="yes"/>
      <point x="494" y="-153"/>
      <point x="521" y="-138" type="qcurve"/>
      <point x="544" y="-209" type="line"/>
      <point x="525" y="-219"/>
      <point x="470" y="-232"/>
      <point x="443" y="-232" type="qcurve" smooth="yes"/>
      <point x="378" y="-232"/>
      <point x="305" y="-171"/>
      <point x="305" y="-120" type="qcurve" smooth="yes"/>
      <point x="305" y="-56"/>
      <point x="365" y="-8" type="qcurve"/>
      <point x="270" y="4"/>
      <point x="122" y="102"/>
      <point x="39" y="256"/>
      <point x="39" y="350" type="qcurve" smooth="yes"/>
      <point x="39" y="453"/>
      <point x="139" y="618"/>
      <point x="313" y="712"/>
      <point x="422" y="712" type="qcurve" smooth="yes"/>
      <point x="531" y="712"/>
      <point x="705" y="618"/>
      <point x="805" y="453"/>
      <point x="805" y="350" type="qcurve" smooth="yes"/>
      <point x="805" y="265"/>
      <point x="736" y="124"/>
      <point x="617" y="28"/>
      <point x="542" y="6" type="qcurve" smooth="yes"/>
      <point x="473" y="-15"/>
    </contour>
    <contour>
      <point x="260" y="183"/>
      <point x="360" y="126"/>
      <point x="422" y="126" type="qcurve" smooth="yes"/>
      <point x="484" y="126"/>
      <point x="584" y="183"/>
      <point x="641" y="285"/>
      <point x="641" y="350" type="qcurve" smooth="yes"/>
      <point x="641" y="415"/>
      <point x="584" y="517"/>
      <point x="484" y="574"/>
      <point x="422" y="574" type="qcurve" smooth="yes"/>
      <point x="360" y="574"/>
      <point x="260" y="517"/>
      <point x="203" y="415"/>
      <point x="203" y="350" type="qcurve" smooth="yes"/>
      <point x="203" y="285"/>
    </contour>
  </outline>
</glyph>
<glyph name="uni01EB" format="2">
  <advance width="655"/>
  <unicode hex="01EB"/>
  <anchor x="0" y="0" name="Anchor-17"/>
  <anchor x="443" y="538" name="Anchor-16"/>
  <anchor x="326" y="269" name="Anchor-15"/>
  <anchor x="326" y="538" name="Anchor-14"/>
  <anchor x="0" y="0" name="Anchor-13"/>
  <anchor x="326" y="0" name="Anchor-12"/>
  <outline>
    <contour>
      <point x="318" y="-75"/>
      <point x="318" y="-106" type="qcurve" smooth="yes"/>
      <point x="318" y="-127"/>
      <point x="349" y="-153"/>
      <point x="376" y="-153" type="qcurve" smooth="yes"/>
      <point x="409" y="-153"/>
      <point x="436" y="-138" type="qcurve"/>
      <point x="459" y="-209" type="line"/>
      <point x="440" y="-219"/>
      <point x="385" y="-232"/>
      <point x="358" y="-232" type="qcurve" smooth="yes"/>
      <point x="293" y="-232"/>
      <point x="220" y="-171"/>
      <point x="220" y="-121" type="qcurve" smooth="yes"/>
      <point x="220" y="-53"/>
      <point x="284" y="-5" type="qcurve"/>
      <point x="210" y="4"/>
      <point x="96" y="78"/>
      <point x="32" y="196"/>
      <point x="32" y="269" type="qcurve" smooth="yes"/>
      <point x="32" y="349"/>
      <point x="108" y="475"/>
      <point x="243" y="546"/>
      <point x="328" y="546" type="qcurve" smooth="yes"/>
      <point x="413" y="546"/>
      <point x="547" y="475"/>
      <point x="623" y="349"/>
      <point x="623" y="269" type="qcurve" smooth="yes"/>
      <point x="623" y="181"/>
      <point x="529" y="47"/>
      <point x="448" y="13" type="qcurve" smooth="yes"/>
      <point x="375" y="-16"/>
    </contour>
    <contour>
      <point x="268" y="120"/>
      <point x="328" y="120" type="qcurve" smooth="yes"/>
      <point x="388" y="120"/>
      <point x="465" y="201"/>
      <point x="465" y="269" type="qcurve" smooth="yes"/>
      <point x="465" y="337"/>
      <point x="388" y="418"/>
      <point x="328" y="418" type="qcurve" smooth="yes"/>
      <point x="268" y="418"/>
      <point x="190" y="337"/>
      <point x="190" y="269" type="qcurve" smooth="yes"/>
      <point x="190" y="201"/>
    </contour>
  </outline>
</glyph>
<glyph name="uni0237" format="2">
  <advance width="307"/>
  <unicode hex="0237"/>
  <anchor x="0" y="0" name="Anchor-17"/>
  <anchor x="0" y="0" name="Anchor-16"/>
  <anchor x="0" y="0" name="Anchor-15"/>
  <anchor x="157" y="538" name="Anchor-14"/>
  <anchor x="0" y="0" name="Anchor-13"/>
  <anchor x="0" y="0" name="Anchor-12"/>
  <outline>
    <contour>
      <point x="-93" y="-172" type="qcurve"/>
      <point x="-51" y="-59" type="line"/>
      <point x="-24" y="-78"/>
      <point x="15" y="-78" type="qcurve" smooth="yes"/>
      <point x="45" y="-78"/>
      <point x="79" y="-39"/>
      <point x="79" y="0" type="qcurve" smooth="yes"/>
      <point x="79" y="538" type="line"/>
      <point x="235" y="538" type="line"/>
      <point x="235" y="1" type="line" smooth="yes"/>
      <point x="235" y="-93"/>
      <point x="128" y="-202"/>
      <point x="32" y="-202" type="qcurve" smooth="yes"/>
      <point x="-50" y="-202"/>
    </contour>
  </outline>
</glyph>
<glyph name="uni02B9" format="2">
  <advance width="230"/>
  <unicode hex="02B9"/>
  <outline>
    <contour>
      <point x="49" y="700" type="line"/>
      <point x="182" y="700" type="line"/>
      <point x="171" y="416" type="line"/>
      <point x="59" y="416" type="line"/>
    </contour>
  </outline>
</glyph>
<glyph name="uni02BC" format="2">
  <advance width="187"/>
  <unicode hex="02BC"/>
  <outline>
    <contour>
      <point x="43" y="700" type="line"/>
      <point x="145" y="700" type="line"/>
      <point x="123" y="438" type="line"/>
      <point x="41" y="438" type="line"/>
    </contour>
  </outline>
</glyph>
<glyph name="uni02BE" format="2">
  <advance width="600"/>
  <unicode hex="02BE"/>
  <outline>
    <contour>
      <point x="299" y="653" type="line"/>
      <point x="325" y="653"/>
      <point x="360" y="687"/>
      <point x="360" y="713" type="qcurve" smooth="yes"/>
      <point x="360" y="739"/>
      <point x="325" y="773"/>
      <point x="299" y="773" type="qcurve"/>
      <point x="299" y="834" type="line"/>
      <point x="353" y="834"/>
      <point x="425" y="764"/>
      <point x="425" y="713" type="qcurve" smooth="yes"/>
      <point x="425" y="662"/>
      <point x="353" y="592"/>
      <point x="299" y="592" type="qcurve"/>
    </contour>
  </outline>
</glyph>
<glyph name="uni02BF" format="2">
  <advance width="600"/>
  <unicode hex="02BF"/>
  <outline>
    <contour>
      <point x="174" y="662"/>
      <point x="174" y="713" type="qcurve" smooth="yes"/>
      <point x="174" y="764"/>
      <point x="246" y="834"/>
      <point x="299" y="834" type="qcurve"/>
      <point x="299" y="773" type="line"/>
      <point x="274" y="773"/>
      <point x="239" y="739"/>
      <point x="239" y="713" type="qcurve" smooth="yes"/>
      <point x="239" y="687"/>
      <point x="273" y="653"/>
      <point x="299" y="653" type="qcurve"/>
      <point x="299" y="592" type="line"/>
      <point x="246" y="592"/>
    </contour>
  </outline>
</glyph>
<glyph name="uni02C8" format="2">
  <advance width="186"/>
  <unicode hex="02C8"/>
  <outline>
    <contour>
      <point x="42" y="700" type="line"/>
      <point x="144" y="700" type="line"/>
      <point x="144" y="504" type="line"/>
      <point x="42" y="504" type="line"/>
    </contour>
  </outline>
</glyph>
<glyph name="uni02C9" format="2">
  <advance width="600"/>
  <unicode hex="02C9"/>
  <anchor x="300" y="699" name="Anchor-19"/>
  <outline>
    <contour>
      <point x="115" y="723" type="line"/>
      <point x="485" y="723" type="line"/>
      <point x="485" y="635" type="line"/>
      <point x="115" y="635" type="line"/>
    </contour>
  </outline>
</glyph>
<glyph name="uni02CA" format="2">
  <advance width="600"/>
  <unicode hex="02CA"/>
  <anchor x="300" y="729" name="Anchor-19"/>
  <outline>
    <contour>
      <point x="344" y="751" type="line"/>
      <point x="512" y="751" type="line"/>
      <point x="331" y="607" type="line"/>
      <point x="209" y="607" type="line"/>
    </contour>
  </outline>
</glyph>
<glyph name="uni02CB" format="2">
  <advance width="600"/>
  <unicode hex="02CB"/>
  <anchor x="300" y="729" name="Anchor-19"/>
  <outline>
    <contour>
      <point x="88" y="751" type="line"/>
      <point x="256" y="751" type="line"/>
      <point x="391" y="607" type="line"/>
      <point x="269" y="607" type="line"/>
    </contour>
  </outline>
</glyph>
<glyph name="uni02CC" format="2">
  <advance width="188"/>
  <unicode hex="02CC"/>
  <outline>
    <contour>
      <point x="42" y="-30" type="line"/>
      <point x="146" y="-30" type="line"/>
      <point x="146" y="-227" type="line"/>
      <point x="42" y="-227" type="line"/>
    </contour>
  </outline>
</glyph>
<glyph name="gravecomb" format="2">
  <advance width="0"/>
  <unicode hex="0300"/>
  <anchor x="-300" y="538" name="_Anchor-20"/>
  <anchor x="-300" y="729" name="Anchor-19"/>
  <anchor x="-300" y="538" name="_Anchor-19"/>
  <anchor x="-300" y="538" name="_Anchor-14"/>
  <anchor x="-300" y="538" name="_Anchor-8"/>
  <anchor x="-300" y="538" name="_Anchor-2"/>
  <outline>
    <contour>
      <point x="-512" y="751" type="line"/>
      <point x="-344" y="751" type="line"/>
      <point x="-209" y="607" type="line"/>
      <point x="-331" y="607" type="line"/>
    </contour>
  </outline>
</glyph>
<glyph name="acutecomb" format="2">
  <advance width="0"/>
  <unicode hex="0301"/>
  <anchor x="-300" y="538" name="_Anchor-20"/>
  <anchor x="-300" y="729" name="Anchor-19"/>
  <anchor x="-300" y="538" name="_Anchor-19"/>
  <anchor x="-300" y="538" name="_Anchor-14"/>
  <anchor x="-300" y="538" name="_Anchor-8"/>
  <anchor x="-300" y="538" name="_Anchor-2"/>
  <outline>
    <contour>
      <point x="-256" y="751" type="line"/>
      <point x="-88" y="751" type="line"/>
      <point x="-269" y="607" type="line"/>
      <point x="-391" y="607" type="line"/>
    </contour>
  </outline>
</glyph>
<glyph name="uni0302" format="2">
  <advance width="0"/>
  <unicode hex="0302"/>
  <anchor x="-300" y="538" name="_Anchor-20"/>
  <anchor x="-300" y="719" name="Anchor-19"/>
  <anchor x="-300" y="538" name="_Anchor-19"/>
  <anchor x="-300" y="538" name="_Anchor-14"/>
  <anchor x="-300" y="538" name="_Anchor-8"/>
  <anchor x="-300" y="538" name="_Anchor-2"/>
  <outline>
    <contour>
      <point x="-213" y="607" type="line"/>
      <point x="-300" y="683" type="line"/>
      <point x="-387" y="607" type="line"/>
      <point x="-501" y="607" type="line"/>
      <point x="-369" y="751" type="line"/>
      <point x="-231" y="751" type="line"/>
      <point x="-99" y="607" type="line"/>
    </contour>
  </outline>
</glyph>
<glyph name="tildecomb" format="2">
  <advance width="0"/>
  <unicode hex="0303"/>
  <anchor x="-300" y="538" name="_Anchor-20"/>
  <anchor x="-300" y="719" name="Anchor-19"/>
  <anchor x="-300" y="538" name="_Anchor-19"/>
  <anchor x="-300" y="538" name="_Anchor-14"/>
  <anchor x="-300" y="538" name="_Anchor-8"/>
  <anchor x="-300" y="538" name="_Anchor-2"/>
  <outline>
    <contour>
      <point x="-293" y="625"/>
      <point x="-318" y="643" type="qcurve" smooth="yes"/>
      <point x="-334" y="655"/>
      <point x="-355" y="667"/>
      <point x="-365" y="667" type="qcurve" smooth="yes"/>
      <point x="-386" y="667"/>
      <point x="-412" y="638"/>
      <point x="-413" y="611" type="qcurve"/>
      <point x="-492" y="611" type="line"/>
      <point x="-490" y="678"/>
      <point x="-427" y="757"/>
      <point x="-375" y="757" type="qcurve" smooth="yes"/>
      <point x="-349" y="757"/>
      <point x="-308" y="736"/>
      <point x="-282" y="717" type="qcurve" smooth="yes"/>
      <point x="-266" y="705"/>
      <point x="-245" y="693"/>
      <point x="-235" y="693" type="qcurve" smooth="yes"/>
      <point x="-215" y="693"/>
      <point x="-188" y="722"/>
      <point x="-187" y="747" type="qcurve"/>
      <point x="-108" y="747" type="line"/>
      <point x="-110" y="682"/>
      <point x="-173" y="604"/>
      <point x="-225" y="604" type="qcurve" smooth="yes"/>
      <point x="-252" y="604"/>
    </contour>
  </outline>
</glyph>
<glyph name="uni0304" format="2">
  <advance width="0"/>
  <unicode hex="0304"/>
  <anchor x="-300" y="538" name="_Anchor-20"/>
  <anchor x="-300" y="699" name="Anchor-19"/>
  <anchor x="-300" y="538" name="_Anchor-19"/>
  <anchor x="-300" y="538" name="_Anchor-14"/>
  <anchor x="-300" y="538" name="_Anchor-8"/>
  <anchor x="-300" y="538" name="_Anchor-2"/>
  <outline>
    <contour>
      <point x="-485" y="723" type="line"/>
      <point x="-115" y="723" type="line"/>
      <point x="-115" y="635" type="line"/>
      <point x="-485" y="635" type="line"/>
    </contour>
  </outline>
</glyph>
<glyph name="uni0306" format="2">
  <advance width="0"/>
  <unicode hex="0306"/>
  <anchor x="-300" y="538" name="_Anchor-20"/>
  <anchor x="-300" y="719" name="Anchor-19"/>
  <anchor x="-300" y="538" name="_Anchor-19"/>
  <anchor x="-300" y="538" name="_Anchor-14"/>
  <anchor x="-300" y="538" name="_Anchor-8"/>
  <anchor x="-300" y="538" name="_Anchor-2"/>
  <outline>
    <contour>
      <point x="-481" y="681"/>
      <point x="-484" y="751" type="qcurve"/>
      <point x="-386" y="751" type="line"/>
      <point x="-385" y="719"/>
      <point x="-336" y="680"/>
      <point x="-300" y="680" type="qcurve" smooth="yes"/>
      <point x="-264" y="680"/>
      <point x="-215" y="719"/>
      <point x="-214" y="751" type="qcurve"/>
      <point x="-116" y="751" type="line"/>
      <point x="-119" y="681"/>
      <point x="-221" y="599"/>
      <point x="-300" y="599" type="qcurve" smooth="yes"/>
      <point x="-379" y="599"/>
    </contour>
  </outline>
</glyph>
<glyph name="uni0307" format="2">
  <advance width="0"/>
  <unicode hex="0307"/>
  <anchor x="-300" y="538" name="_Anchor-20"/>
  <anchor x="-300" y="748" name="Anchor-19"/>
  <anchor x="-300" y="538" name="_Anchor-19"/>
  <anchor x="-300" y="538" name="_Anchor-14"/>
  <anchor x="-300" y="538" name="_Anchor-8"/>
  <anchor x="-300" y="538" name="_Anchor-2"/>
  <outline>
    <contour>
      <point x="-384" y="660"/>
      <point x="-384" y="697" type="qcurve" smooth="yes"/>
      <point x="-384" y="733"/>
      <point x="-337" y="781"/>
      <point x="-300" y="781" type="qcurve" smooth="yes"/>
      <point x="-263" y="781"/>
      <point x="-216" y="733"/>
      <point x="-216" y="697" type="qcurve" smooth="yes"/>
      <point x="-216" y="660"/>
      <point x="-263" y="612"/>
      <point x="-300" y="612" type="qcurve" smooth="yes"/>
      <point x="-337" y="612"/>
    </contour>
  </outline>
</glyph>
<glyph name="uni0308" format="2">
  <advance width="0"/>
  <unicode hex="0308"/>
  <anchor x="-300" y="538" name="_Anchor-20"/>
  <anchor x="-300" y="706" name="Anchor-19"/>
  <anchor x="-300" y="538" name="_Anchor-19"/>
  <anchor x="-300" y="538" name="_Anchor-14"/>
  <anchor x="-300" y="538" name="_Anchor-8"/>
  <anchor x="-300" y="538" name="_Anchor-2"/>
  <outline>
    <contour>
      <point x="-471" y="651"/>
      <point x="-471" y="681" type="qcurve" smooth="yes"/>
      <point x="-471" y="711"/>
      <point x="-431" y="750"/>
      <point x="-401" y="750" type="qcurve" smooth="yes"/>
      <point x="-371" y="750"/>
      <point x="-332" y="711"/>
      <point x="-332" y="681" type="qcurve" smooth="yes"/>
      <point x="-332" y="651"/>
      <point x="-371" y="612"/>
      <point x="-401" y="612" type="qcurve" smooth="yes"/>
      <point x="-431" y="612"/>
    </contour>
    <contour>
      <point x="-268" y="651"/>
      <point x="-268" y="681" type="qcurve" smooth="yes"/>
      <point x="-268" y="711"/>
      <point x="-229" y="750"/>
      <point x="-199" y="750" type="qcurve" smooth="yes"/>
      <point x="-169" y="750"/>
      <point x="-129" y="711"/>
      <point x="-129" y="681" type="qcurve" smooth="yes"/>
      <point x="-129" y="651"/>
      <point x="-169" y="612"/>
      <point x="-199" y="612" type="qcurve" smooth="yes"/>
      <point x="-229" y="612"/>
    </contour>
  </outline>
</glyph>
<glyph name="hookabovecomb" format="2">
  <advance width="0"/>
  <unicode hex="0309"/>
  <anchor x="-300" y="538" name="_Anchor-20"/>
  <anchor x="-300" y="799" name="Anchor-19"/>
  <anchor x="-300" y="538" name="_Anchor-19"/>
  <anchor x="-300" y="538" name="_Anchor-14"/>
  <anchor x="-300" y="538" name="_Anchor-8"/>
  <anchor x="-300" y="538" name="_Anchor-2"/>
  <outline>
    <contour>
      <point x="-319" y="649" type="line"/>
      <point x="-291" y="662"/>
      <point x="-268" y="692"/>
      <point x="-268" y="710" type="qcurve" smooth="yes"/>
      <point x="-268" y="729"/>
      <point x="-294" y="752"/>
      <point x="-315" y="752" type="qcurve" smooth="yes"/>
      <point x="-345" y="752"/>
      <point x="-374" y="733" type="qcurve"/>
      <point x="-406" y="796" type="line"/>
      <point x="-363" y="830"/>
      <point x="-298" y="830" type="qcurve" smooth="yes"/>
      <point x="-245" y="830"/>
      <point x="-178" y="771"/>
      <point x="-178" y="723" type="qcurve" smooth="yes"/>
      <point x="-178" y="639"/>
      <point x="-270" y="597" type="qcurve"/>
    </contour>
  </outline>
</glyph>
<glyph name="uni030B" format="2">
  <advance width="0"/>
  <unicode hex="030B"/>
  <anchor x="-300" y="538" name="_Anchor-20"/>
  <anchor x="-300" y="729" name="Anchor-19"/>
  <anchor x="-300" y="538" name="_Anchor-19"/>
  <anchor x="-300" y="538" name="_Anchor-14"/>
  <anchor x="-300" y="538" name="_Anchor-8"/>
  <anchor x="-300" y="538" name="_Anchor-2"/>
  <outline>
    <contour>
      <point x="-386" y="751" type="line"/>
      <point x="-240" y="751" type="line"/>
      <point x="-344" y="607" type="line"/>
      <point x="-458" y="607" type="line"/>
    </contour>
    <contour>
      <point x="-184" y="751" type="line"/>
      <point x="-38" y="751" type="line"/>
      <point x="-142" y="607" type="line"/>
      <point x="-256" y="607" type="line"/>
    </contour>
  </outline>
</glyph>
<glyph name="uni030C" format="2">
  <advance width="0"/>
  <unicode hex="030C"/>
  <anchor x="-300" y="538" name="_Anchor-20"/>
  <anchor x="-300" y="719" name="Anchor-19"/>
  <anchor x="-300" y="538" name="_Anchor-19"/>
  <anchor x="-300" y="538" name="_Anchor-14"/>
  <anchor x="-300" y="538" name="_Anchor-8"/>
  <anchor x="-300" y="538" name="_Anchor-2"/>
  <outline>
    <contour>
      <point x="-99" y="751" type="line"/>
      <point x="-231" y="607" type="line"/>
      <point x="-369" y="607" type="line"/>
      <point x="-501" y="751" type="line"/>
      <point x="-387" y="751" type="line"/>
      <point x="-300" y="676" type="line"/>
      <point x="-213" y="751" type="line"/>
    </contour>
  </outline>
</glyph>
<glyph name="uni030F" format="2">
  <advance width="0"/>
  <unicode hex="030F"/>
  <anchor x="-300" y="538" name="_Anchor-20"/>
  <anchor x="-300" y="729" name="Anchor-19"/>
  <anchor x="-300" y="538" name="_Anchor-19"/>
  <anchor x="-300" y="538" name="_Anchor-14"/>
  <anchor x="-300" y="538" name="_Anchor-8"/>
  <anchor x="-300" y="538" name="_Anchor-2"/>
  <outline>
    <contour>
      <point x="-562" y="751" type="line"/>
      <point x="-416" y="751" type="line"/>
      <point x="-344" y="607" type="line"/>
      <point x="-458" y="607" type="line"/>
    </contour>
    <contour>
      <point x="-360" y="751" type="line"/>
      <point x="-214" y="751" type="line"/>
      <point x="-142" y="607" type="line"/>
      <point x="-256" y="607" type="line"/>
    </contour>
  </outline>
</glyph>
<glyph name="uni0311" format="2">
  <advance width="0"/>
  <unicode hex="0311"/>
  <anchor x="-300" y="538" name="_Anchor-20"/>
  <anchor x="-300" y="719" name="Anchor-19"/>
  <anchor x="-300" y="538" name="_Anchor-19"/>
  <anchor x="-300" y="538" name="_Anchor-14"/>
  <anchor x="-300" y="538" name="_Anchor-8"/>
  <anchor x="-300" y="538" name="_Anchor-2"/>
  <outline>
    <contour>
      <point x="-379" y="759"/>
      <point x="-300" y="759" type="qcurve" smooth="yes"/>
      <point x="-221" y="759"/>
      <point x="-119" y="677"/>
      <point x="-116" y="607" type="qcurve"/>
      <point x="-214" y="607" type="line"/>
      <point x="-215" y="639"/>
      <point x="-264" y="678"/>
      <point x="-300" y="678" type="qcurve" smooth="yes"/>
      <point x="-336" y="678"/>
      <point x="-385" y="639"/>
      <point x="-386" y="607" type="qcurve"/>
      <point x="-484" y="607" type="line"/>
      <point x="-481" y="677"/>
    </contour>
  </outline>
</glyph>
<glyph name="uni0312" format="2">
  <advance width="0"/>
  <unicode hex="0312"/>
  <anchor x="-300" y="538" name="_Anchor-20"/>
  <anchor x="-300" y="766" name="Anchor-19"/>
  <anchor x="-300" y="538" name="_Anchor-19"/>
  <anchor x="-300" y="538" name="_Anchor-14"/>
  <anchor x="-300" y="538" name="_Anchor-8"/>
  <anchor x="-300" y="538" name="_Anchor-2"/>
  <outline>
    <contour>
      <point x="-221" y="659" type="qcurve" smooth="yes"/>
      <point x="-221" y="631"/>
      <point x="-261" y="599"/>
      <point x="-300" y="599" type="qcurve" smooth="yes"/>
      <point x="-339" y="599"/>
      <point x="-379" y="632"/>
      <point x="-379" y="659" type="qcurve" smooth="yes"/>
      <point x="-379" y="684"/>
      <point x="-358" y="723" type="qcurve" smooth="yes"/>
      <point x="-313" y="813" type="line"/>
      <point x="-229" y="813" type="line"/>
      <point x="-263" y="712" type="line"/>
      <point x="-221" y="700"/>
    </contour>
  </outline>
</glyph>
<glyph name="uni031B" format="2">
  <advance width="0"/>
  <unicode hex="031B"/>
  <anchor x="-300" y="538" name="_Anchor-16"/>
  <anchor x="-300" y="538" name="_Anchor-11"/>
  <anchor x="-300" y="538" name="_Anchor-4"/>
  <outline>
    <contour>
      <point x="-323" y="538" type="line"/>
      <point x="-296" y="538" type="line" smooth="yes"/>
      <point x="-269" y="538"/>
      <point x="-236" y="573"/>
      <point x="-236" y="601" type="qcurve" smooth="yes"/>
      <point x="-236" y="636"/>
      <point x="-256" y="661" type="qcurve"/>
      <point x="-164" y="695" type="line"/>
      <point x="-132" y="653"/>
      <point x="-132" y="595" type="qcurve" smooth="yes"/>
      <point x="-132" y="520"/>
      <point x="-221" y="434"/>
      <point x="-300" y="434" type="qcurve" smooth="yes"/>
      <point x="-323" y="434" type="line"/>
    </contour>
  </outline>
</glyph>
<glyph name="dotbelowcomb" format="2">
  <advance width="0"/>
  <unicode hex="0323"/>
  <anchor x="-300" y="-167" name="Anchor-18"/>
  <anchor x="-300" y="0" name="_Anchor-18"/>
  <anchor x="-300" y="0" name="_Anchor-12"/>
  <anchor x="-300" y="0" name="_Anchor-6"/>
  <anchor x="-300" y="0" name="_Anchor-0"/>
  <outline>
    <contour>
      <point x="-369" y="-173"/>
      <point x="-369" y="-143" type="qcurve" smooth="yes"/>
      <point x="-369" y="-113"/>
      <point x="-330" y="-73"/>
      <point x="-300" y="-73" type="qcurve" smooth="yes"/>
      <point x="-271" y="-73"/>
      <point x="-231" y="-113"/>
      <point x="-231" y="-143" type="qcurve" smooth="yes"/>
      <point x="-231" y="-173"/>
      <point x="-270" y="-210"/>
      <point x="-300" y="-210" type="qcurve" smooth="yes"/>
      <point x="-330" y="-210"/>
    </contour>
  </outline>
</glyph>
<glyph name="uni0324" format="2">
  <advance width="0"/>
  <unicode hex="0324"/>
  <anchor x="-300" y="-165" name="Anchor-18"/>
  <anchor x="-300" y="0" name="_Anchor-18"/>
  <anchor x="-300" y="0" name="_Anchor-12"/>
  <anchor x="-300" y="0" name="_Anchor-6"/>
  <anchor x="-300" y="0" name="_Anchor-0"/>
  <outline>
    <contour>
      <point x="-461" y="-168"/>
      <point x="-461" y="-139" type="qcurve" smooth="yes"/>
      <point x="-461" y="-110"/>
      <point x="-423" y="-73"/>
      <point x="-396" y="-73" type="qcurve" smooth="yes"/>
      <point x="-368" y="-73"/>
      <point x="-329" y="-110"/>
      <point x="-329" y="-139" type="qcurve" smooth="yes"/>
      <point x="-329" y="-168"/>
      <point x="-368" y="-204"/>
      <point x="-396" y="-204" type="qcurve" smooth="yes"/>
      <point x="-424" y="-204"/>
    </contour>
    <contour>
      <point x="-271" y="-168"/>
      <point x="-271" y="-139" type="qcurve" smooth="yes"/>
      <point x="-271" y="-110"/>
      <point x="-232" y="-73"/>
      <point x="-204" y="-73" type="qcurve" smooth="yes"/>
      <point x="-176" y="-73"/>
      <point x="-138" y="-110"/>
      <point x="-138" y="-139" type="qcurve" smooth="yes"/>
      <point x="-138" y="-168"/>
      <point x="-176" y="-204"/>
      <point x="-204" y="-204" type="qcurve" smooth="yes"/>
      <point x="-232" y="-204"/>
    </contour>
  </outline>
</glyph>
<glyph name="uni0326" format="2">
  <advance width="0"/>
  <unicode hex="0326"/>
  <anchor x="-300" y="-167" name="Anchor-18"/>
  <anchor x="-300" y="0" name="_Anchor-18"/>
  <anchor x="-300" y="0" name="_Anchor-12"/>
  <anchor x="-300" y="0" name="_Anchor-6"/>
  <anchor x="-300" y="0" name="_Anchor-0"/>
  <outline>
    <contour>
      <point x="-231" y="-106"/>
      <point x="-231" y="-133" type="qcurve" smooth="yes"/>
      <point x="-231" y="-164"/>
      <point x="-249" y="-198" type="qcurve" smooth="yes"/>
      <point x="-284" y="-266" type="line"/>
      <point x="-357" y="-266" type="line"/>
      <point x="-332" y="-186" type="line"/>
      <point x="-350" y="-180"/>
      <point x="-369" y="-153"/>
      <point x="-369" y="-133" type="qcurve" smooth="yes"/>
      <point x="-369" y="-106"/>
      <point x="-332" y="-73"/>
      <point x="-300" y="-73" type="qcurve" smooth="yes"/>
      <point x="-268" y="-73"/>
    </contour>
  </outline>
</glyph>
<glyph name="uni0327" format="2">
  <advance width="0"/>
  <unicode hex="0327"/>
  <anchor x="-300" y="0" name="_Anchor-18"/>
  <anchor x="-300" y="0" name="_Anchor-12"/>
  <anchor x="-300" y="0" name="_Anchor-6"/>
  <anchor x="-300" y="0" name="_Anchor-0"/>
  <outline>
    <contour>
      <point x="-409" y="-221"/>
      <point x="-426" y="-211" type="qcurve"/>
      <point x="-402" y="-144" type="line"/>
      <point x="-370" y="-159"/>
      <point x="-337" y="-159" type="qcurve" smooth="yes"/>
      <point x="-285" y="-159"/>
      <point x="-285" y="-127" type="qcurve" smooth="yes"/>
      <point x="-285" y="-98"/>
      <point x="-334" y="-98" type="qcurve" smooth="yes"/>
      <point x="-368" y="-98" type="line"/>
      <point x="-342" y="8" type="line"/>
      <point x="-259" y="8" type="line"/>
      <point x="-273" y="-50" type="line"/>
      <point x="-229" y="-55"/>
      <point x="-186" y="-100"/>
      <point x="-186" y="-133" type="qcurve" smooth="yes"/>
      <point x="-186" y="-179"/>
      <point x="-266" y="-232"/>
      <point x="-333" y="-232" type="qcurve" smooth="yes"/>
      <point x="-359" y="-232"/>
    </contour>
  </outline>
</glyph>
<glyph name="uni0328" format="2">
  <advance width="0"/>
  <unicode hex="0328"/>
  <anchor x="-299" y="0" name="_Anchor-13"/>
  <anchor x="-299" y="0" name="_Anchor-7"/>
  <anchor x="-299" y="0" name="_Anchor-1"/>
  <outline>
    <contour>
      <point x="-515" y="-171"/>
      <point x="-515" y="-120" type="qcurve" smooth="yes"/>
      <point x="-515" y="-71"/>
      <point x="-438" y="13"/>
      <point x="-361" y="41" type="qcurve"/>
      <point x="-299" y="0" type="line"/>
      <point x="-362" y="-28"/>
      <point x="-416" y="-79"/>
      <point x="-416" y="-107" type="qcurve" smooth="yes"/>
      <point x="-416" y="-128"/>
      <point x="-385" y="-153"/>
      <point x="-359" y="-153" type="qcurve" smooth="yes"/>
      <point x="-325" y="-153"/>
      <point x="-298" y="-138" type="qcurve"/>
      <point x="-276" y="-209" type="line"/>
      <point x="-295" y="-219"/>
      <point x="-349" y="-232"/>
      <point x="-377" y="-232" type="qcurve" smooth="yes"/>
      <point x="-441" y="-232"/>
    </contour>
  </outline>
</glyph>
<glyph name="uni032E" format="2">
  <advance width="0"/>
  <unicode hex="032E"/>
  <anchor x="-300" y="-176" name="Anchor-18"/>
  <anchor x="-300" y="0" name="_Anchor-18"/>
  <anchor x="-300" y="0" name="_Anchor-12"/>
  <anchor x="-300" y="0" name="_Anchor-6"/>
  <anchor x="-300" y="0" name="_Anchor-0"/>
  <outline>
    <contour>
      <point x="-480" y="-138"/>
      <point x="-484" y="-74" type="qcurve"/>
      <point x="-391" y="-74" type="line"/>
      <point x="-390" y="-104"/>
      <point x="-339" y="-141"/>
      <point x="-300" y="-141" type="qcurve" smooth="yes"/>
      <point x="-261" y="-141"/>
      <point x="-210" y="-104"/>
      <point x="-209" y="-74" type="qcurve"/>
      <point x="-116" y="-74" type="line"/>
      <point x="-120" y="-138"/>
      <point x="-222" y="-217"/>
      <point x="-300" y="-217" type="qcurve" smooth="yes"/>
      <point x="-378" y="-217"/>
    </contour>
  </outline>
</glyph>
<glyph name="uni0331" format="2">
  <advance width="0"/>
  <unicode hex="0331"/>
  <anchor x="-300" y="-158" name="Anchor-18"/>
  <anchor x="-300" y="0" name="_Anchor-18"/>
  <anchor x="-300" y="0" name="_Anchor-12"/>
  <anchor x="-300" y="0" name="_Anchor-6"/>
  <anchor x="-300" y="0" name="_Anchor-0"/>
  <outline>
    <contour>
      <point x="-485" y="-95" type="line"/>
      <point x="-115" y="-95" type="line"/>
      <point x="-115" y="-182" type="line"/>
      <point x="-485" y="-182" type="line"/>
    </contour>
  </outline>
</glyph>
<glyph name="uni0335" format="2">
  <advance width="0"/>
  <unicode hex="0335"/>
  <anchor x="-300" y="435" name="_Anchor-15"/>
  <anchor x="-300" y="435" name="_Anchor-10"/>
  <anchor x="-300" y="435" name="_Anchor-3"/>
  <outline>
    <contour>
      <point x="-506" y="481" type="line"/>
      <point x="-94" y="481" type="line"/>
      <point x="-94" y="391" type="line"/>
      <point x="-506" y="391" type="line"/>
    </contour>
  </outline>
</glyph>
<glyph name="uni0336" format="2">
  <advance width="0"/>
  <unicode hex="0336"/>
  <anchor x="-466" y="435" name="_Anchor-15"/>
  <anchor x="-466" y="435" name="_Anchor-10"/>
  <anchor x="-466" y="435" name="_Anchor-3"/>
  <outline>
    <contour>
      <point x="-882" y="489" type="line"/>
      <point x="-50" y="489" type="line"/>
      <point x="-50" y="381" type="line"/>
      <point x="-882" y="381" type="line"/>
    </contour>
  </outline>
</glyph>
<glyph name="uni0337" format="2">
  <advance width="0"/>
  <unicode hex="0337"/>
  <anchor x="-255" y="393" name="_Anchor-15"/>
  <anchor x="-255" y="393" name="_Anchor-10"/>
  <anchor x="-255" y="393" name="_Anchor-3"/>
  <outline>
    <contour>
      <point x="-446" y="310" type="line"/>
      <point x="-122" y="554" type="line"/>
      <point x="-65" y="474" type="line"/>
      <point x="-388" y="232" type="line"/>
    </contour>
  </outline>
</glyph>
<glyph name="uni0338" format="2">
  <advance width="0"/>
  <unicode hex="0338"/>
  <anchor x="-315" y="270" name="_Anchor-15"/>
  <anchor x="-315" y="270" name="_Anchor-10"/>
  <anchor x="-315" y="270" name="_Anchor-3"/>
  <outline>
    <contour>
      <point x="-134" y="605" type="line"/>
      <point x="-56" y="605" type="line"/>
      <point x="-497" y="-70" type="line"/>
      <point x="-574" y="-70" type="line"/>
    </contour>
  </outline>
</glyph>
<glyph name="uni0394" format="2">
  <advance width="766"/>
  <unicode hex="0394"/>
  <outline>
    <contour>
      <point x="776" y="0" type="line"/>
      <point x="-9" y="0" type="line"/>
      <point x="303" y="700" type="line"/>
      <point x="463" y="700" type="line"/>
    </contour>
    <contour>
      <point x="205" y="132" type="line"/>
      <point x="557" y="132" type="line"/>
      <point x="382" y="547" type="line"/>
    </contour>
  </outline>
</glyph>
<glyph name="uni03A9" format="2">
  <advance width="889"/>
  <unicode hex="03A9"/>
  <outline>
    <contour>
      <point x="9" y="132" type="line"/>
      <point x="165" y="132" type="line"/>
      <point x="117" y="177"/>
      <point x="64" y="300"/>
      <point x="64" y="374" type="qcurve" smooth="yes"/>
      <point x="64" y="472"/>
      <point x="163" y="626"/>
      <point x="337" y="712"/>
      <point x="444" y="712" type="qcurve" smooth="yes"/>
      <point x="551" y="712"/>
      <point x="725" y="626"/>
      <point x="825" y="472"/>
      <point x="825" y="374" type="qcurve" smooth="yes"/>
      <point x="825" y="300"/>
      <point x="771" y="177"/>
      <point x="723" y="132" type="qcurve"/>
      <point x="880" y="132" type="line"/>
      <point x="880" y="0" type="line"/>
      <point x="514" y="0" type="line"/>
      <point x="514" y="123" type="line"/>
      <point x="585" y="159"/>
      <point x="662" y="283"/>
      <point x="662" y="357" type="qcurve" smooth="yes"/>
      <point x="662" y="422"/>
      <point x="606" y="521"/>
      <point x="507" y="574"/>
      <point x="444" y="574" type="qcurve" smooth="yes"/>
      <point x="381" y="574"/>
      <point x="282" y="521"/>
      <point x="226" y="422"/>
      <point x="226" y="357" type="qcurve" smooth="yes"/>
      <point x="226" y="282"/>
      <point x="304" y="158"/>
      <point x="375" y="123" type="qcurve"/>
      <point x="375" y="0" type="line"/>
      <point x="9" y="0" type="line"/>
    </contour>
  </outline>
</glyph>
<glyph name="uni03BC" format="2">
  <advance width="690"/>
  <unicode hex="03BC"/>
  <outline>
    <contour>
      <point x="618" y="538" type="line"/>
      <point x="618" y="0" type="line"/>
      <point x="477" y="0" type="line"/>
      <point x="477" y="66" type="line"/>
      <point x="453" y="28"/>
      <point x="378" y="-8"/>
      <point x="336" y="-8" type="qcurve" smooth="yes"/>
      <point x="271" y="-8"/>
      <point x="228" y="27" type="qcurve"/>
      <point x="228" y="-194" type="line"/>
      <point x="72" y="-194" type="line"/>
      <point x="72" y="538" type="line"/>
      <point x="228" y="538" type="line"/>
      <point x="228" y="257" type="line" smooth="yes"/>
      <point x="228" y="191"/>
      <point x="285" y="127"/>
      <point x="337" y="127" type="qcurve" smooth="yes"/>
      <point x="394" y="127"/>
      <point x="462" y="200"/>
      <point x="462" y="272" type="qcurve" smooth="yes"/>
      <point x="462" y="538" type="line"/>
    </contour>
  </outline>
</glyph>
<glyph name="pi" format="2">
  <advance width="728"/>
  <unicode hex="03C0"/>
  <outline>
    <contour>
      <point x="717" y="422" type="line"/>
      <point x="590" y="422" type="line"/>
      <point x="590" y="0" type="line"/>
      <point x="450" y="0" type="line"/>
      <point x="450" y="422" type="line"/>
      <point x="356" y="422" type="line"/>
      <point x="309" y="0" type="line"/>
      <point x="169" y="0" type="line"/>
      <point x="216" y="422" type="line"/>
      <point x="189" y="422" type="line" smooth="yes"/>
      <point x="153" y="422"/>
      <point x="113" y="389"/>
      <point x="113" y="357" type="qcurve" smooth="yes"/>
      <point x="113" y="327"/>
      <point x="137" y="286" type="qcurve"/>
      <point x="26" y="250" type="line"/>
      <point x="7" y="277"/>
      <point x="-15" y="351"/>
      <point x="-15" y="383" type="qcurve" smooth="yes"/>
      <point x="-15" y="427"/>
      <point x="32" y="498"/>
      <point x="115" y="538"/>
      <point x="169" y="538" type="qcurve" smooth="yes"/>
      <point x="717" y="538" type="line"/>
    </contour>
  </outline>
</glyph>
<glyph name="uni0402" format="2">
  <advance width="849"/>
  <unicode hex="0402"/>
  <outline>
    <contour>
      <point x="570" y="435" type="qcurve" smooth="yes"/>
      <point x="688" y="435"/>
      <point x="821" y="319"/>
      <point x="821" y="212" type="qcurve" smooth="yes"/>
      <point x="821" y="102"/>
      <point x="684" y="-7"/>
      <point x="577" y="-7" type="qcurve" smooth="yes"/>
      <point x="538" y="-7"/>
      <point x="493" y="1" type="qcurve"/>
      <point x="510" y="128" type="line"/>
      <point x="531" y="122"/>
      <point x="556" y="122" type="qcurve" smooth="yes"/>
      <point x="599" y="122"/>
      <point x="660" y="165"/>
      <point x="660" y="209" type="qcurve" smooth="yes"/>
      <point x="660" y="255"/>
      <point x="591" y="305"/>
      <point x="534" y="305" type="qcurve" smooth="yes"/>
      <point x="471" y="305"/>
      <point x="399" y="274" type="qcurve"/>
      <point x="399" y="0" type="line"/>
      <point x="239" y="0" type="line"/>
      <point x="239" y="568" type="line"/>
      <point x="15" y="568" type="line"/>
      <point x="15" y="700" type="line"/>
      <point x="652" y="700" type="line"/>
      <point x="652" y="568" type="line"/>
      <point x="399" y="568" type="line"/>
      <point x="399" y="409" type="line"/>
      <point x="489" y="435"/>
    </contour>
  </outline>
</glyph>
<glyph name="uni0407" format="2">
  <advance width="328"/>
  <unicode hex="0407"/>
  <anchor x="0" y="0" name="Anchor-11"/>
  <anchor x="0" y="0" name="Anchor-10"/>
  <anchor x="0" y="0" name="Anchor-9"/>
  <anchor x="164" y="856" name="Anchor-8"/>
  <anchor x="245" y="0" name="Anchor-7"/>
  <anchor x="164" y="0" name="Anchor-6"/>
  <outline>
    <contour>
      <point x="-7" y="801"/>
      <point x="-7" y="831" type="qcurve" smooth="yes"/>
      <point x="-7" y="861"/>
      <point x="33" y="900"/>
      <point x="63" y="900" type="qcurve" smooth="yes"/>
      <point x="93" y="900"/>
      <point x="132" y="861"/>
      <point x="132" y="831" type="qcurve" smooth="yes"/>
      <point x="132" y="801"/>
      <point x="93" y="762"/>
      <point x="63" y="762" type="qcurve" smooth="yes"/>
      <point x="33" y="762"/>
    </contour>
    <contour>
      <point x="196" y="801"/>
      <point x="196" y="831" type="qcurve" smooth="yes"/>
      <point x="196" y="861"/>
      <point x="236" y="900"/>
      <point x="265" y="900" type="qcurve" smooth="yes"/>
      <point x="295" y="900"/>
      <point x="335" y="861"/>
      <point x="335" y="831" type="qcurve" smooth="yes"/>
      <point x="335" y="801"/>
      <point x="295" y="762"/>
      <point x="265" y="762" type="qcurve" smooth="yes"/>
      <point x="236" y="762"/>
    </contour>
    <contour>
      <point x="83" y="700" type="line"/>
      <point x="245" y="700" type="line"/>
      <point x="245" y="0" type="line"/>
      <point x="83" y="0" type="line"/>
    </contour>
  </outline>
</glyph>
<glyph name="uni040A" format="2">
  <advance width="1171"/>
  <unicode hex="040A"/>
  <outline>
    <contour>
      <point x="1143" y="330"/>
      <point x="1143" y="228" type="qcurve" smooth="yes"/>
      <point x="1143" y="120"/>
      <point x="1001" y="0"/>
      <point x="875" y="0" type="qcurve" smooth="yes"/>
      <point x="555" y="0" type="line"/>
      <point x="555" y="305" type="line"/>
      <point x="248" y="305" type="line"/>
      <point x="248" y="0" type="line"/>
      <point x="87" y="0" type="line"/>
      <point x="87" y="700" type="line"/>
      <point x="248" y="700" type="line"/>
      <point x="248" y="437" type="line"/>
      <point x="555" y="437" type="line"/>
      <point x="555" y="700" type="line"/>
      <point x="715" y="700" type="line"/>
      <point x="715" y="442" type="line"/>
      <point x="892" y="442" type="line" smooth="yes"/>
      <point x="1012" y="442"/>
    </contour>
    <contour>
      <point x="979" y="173"/>
      <point x="979" y="222" type="qcurve" smooth="yes"/>
      <point x="979" y="271"/>
      <point x="916" y="322"/>
      <point x="857" y="322" type="qcurve" smooth="yes"/>
      <point x="715" y="322" type="line"/>
      <point x="715" y="120" type="line"/>
      <point x="857" y="120" type="line" smooth="yes"/>
      <point x="915" y="120"/>
    </contour>
  </outline>
</glyph>
<glyph name="uni040B" format="2">
  <advance width="857"/>
  <unicode hex="040B"/>
  <outline>
    <contour>
      <point x="819" y="300"/>
      <point x="819" y="175" type="qcurve" smooth="yes"/>
      <point x="819" y="0" type="line"/>
      <point x="659" y="0" type="line"/>
      <point x="659" y="154" type="line" smooth="yes"/>
      <point x="659" y="221"/>
      <point x="590" y="289"/>
      <point x="529" y="289" type="qcurve" smooth="yes"/>
      <point x="469" y="289"/>
      <point x="398" y="257" type="qcurve"/>
      <point x="398" y="0" type="line"/>
      <point x="238" y="0" type="line"/>
      <point x="238" y="568" type="line"/>
      <point x="15" y="568" type="line"/>
      <point x="15" y="700" type="line"/>
      <point x="644" y="700" type="line"/>
      <point x="644" y="568" type="line"/>
      <point x="398" y="568" type="line"/>
      <point x="398" y="398" type="line"/>
      <point x="488" y="426"/>
      <point x="567" y="426" type="qcurve" smooth="yes"/>
      <point x="685" y="426"/>
    </contour>
  </outline>
</glyph>
<glyph name="uni040F" format="2">
  <advance width="808"/>
  <unicode hex="040F"/>
  <outline>
    <contour>
      <point x="721" y="0" type="line"/>
      <point x="479" y="0" type="line"/>
      <point x="479" y="-148" type="line"/>
      <point x="329" y="-148" type="line"/>
      <point x="329" y="0" type="line"/>
      <point x="87" y="0" type="line"/>
      <point x="87" y="700" type="line"/>
      <point x="248" y="700" type="line"/>
      <point x="248" y="132" type="line"/>
      <point x="560" y="132" type="line"/>
      <point x="560" y="700" type="line"/>
      <point x="721" y="700" type="line"/>
    </contour>
  </outline>
</glyph>
<glyph name="uni0411" format="2">
  <advance width="738"/>
  <unicode hex="0411"/>
  <outline>
    <contour>
      <point x="87" y="700" type="line"/>
      <point x="652" y="700" type="line"/>
      <point x="652" y="571" type="line"/>
      <point x="248" y="571" type="line"/>
      <point x="248" y="427" type="line"/>
      <point x="442" y="427" type="line" smooth="yes"/>
      <point x="569" y="427"/>
      <point x="702" y="321"/>
      <point x="702" y="221" type="qcurve" smooth="yes"/>
      <point x="702" y="116"/>
      <point x="554" y="0"/>
      <point x="419" y="0" type="qcurve" smooth="yes"/>
      <point x="87" y="0" type="line"/>
    </contour>
    <contour>
      <point x="410" y="120" type="line" smooth="yes"/>
      <point x="472" y="120"/>
      <point x="538" y="169"/>
      <point x="538" y="216" type="qcurve" smooth="yes"/>
      <point x="538" y="308"/>
      <point x="410" y="308" type="qcurve" smooth="yes"/>
      <point x="248" y="308" type="line"/>
      <point x="248" y="120" type="line"/>
    </contour>
  </outline>
</glyph>
<glyph name="uni0412" format="2">
  <advance width="745"/>
  <unicode hex="0412"/>
  <anchor x="0" y="0" name="Anchor-11"/>
  <anchor x="0" y="0" name="Anchor-10"/>
  <anchor x="0" y="0" name="Anchor-9"/>
  <anchor x="383" y="700" name="Anchor-8"/>
  <anchor x="0" y="0" name="Anchor-7"/>
  <anchor x="383" y="0" name="Anchor-6"/>
  <outline>
    <contour>
      <point x="704" y="260"/>
      <point x="704" y="197" type="qcurve" smooth="yes"/>
      <point x="704" y="104"/>
      <point x="563" y="0"/>
      <point x="432" y="0" type="qcurve" smooth="yes"/>
      <point x="87" y="0" type="line"/>
      <point x="87" y="700" type="line"/>
      <point x="413" y="700" type="line" smooth="yes"/>
      <point x="535" y="700"/>
      <point x="671" y="606"/>
      <point x="671" y="519" type="qcurve" smooth="yes"/>
      <point x="671" y="467"/>
      <point x="619" y="388"/>
      <point x="572" y="365" type="qcurve"/>
      <point x="636" y="346"/>
    </contour>
    <contour>
      <point x="248" y="410" type="line"/>
      <point x="399" y="410" type="line" smooth="yes"/>
      <point x="452" y="410"/>
      <point x="506" y="453"/>
      <point x="506" y="495" type="qcurve" smooth="yes"/>
      <point x="506" y="536"/>
      <point x="451" y="580"/>
      <point x="399" y="580" type="qcurve" smooth="yes"/>
      <point x="248" y="580" type="line"/>
    </contour>
    <contour>
      <point x="540" y="210" type="qcurve" smooth="yes"/>
      <point x="540" y="297"/>
      <point x="426" y="297" type="qcurve" smooth="yes"/>
      <point x="248" y="297" type="line"/>
      <point x="248" y="120" type="line"/>
      <point x="426" y="120" type="line" smooth="yes"/>
      <point x="540" y="120"/>
    </contour>
  </outline>
</glyph>
<glyph name="uni0414" format="2">
  <advance width="831"/>
  <unicode hex="0414"/>
  <outline>
    <contour>
      <point x="809" y="132" type="line"/>
      <point x="809" y="-145" type="line"/>
      <point x="659" y="-145" type="line"/>
      <point x="659" y="0" type="line"/>
      <point x="165" y="0" type="line"/>
      <point x="165" y="-145" type="line"/>
      <point x="15" y="-145" type="line"/>
      <point x="16" y="132" type="line"/>
      <point x="44" y="132" type="line" smooth="yes"/>
      <point x="107" y="134"/>
      <point x="159" y="314"/>
      <point x="165" y="481" type="qcurve" smooth="yes"/>
      <point x="173" y="700" type="line"/>
      <point x="711" y="700" type="line"/>
      <point x="711" y="132" type="line"/>
    </contour>
    <contour>
      <point x="271" y="172"/>
      <point x="238" y="132" type="qcurve"/>
      <point x="551" y="132" type="line"/>
      <point x="551" y="568" type="line"/>
      <point x="311" y="568" type="line"/>
      <point x="308" y="466" type="line" smooth="yes"/>
      <point x="303" y="341"/>
    </contour>
  </outline>
</glyph>
<glyph name="uni0416" format="2">
  <advance width="1079"/>
  <unicode hex="0416"/>
  <anchor x="0" y="0" name="Anchor-11"/>
  <anchor x="0" y="0" name="Anchor-10"/>
  <anchor x="879" y="0" name="Anchor-9"/>
  <anchor x="541" y="700" name="Anchor-8"/>
  <anchor x="0" y="0" name="Anchor-7"/>
  <anchor x="0" y="0" name="Anchor-6"/>
  <outline>
    <contour>
      <point x="722" y="282" type="line"/>
      <point x="620" y="282" type="line"/>
      <point x="620" y="0" type="line"/>
      <point x="461" y="0" type="line"/>
      <point x="461" y="282" type="line"/>
      <point x="357" y="282" type="line"/>
      <point x="200" y="0" type="line"/>
      <point x="13" y="0" type="line"/>
      <point x="223" y="366" type="line"/>
      <point x="26" y="700" type="line"/>
      <point x="197" y="700" type="line"/>
      <point x="354" y="417" type="line"/>
      <point x="461" y="417" type="line"/>
      <point x="461" y="700" type="line"/>
      <point x="620" y="700" type="line"/>
      <point x="620" y="417" type="line"/>
      <point x="724" y="417" type="line"/>
      <point x="882" y="700" type="line"/>
      <point x="1053" y="700" type="line"/>
      <point x="857" y="366" type="line"/>
      <point x="1066" y="0" type="line"/>
      <point x="879" y="0" type="line"/>
    </contour>
  </outline>
</glyph>
